{
copyright = "Copyright (c) 2008 by BV Fonts. All rights reserved.";
customParameters = (
{
name = description;
value = "Copyright (c) 2008 by BV Fonts. All rights reserved.";
},
{
name = vendorID;
value = PYRS;
},
{
name = glyphOrder;
value = (
    ".notdef",
    ".null",
    CR,
    space,
    exclam,
    quotedbl,
    numbersign,
    dollar,
    percent,
    ampersand,
    quotesingle,
    parenleft,
    parenright,
    asterisk,
    plus,
    comma,
    hyphen,
    period,
    slash,
    zero,
    one,
    two,
    three,
    four,
    five,
    six,
    seven,
    eight,
    nine,
    colon,
    semicolon,
    less,
    equal,
    greater,
    question,
    at,
    A,
    B,
    C,
    D,
    E,
    F,
    G,
    H,
    I,
    J,
    K,
    L,
    M,
    N,
    O,
    P,
    Q,
    R,
    S,
    T,
    U,
    V,
    W,
    X,
    Y,
    Z,
    bracketleft,
    backslash,
    bracketright,
    asciicircum,
    underscore,
    grave,
    a,
    b,
    c,
    d,
    e,
    f,
    g,
    h,
    i,
    j,
    k,
    l,
    m,
    n,
    o,
    p,
    q,
    r,
    s,
    t,
    u,
    v,
    w,
    x,
    y,
    z,
    braceleft,
    bar,
    braceright,
    asciitilde,
    uni00A0,
    exclamdown,
    cent,
    sterling,
    currency,
    yen,
    brokenbar,
    section,
    dieresis,
    copyright,
    ordfeminine,
    guillemotleft,
    uni00AD,
    registered,
    macron,
    degree,
    plusminus,
    twosuperior,
    threesuperior,
    acute,
    paragraph,
    periodcentered,
    cedilla,
    onesuperior,
    ordmasculine,
    guillemotright,
    onequarter,
    onehalf,
    threequarters,
    questiondown,
    Agrave,
    Aacute,
    Acircumflex,
    Atilde,
    Adieresis,
    Aring,
    AE,
    Ccedilla,
    Egrave,
    Eacute,
    Ecircumflex,
    Edieresis,
    Igrave,
    Iacute,
    Icircumflex,
    Idieresis,
    Eth,
    Ntilde,
    Ograve,
    Oacute,
    Ocircumflex,
    Otilde,
    Odieresis,
    multiply,
    Oslash,
    Ugrave,
    Uacute,

glyphs = (
{
glyphname = .notdef;
layers = (
{
layerId = "4FCC7E5A-ABB0-4C53-A7CD-8FBAF99C528D";
name = Regular;
paths = (
{
closed = 1;
nodes = (
"39 0 LINE",
"424 0 LINE",
"424 602 LINE",
"39 602 LINE"
);
},
{
closed = 1;
nodes = (
"61 581 LINE",
"400 581 LINE",
"400 21 LINE",
"61 21 LINE"
);
}
);
width = 463;
}
);
note = .notdef;
},
{
glyphname = exclam;
layers = (
{
layerId = "4FCC7E5A-ABB0-4C53-A7CD-8FBAF99C528D";
name = Regular;
paths = (
{
closed = 1;
nodes = (
"49 536 LINE SMOOTH",
"49 531 OFFCURVE",
"54 481 OFFCURVE",
"54 476 CURVE SMOOTH",
"54 461 LINE SMOOTH",
"54 436 OFFCURVE",
"59 366 OFFCURVE",
"59 361 CURVE SMOOTH",
"59 356 OFFCURVE",
"64 336 OFFCURVE",
"64 331 CURVE SMOOTH",
"64 321 OFFCURVE",
"69 251 OFFCURVE",
"69 241 CURVE SMOOTH",
"69 236 OFFCURVE",
"84 196 OFFCURVE",
"84 191 CURVE",
"89 166 LINE",
"89 161 OFFCURVE",
"99 151 OFFCURVE",
"99 146 CURVE",
"139 146 LINE",
"139 146 OFFCURVE",
"159 151 OFFCURVE",
"169 156 CURVE",
"174 161 OFFCURVE",
"194 166 OFFCURVE",
"194 166 CURVE",
"204 186 LINE",
"209 191 LINE",
"214 201 LINE",
"219 216 LINE",
"219 221 OFFCURVE",
"229 231 OFFCURVE",
"229 236 CURVE SMOOTH",
"229 251 OFFCURVE",
"239 316 OFFCURVE",
"239 331 CURVE SMOOTH",
"239 336 OFFCURVE",
"244 386 OFFCURVE",
"244 391 CURVE SMOOTH",
"244 396 OFFCURVE",
"249 416 OFFCURVE",
"249 416 CURVE",
"254 441 OFFCURVE",
"264 506 OFFCURVE",
"264 511 CURVE SMOOTH",
"264 586 LINE SMOOTH",
"264 591 OFFCURVE",
"259 601 OFFCURVE",
"259 601 CURVE",
"249 606 LINE",
"224 606 LINE SMOOTH",
"219 606 OFFCURVE",
"174 611 OFFCURVE",
"169 611 CURVE SMOOTH",
"159 611 LINE SMOOTH",
"159 611 OFFCURVE",
"134 606 OFFCURVE",
"129 606 CURVE SMOOTH",
"124 606 OFFCURVE",
"104 601 OFFCURVE",
"104 601 CURVE",
"99 596 LINE",
"79 571 LINE",
"74 566 LINE",
"59 556 LINE",
"54 551 OFFCURVE",
"49 546 OFFCURVE",
"49 541 CURVE SMOOTH"
);
},
{
closed = 1;
nodes = (
"109 226 LINE",
"109 246 OFFCURVE",
"99 326 OFFCURVE",
"99 346 CURVE SMOOTH",
"99 356 OFFCURVE",
"94 431 OFFCURVE",
"94 441 CURVE SMOOTH",
"94 446 OFFCURVE",
"89 506 OFFCURVE",
"89 511 CURVE SMOOTH",
"89 531 LINE",
"89 531 OFFCURVE",
"99 536 OFFCURVE",
"104 536 CURVE SMOOTH",
"179 536 LINE",
"184 531 LINE",
"184 526 LINE SMOOTH",
"184 511 OFFCURVE",
"174 411 OFFCURVE",
"174 396 CURVE SMOOTH",
"174 216 LINE SMOOTH",
"174 211 OFFCURVE",
"169 201 OFFCURVE",
"169 196 CURVE",
"164 191 LINE",
"159 191 OFFCURVE",
"144 181 OFFCURVE",
"139 181 CURVE SMOOTH",
"129 181 LINE",
"124 186 LINE",
"124 186 OFFCURVE",
"114 206 OFFCURVE",
"114 211 CURVE"
);
},
{
closed = 1;
nodes = (
"114 -9 LINE SMOOTH",
"119 -14 OFFCURVE",
"129 -19 OFFCURVE",
"129 -19 CURVE",
"149 -19 LINE SMOOTH",
"164 -19 OFFCURVE",
"224 -14 OFFCURVE",
"239 -14 CURVE",
"249 1 LINE",
"249 6 OFFCURVE",
"269 21 OFFCURVE",
"269 26 CURVE SMOOTH",
"269 51 LINE SMOOTH",
"269 61 OFFCURVE",
"264 106 OFFCURVE",
"264 111 CURVE",
"264 111 OFFCURVE",
"259 121 OFFCURVE",
"259 126 CURVE SMOOTH",
"259 131 OFFCURVE",
"254 136 OFFCURVE",
"254 136 CURVE",
"244 141 LINE",
"204 141 LINE SMOOTH",
"199 141 OFFCURVE",
"179 136 OFFCURVE",
"174 136 CURVE SMOOTH",
"169 136 OFFCURVE",
"134 131 OFFCURVE",
"124 131 CURVE",
"119 126 LINE",
"114 116 OFFCURVE",
"99 96 OFFCURVE",
"99 96 CURVE",
"99 71 LINE SMOOTH",
"99 66 OFFCURVE",
"104 51 OFFCURVE",
"104 46 CURVE SMOOTH",
"104 41 OFFCURVE",
"109 6 OFFCURVE",
"109 -4 CURVE"
);
},
{
closed = 1;
nodes = (
"139 66 LINE",
"139 66 OFFCURVE",
"144 71 OFFCURVE",
"149 71 CURVE SMOOTH",
"154 71 OFFCURVE",
"169 76 OFFCURVE",
"174 76 CURVE SMOOTH",
"209 76 LINE",
"214 71 LINE",
"209 21 LINE",
"209 21 OFFCURVE",
"179 16 OFFCURVE",
"164 16 CURVE SMOOTH",
"144 16 LINE",
"144 21 OFFCURVE",
"139 46 OFFCURVE",
"139 51 CURVE SMOOTH"
);
}
);
width = 319;
}
);
note = exclam;
unicode = 0021;
},
{
glyphname = quotedbl;
layers = (
{
layerId = "4FCC7E5A-ABB0-4C53-A7CD-8FBAF99C528D";
name = Regular;
paths = (
{
closed = 1;
nodes = (
"13 552 LINE",
"13 542 LINE",
"28 522 LINE",
"28 522 OFFCURVE",
"33 502 OFFCURVE",
"33 497 CURVE SMOOTH",
"33 487 OFFCURVE",
"38 417 OFFCURVE",
"38 407 CURVE SMOOTH",
"38 402 OFFCURVE",
"43 362 OFFCURVE",
"43 357 CURVE SMOOTH",
"43 347 LINE SMOOTH",
"43 342 OFFCURVE",
"53 327 OFFCURVE",
"53 327 CURVE",
"63 322 LINE",
"78 322 LINE",
"98 327 LINE",
"103 327 OFFCURVE",
"138 332 OFFCURVE",
"143 332 CURVE",
"148 337 LINE",
"153 347 OFFCURVE",
"173 372 OFFCURVE",
"173 372 CURVE",
"183 397 LINE",
"183 402 OFFCURVE",
"198 427 OFFCURVE",
"198 432 CURVE",
"198 432 OFFCURVE",
"203 447 OFFCURVE",
"203 452 CURVE",
"203 452 OFFCURVE",
"208 477 OFFCURVE",
"208 487 CURVE SMOOTH",
"208 497 OFFCURVE",
"213 522 OFFCURVE",
"213 527 CURVE SMOOTH",
"213 532 LINE SMOOTH",
"213 537 OFFCURVE",
"219 562 OFFCURVE",
"219 567 CURVE SMOOTH",
"219 602 LINE",
"208 612 LINE",
"198 617 LINE",
"123 617 LINE SMOOTH",
"118 617 OFFCURVE",
"83 612 OFFCURVE",
"78 612 CURVE",
"68 607 LINE"
);
},
{
closed = 1;
nodes = (
"229 547 LINE",
"234 522 LINE",
"234 517 OFFCURVE",
"239 492 OFFCURVE",
"239 492 CURVE",
"239 477 OFFCURVE",
"249 377 OFFCURVE",
"249 362 CURVE SMOOTH",
"249 352 OFFCURVE",
"254 327 OFFCURVE",
"254 327 CURVE SMOOTH",
"254 327 OFFCURVE",
"259 317 OFFCURVE",
"264 317 CURVE",
"274 312 LINE",
"294 312 LINE SMOOTH",
"304 312 OFFCURVE",
"339 317 OFFCURVE",
"349 317 CURVE",
"354 327 LINE",
"354 332 OFFCURVE",
"364 352 OFFCURVE",
"364 357 CURVE SMOOTH",
"364 362 OFFCURVE",
"379 382 OFFCURVE",
"379 387 CURVE",
"384 402 LINE",
"384 407 OFFCURVE",
"394 447 OFFCURVE",
"394 452 CURVE",
"399 467 LINE SMOOTH",
"404 482 OFFCURVE",
"404 497 OFFCURVE",
"409 512 CURVE",
"409 522 OFFCURVE",
"414 542 OFFCURVE",
"414 542 CURVE",
"414 587 LINE",
"404 597 LINE",
"399 597 OFFCURVE",
"389 607 OFFCURVE",
"384 607 CURVE SMOOTH",
"379 607 OFFCURVE",
"359 612 OFFCURVE",
"354 612 CURVE SMOOTH",
"349 612 OFFCURVE",
"299 617 OFFCURVE",
"279 617 CURVE SMOOTH",
"269 617 LINE",
"264 612 OFFCURVE",
"254 597 OFFCURVE",
"249 592 CURVE SMOOTH",
"244 587 OFFCURVE",
"234 572 OFFCURVE",
"234 572 CURVE SMOOTH",
"234 572 OFFCURVE",
"229 562 OFFCURVE",
"229 557 CURVE SMOOTH"
);
},
{
closed = 1;
nodes = (
"63 537 LINE",
"148 537 LINE",
"148 522 LINE SMOOTH",
"148 517 OFFCURVE",
"143 487 OFFCURVE",
"143 482 CURVE SMOOTH",
"143 477 OFFCURVE",
"133 432 OFFCURVE",
"133 422 CURVE SMOOTH",
"133 417 OFFCURVE",
"128 402 OFFCURVE",
"128 397 CURVE SMOOTH",
"128 392 OFFCURVE",
"123 377 OFFCURVE",
"123 377 CURVE",
"118 367 LINE",
"113 362 LINE",
"78 362 LINE",
"73 367 LINE",
"73 367 OFFCURVE",
"68 397 OFFCURVE",
"68 407 CURVE SMOOTH",
"68 417 OFFCURVE",
"63 492 OFFCURVE",
"63 512 CURVE SMOOTH"
);
},
{
closed = 1;
nodes = (
"274 532 LINE",
"279 532 OFFCURVE",
"309 537 OFFCURVE",
"314 537 CURVE SMOOTH",
"349 537 LINE",
"349 532 LINE",
"344 512 LINE",
"344 507 OFFCURVE",
"339 487 OFFCURVE",
"339 482 CURVE SMOOTH",
"339 467 LINE SMOOTH",
"339 457 OFFCURVE",
"334 417 OFFCURVE",
"334 407 CURVE SMOOTH",
"334 402 OFFCURVE",
"329 377 OFFCURVE",
"329 372 CURVE",
"324 357 LINE",
"319 352 LINE",
"284 352 LINE SMOOTH",
"284 352 OFFCURVE",
"274 407 OFFCURVE",
"274 432 CURVE SMOOTH"
);
},
{
closed = 1;
nodes = (
"359 532 OFFCURVE",
"359 522 OFFCURVE",
"354 522 CURVE SMOOTH",
"349 522 OFFCURVE",
"349 532 OFFCURVE",
"354 532 CURVE SMOOTH"
);
}
);
width = 431;
}
);
note = quotedbl;
unicode = 0022;
},
{
glyphname = numbersign;
layers = (
{
layerId = "4FCC7E5A-ABB0-4C53-A7CD-8FBAF99C528D";
name = Regular;
paths = (
{
closed = 1;
nodes = (
"59 179 LINE",
"64 174 LINE",
"74 169 LINE",
"184 169 LINE",
"204 209 LINE",
"204 219 LINE SMOOTH",
"204 224 OFFCURVE",
"209 234 OFFCURVE",
"209 234 CURVE",
"209 239 OFFCURVE",
"224 250 OFFCURVE",
"229 255 CURVE",
"234 255 LINE",
"234 250 LINE SMOOTH",
"234 239 OFFCURVE",
"229 219 OFFCURVE",
"229 214 CURVE",
"224 199 LINE",
"224 184 LINE",
"229 174 LINE",
"239 169 LINE",
"309 169 LINE SMOOTH",
"314 169 OFFCURVE",
"324 179 OFFCURVE",
"329 179 CURVE",
"349 184 LINE",
"354 189 LINE",
"359 199 LINE",
"359 204 OFFCURVE",
"369 224 OFFCURVE",
"369 229 CURVE",
"374 239 LINE",
"374 245 OFFCURVE",
"379 255 OFFCURVE",
"379 260 CURVE",
"434 260 LINE SMOOTH",
"439 260 OFFCURVE",
"449 275 OFFCURVE",
"454 275 CURVE",
"469 285 LINE",
"469 285 OFFCURVE",
"474 295 OFFCURVE",
"474 300 CURVE SMOOTH",
"474 360 LINE",
"469 365 LINE",
"459 370 LINE",
"404 370 LINE",
"409 391 LINE",
"464 391 LINE",
"474 396 LINE",
"484 406 LINE SMOOTH",
"489 411 OFFCURVE",
"504 431 OFFCURVE",
"504 431 CURVE",
"504 496 LINE",
"504 496 OFFCURVE",
"499 506 OFFCURVE",
"494 506 CURVE SMOOTH",
"489 506 LINE",
"469 501 LINE",
"459 501 LINE",
"444 506 LINE",
"444 511 OFFCURVE",
"454 542 OFFCURVE",
"454 547 CURVE",
"459 562 LINE",
"459 582 LINE",
"454 592 LINE",
"449 597 LINE",
"434 602 LINE",
"429 602 OFFCURVE",
"389 607 OFFCURVE",
"374 607 CURVE SMOOTH",
"364 607 LINE",
"354 602 LINE",
"349 602 OFFCURVE",
"339 587 OFFCURVE",
"339 587 CURVE SMOOTH",
"339 587 OFFCURVE",
"329 572 OFFCURVE",
"329 567 CURVE",
"324 552 LINE",
"324 552 OFFCURVE",
"314 531 OFFCURVE",
"314 526 CURVE SMOOTH",
"314 521 OFFCURVE",
"304 501 OFFCURVE",
"304 496 CURVE SMOOTH",
"304 491 OFFCURVE",
"299 486 OFFCURVE",
"299 486 CURVE SMOOTH",
"299 486 OFFCURVE",
"279 481 OFFCURVE",
"274 481 CURVE SMOOTH",
"269 481 LINE",
"269 486 OFFCURVE",
"274 501 OFFCURVE",
"274 506 CURVE SMOOTH",
"274 511 OFFCURVE",
"284 552 OFFCURVE",
"289 562 CURVE",
"294 577 LINE",
"294 582 LINE",
"284 592 LINE",
"284 592 OFFCURVE",
"264 602 OFFCURVE",
"259 602 CURVE SMOOTH",
"254 602 OFFCURVE",
"244 607 OFFCURVE",
"239 607 CURVE SMOOTH",
"229 607 LINE SMOOTH",
"219 607 OFFCURVE",
"184 602 OFFCURVE",
"179 602 CURVE",
"174 597 LINE SMOOTH",
"169 592 OFFCURVE",
"154 572 OFFCURVE",
"154 572 CURVE",
"154 567 OFFCURVE",
"149 537 OFFCURVE",
"149 531 CURVE",
"124 526 OFFCURVE",
"104 521 OFFCURVE",
"79 521 CURVE",
"79 516 OFFCURVE",
"69 501 OFFCURVE",
"69 496 CURVE",
"59 476 LINE",
"59 471 OFFCURVE",
"44 446 OFFCURVE",
"44 441 CURVE",
"39 426 LINE",
"39 421 LINE",
"44 411 LINE",
"54 406 LINE",
"124 406 LINE",
"124 396 LINE",
"119 391 LINE",
"114 391 OFFCURVE",
"79 396 OFFCURVE",
"69 396 CURVE SMOOTH",
"64 396 LINE",
"44 375 LINE",
"34 370 LINE",
"29 365 LINE",
"24 340 LINE",
"24 335 OFFCURVE",
"14 305 OFFCURVE",
"9 295 CURVE SMOOTH",
"4 285 LINE",
"4 280 LINE",
"24 260 LINE",
"74 260 LINE",
"74 255 LINE",
"69 234 LINE",
"69 229 LINE SMOOTH",
"69 224 OFFCURVE",
"59 204 OFFCURVE",
"59 199 CURVE SMOOTH"
);
},
{
closed = 1;
nodes = (
"119 275 LINE",
"114 285 LINE",
"109 290 LINE",
"104 290 OFFCURVE",
"94 295 OFFCURVE",
"89 295 CURVE SMOOTH",
"49 295 LINE",
"49 300 LINE SMOOTH",
"49 310 OFFCURVE",
"59 330 OFFCURVE",
"59 330 CURVE",
"69 335 LINE",
"129 335 LINE",
"139 340 LINE",
"144 345 LINE",
"149 355 OFFCURVE",
"159 396 OFFCURVE",
"164 406 CURVE SMOOTH",
"174 426 LINE",
"174 431 LINE",
"169 436 OFFCURVE",
"159 441 OFFCURVE",
"159 441 CURVE SMOOTH",
"129 441 LINE",
"119 436 LINE",
"99 436 LINE",
"84 441 LINE",
"89 451 LINE",
"94 456 LINE",
"109 461 LINE",
"119 461 OFFCURVE",
"154 466 OFFCURVE",
"164 466 CURVE",
"169 471 LINE",
"174 481 LINE",
"174 486 OFFCURVE",
"184 516 OFFCURVE",
"184 521 CURVE SMOOTH",
"184 526 OFFCURVE",
"189 537 OFFCURVE",
"189 537 CURVE",
"194 542 LINE",
"209 547 LINE",
"224 547 LINE",
"224 542 LINE SMOOTH",
"224 526 OFFCURVE",
"219 511 OFFCURVE",
"214 501 CURVE",
"209 486 OFFCURVE",
"199 476 OFFCURVE",
"199 461 CURVE SMOOTH",
"199 456 LINE",
"209 446 LINE",
"269 446 LINE SMOOTH",
"284 446 OFFCURVE",
"319 451 OFFCURVE",
"319 451 CURVE",
"324 456 LINE",
"364 537 LINE",
"389 537 LINE",
"389 531 OFFCURVE",
"384 506 OFFCURVE",
"384 501 CURVE SMOOTH",
"384 496 OFFCURVE",
"374 476 OFFCURVE",
"374 471 CURVE SMOOTH",
"374 466 LINE",
"379 456 LINE",
"384 451 LINE",
"434 451 LINE",
"434 441 LINE",
"429 431 LINE",
"429 431 OFFCURVE",
"419 426 OFFCURVE",
"414 426 CURVE SMOOTH",
"404 426 OFFCURVE",
"359 421 OFFCURVE",
"349 421 CURVE",
"349 391 LINE SMOOTH",
"349 385 OFFCURVE",
"344 355 OFFCURVE",
"339 345 CURVE",
"334 330 LINE",
"334 315 LINE",
"339 310 LINE",
"404 310 LINE",
"404 300 LINE",
"399 295 LINE",
"384 290 LINE",
"374 290 OFFCURVE",
"334 285 OFFCURVE",
"324 285 CURVE",
"319 280 LINE",
"319 275 OFFCURVE",
"309 250 OFFCURVE",
"309 245 CURVE SMOOTH",
"309 239 OFFCURVE",
"304 229 OFFCURVE",
"304 229 CURVE",
"304 224 OFFCURVE",
"294 214 OFFCURVE",
"294 209 CURVE",
"289 204 LINE",
"264 204 LINE",
"264 209 OFFCURVE",
"269 224 OFFCURVE",
"269 229 CURVE SMOOTH",
"269 234 OFFCURVE",
"279 255 OFFCURVE",
"279 260 CURVE SMOOTH",
"279 285 LINE",
"264 290 LINE",
"174 290 LINE SMOOTH",
"174 290 OFFCURVE",
"164 285 OFFCURVE",
"164 280 CURVE",
"159 270 LINE",
"154 255 LINE",
"149 245 LINE",
"149 239 OFFCURVE",
"139 209 OFFCURVE",
"139 204 CURVE",
"104 204 LINE",
"104 229 LINE",
"104 229 OFFCURVE",
"109 239 OFFCURVE",
"109 245 CURVE",
"109 245 OFFCURVE",
"119 265 OFFCURVE",
"119 270 CURVE SMOOTH"
);
},
{
closed = 1;
nodes = (
"174 345 LINE",
"174 335 LINE SMOOTH",
"174 330 OFFCURVE",
"184 320 OFFCURVE",
"189 320 CURVE SMOOTH",
"269 320 LINE",
"269 320 OFFCURVE",
"284 325 OFFCURVE",
"289 325 CURVE",
"304 330 LINE",
"304 340 OFFCURVE",
"314 375 OFFCURVE",
"314 385 CURVE SMOOTH",
"314 421 LINE",
"309 426 LINE",
"224 426 LINE SMOOTH",
"219 426 OFFCURVE",
"209 421 OFFCURVE",
"204 421 CURVE",
"199 416 LINE SMOOTH",
"194 411 OFFCURVE",
"189 401 OFFCURVE",
"189 401 CURVE",
"184 375 LINE",
"184 370 OFFCURVE",
"179 355 OFFCURVE",
"179 355 CURVE"
);
},
{
closed = 1;
nodes = (
"279 401 LINE",
"279 391 LINE SMOOTH",
"279 385 OFFCURVE",
"274 375 OFFCURVE",
"274 375 CURVE SMOOTH",
"244 375 LINE",
"249 391 LINE",
"249 396 OFFCURVE",
"254 401 OFFCURVE",
"254 401 CURVE"
);
}
);
width = 508;
}
);
note = numbersign;
unicode = 0023;
},
{
glyphname = dollar;
layers = (
{
layerId = "4FCC7E5A-ABB0-4C53-A7CD-8FBAF99C528D";
name = Regular;
paths = (
{
closed = 1;
nodes = (
"153 -24 LINE",
"168 -39 LINE",
"253 -39 LINE SMOOTH",
"258 -39 OFFCURVE",
"273 -34 OFFCURVE",
"278 -34 CURVE",
"288 -29 LINE",
"298 -19 LINE",
"303 -9 OFFCURVE",
"323 11 OFFCURVE",
"323 11 CURVE",
"323 16 OFFCURVE",
"328 61 OFFCURVE",
"328 66 CURVE SMOOTH",
"328 71 OFFCURVE",
"338 81 OFFCURVE",
"338 86 CURVE",
"368 116 LINE",
"373 126 LINE",
"378 131 LINE",
"383 141 LINE",
"388 155 LINE",
"393 165 LINE",
"393 170 OFFCURVE",
"398 180 OFFCURVE",
"398 180 CURVE",
"398 185 OFFCURVE",
"403 210 OFFCURVE",
"403 215 CURVE SMOOTH",
"403 235 LINE",
"403 235 OFFCURVE",
"398 250 OFFCURVE",
"398 255 CURVE",
"393 265 LINE",
"388 280 LINE",
"388 285 OFFCURVE",
"378 300 OFFCURVE",
"378 300 CURVE SMOOTH",
"378 300 OFFCURVE",
"363 320 OFFCURVE",
"358 325 CURVE SMOOTH",
"348 335 LINE SMOOTH",
"343 340 OFFCURVE",
"318 360 OFFCURVE",
"318 360 CURVE",
"303 365 LINE",
"293 375 LINE",
"298 375 OFFCURVE",
"308 380 OFFCURVE",
"313 380 CURVE SMOOTH",
"318 380 OFFCURVE",
"363 385 OFFCURVE",
"368 385 CURVE",
"378 390 LINE",
"383 410 LINE",
"388 415 LINE SMOOTH",
"393 420 OFFCURVE",
"398 435 OFFCURVE",
"398 435 CURVE",
"398 455 LINE SMOOTH",
"398 465 OFFCURVE",
"388 505 OFFCURVE",
"383 515 CURVE",
"383 520 OFFCURVE",
"373 539 OFFCURVE",
"368 544 CURVE SMOOTH",
"358 554 LINE",
"353 564 LINE",
"353 569 OFFCURVE",
"338 579 OFFCURVE",
"338 579 CURVE SMOOTH",
"338 579 OFFCURVE",
"318 589 OFFCURVE",
"313 594 CURVE",
"308 594 OFFCURVE",
"298 604 OFFCURVE",
"298 604 CURVE",
"298 679 LINE",
"298 679 OFFCURVE",
"288 684 OFFCURVE",
"288 689 CURVE",
"283 694 LINE",
"273 699 LINE",
"263 699 OFFCURVE",
"203 709 OFFCURVE",
"193 709 CURVE SMOOTH",
"188 709 LINE",
"173 694 LINE",
"163 689 LINE",
"158 689 OFFCURVE",
"148 679 OFFCURVE",
"148 679 CURVE",
"138 669 LINE",
"138 669 OFFCURVE",
"133 659 OFFCURVE",
"133 654 CURVE SMOOTH",
"133 629 LINE",
"138 609 LINE",
"138 569 LINE",
"128 559 LINE",
"108 549 LINE SMOOTH",
"98 544 OFFCURVE",
"73 515 OFFCURVE",
"68 510 CURVE",
"68 505 OFFCURVE",
"53 475 OFFCURVE",
"48 465 CURVE",
"43 440 LINE",
"38 420 LINE",
"38 365 LINE SMOOTH",
"38 360 OFFCURVE",
"48 335 OFFCURVE",
"48 330 CURVE SMOOTH",
"48 325 OFFCURVE",
"58 315 OFFCURVE",
"63 310 CURVE",
"88 290 LINE",
"93 285 LINE",
"98 285 OFFCURVE",
"113 275 OFFCURVE",
"118 275 CURVE",
"118 275 OFFCURVE",
"148 265 OFFCURVE",
"158 265 CURVE SMOOTH",
"163 265 OFFCURVE",
"198 255 OFFCURVE",
"203 255 CURVE SMOOTH",
"208 255 OFFCURVE",
"228 245 OFFCURVE",
"233 240 CURVE SMOOTH",
"243 230 LINE",
"243 225 OFFCURVE",
"253 210 OFFCURVE",
"253 210 CURVE",
"253 190 LINE SMOOTH",
"253 185 OFFCURVE",
"248 175 OFFCURVE",
"248 175 CURVE SMOOTH",
"248 175 OFFCURVE",
"233 165 OFFCURVE",
"228 165 CURVE",
"218 170 LINE",
"203 185 LINE",
"203 185 OFFCURVE",
"198 195 OFFCURVE",
"198 200 CURVE SMOOTH",
"198 220 LINE",
"198 220 OFFCURVE",
"188 235 OFFCURVE",
"188 240 CURVE SMOOTH",
"188 245 OFFCURVE",
"178 250 OFFCURVE",
"178 250 CURVE SMOOTH",
"173 250 OFFCURVE",
"153 255 OFFCURVE",
"143 255 CURVE SMOOTH",
"103 255 LINE SMOOTH",
"98 255 OFFCURVE",
"83 250 OFFCURVE",
"83 250 CURVE SMOOTH",
"83 250 OFFCURVE",
"63 235 OFFCURVE",
"58 230 CURVE SMOOTH",
"53 225 LINE",
"53 220 OFFCURVE",
"48 200 OFFCURVE",
"48 195 CURVE SMOOTH",
"48 180 LINE SMOOTH",
"48 175 OFFCURVE",
"58 160 OFFCURVE",
"58 155 CURVE SMOOTH",
"58 150 OFFCURVE",
"68 131 OFFCURVE",
"68 126 CURVE",
"73 121 OFFCURVE",
"88 91 OFFCURVE",
"93 86 CURVE SMOOTH",
"118 61 LINE",
"143 46 LINE",
"153 41 LINE"
);
},
{
closed = 1;
nodes = (
"193 6 LINE",
"193 66 LINE",
"193 66 OFFCURVE",
"183 76 OFFCURVE",
"178 76 CURVE SMOOTH",
"178 76 OFFCURVE",
"163 86 OFFCURVE",
"158 86 CURVE",
"143 91 LINE",
"133 96 LINE",
"123 106 LINE",
"123 106 OFFCURVE",
"113 126 OFFCURVE",
"108 131 CURVE",
"98 146 OFFCURVE",
"98 150 OFFCURVE",
"98 170 CURVE SMOOTH",
"98 180 LINE",
"103 185 LINE",
"138 185 LINE",
"138 180 OFFCURVE",
"148 165 OFFCURVE",
"153 160 CURVE",
"153 160 OFFCURVE",
"173 136 OFFCURVE",
"178 131 CURVE SMOOTH",
"183 126 LINE",
"188 126 OFFCURVE",
"208 116 OFFCURVE",
"208 116 CURVE",
"233 116 LINE",
"243 121 LINE",
"248 121 OFFCURVE",
"258 131 OFFCURVE",
"258 131 CURVE",
"268 141 LINE",
"273 150 OFFCURVE",
"293 170 OFFCURVE",
"293 170 CURVE",
"293 200 LINE SMOOTH",
"293 205 OFFCURVE",
"288 215 OFFCURVE",
"288 220 CURVE",
"283 230 OFFCURVE",
"273 255 OFFCURVE",
"273 255 CURVE SMOOTH",
"273 255 OFFCURVE",
"258 265 OFFCURVE",
"253 270 CURVE SMOOTH",
"248 275 OFFCURVE",
"233 285 OFFCURVE",
"228 285 CURVE SMOOTH",
"223 285 OFFCURVE",
"208 295 OFFCURVE",
"203 295 CURVE SMOOTH",
"203 295 OFFCURVE",
"188 300 OFFCURVE",
"183 300 CURVE SMOOTH",
"178 300 OFFCURVE",
"143 310 OFFCURVE",
"138 310 CURVE SMOOTH",
"133 310 OFFCURVE",
"113 320 OFFCURVE",
"108 320 CURVE",
"98 325 LINE",
"78 345 LINE",
"73 355 LINE",
"73 420 LINE",
"73 420 OFFCURVE",
"78 435 OFFCURVE",
"78 440 CURVE SMOOTH",
"78 450 OFFCURVE",
"88 470 OFFCURVE",
"88 470 CURVE",
"103 490 LINE",
"113 505 LINE",
"128 520 LINE",
"133 520 OFFCURVE",
"158 539 OFFCURVE",
"163 539 CURVE",
"173 544 LINE",
"173 629 LINE",
"223 629 LINE",
"223 564 LINE",
"228 554 LINE",
"233 549 LINE",
"253 539 OFFCURVE",
"268 534 OFFCURVE",
"288 524 CURVE",
"293 524 OFFCURVE",
"308 510 OFFCURVE",
"308 510 CURVE SMOOTH",
"308 510 OFFCURVE",
"323 490 OFFCURVE",
"328 485 CURVE",
"333 475 LINE",
"333 470 OFFCURVE",
"343 440 OFFCURVE",
"343 430 CURVE SMOOTH",
"343 425 LINE",
"338 425 OFFCURVE",
"318 420 OFFCURVE",
"313 420 CURVE SMOOTH",
"288 420 LINE",
"283 440 LINE",
"283 450 OFFCURVE",
"268 475 OFFCURVE",
"268 480 CURVE",
"263 485 LINE SMOOTH",
"258 490 OFFCURVE",
"243 500 OFFCURVE",
"243 500 CURVE",
"228 505 LINE",
"183 505 LINE SMOOTH",
"183 505 OFFCURVE",
"173 500 OFFCURVE",
"168 500 CURVE",
"158 495 LINE",
"158 495 OFFCURVE",
"143 485 OFFCURVE",
"143 480 CURVE",
"138 470 LINE",
"138 465 OFFCURVE",
"133 455 OFFCURVE",
"133 455 CURVE",
"133 425 LINE",
"133 425 OFFCURVE",
"138 410 OFFCURVE",
"138 405 CURVE",
"143 395 LINE",
"173 365 LINE",
"173 365 OFFCURVE",
"193 355 OFFCURVE",
"198 350 CURVE",
"198 350 OFFCURVE",
"208 345 OFFCURVE",
"213 345 CURVE",
"238 340 LINE",
"243 335 LINE",
"263 325 LINE",
"273 315 LINE",
"283 310 LINE",
"288 305 OFFCURVE",
"308 295 OFFCURVE",
"308 295 CURVE SMOOTH",
"308 295 OFFCURVE",
"318 280 OFFCURVE",
"323 275 CURVE",
"323 270 OFFCURVE",
"333 260 OFFCURVE",
"333 255 CURVE SMOOTH",
"333 250 OFFCURVE",
"338 235 OFFCURVE",
"338 230 CURVE SMOOTH",
"338 205 LINE SMOOTH",
"338 195 OFFCURVE",
"333 170 OFFCURVE",
"333 165 CURVE SMOOTH",
"333 160 OFFCURVE",
"323 141 OFFCURVE",
"318 136 CURVE",
"318 131 OFFCURVE",
"303 116 OFFCURVE",
"298 111 CURVE SMOOTH",
"253 66 LINE",
"253 6 LINE",
"253 6 OFFCURVE",
"248 1 OFFCURVE",
"243 1 CURVE SMOOTH",
"198 1 LINE"
);
},
{
closed = 1;
nodes = (
"203 455 LINE",
"208 465 LINE",
"223 470 LINE",
"233 465 LINE",
"238 460 OFFCURVE",
"243 455 OFFCURVE",
"243 450 CURVE SMOOTH",
"243 445 OFFCURVE",
"248 435 OFFCURVE",
"248 435 CURVE SMOOTH",
"248 435 OFFCURVE",
"253 405 OFFCURVE",
"253 395 CURVE SMOOTH",
"253 390 LINE",
"248 390 LINE SMOOTH",
"243 390 OFFCURVE",
"218 405 OFFCURVE",
"213 410 CURVE SMOOTH",
"208 415 LINE",
"208 420 OFFCURVE",
"203 435 OFFCURVE",
"203 440 CURVE SMOOTH"
);
}
);
width = 427;
}
);
note = dollar;
unicode = 0024;
},
{
glyphname = percent;
layers = (
{
layerId = "4FCC7E5A-ABB0-4C53-A7CD-8FBAF99C528D";
name = Regular;
paths = (
{
closed = 1;
nodes = (
"200 49 OFFCURVE",
"210 23 OFFCURVE",
"210 23 CURVE SMOOTH",
"210 23 OFFCURVE",
"220 8 OFFCURVE",
"225 3 CURVE SMOOTH",
"230 -2 LINE",
"244 -12 LINE",
"254 -22 LINE",
"259 -22 OFFCURVE",
"289 -32 OFFCURVE",
"294 -32 CURVE SMOOTH",
"329 -32 LINE",
"329 -32 OFFCURVE",
"339 -27 OFFCURVE",
"344 -27 CURVE",
"364 -22 OFFCURVE",
"379 -12 OFFCURVE",
"394 -2 CURVE",
"398 3 LINE",
"398 8 OFFCURVE",
"413 18 OFFCURVE",
"413 23 CURVE",
"418 28 OFFCURVE",
"433 49 OFFCURVE",
"433 54 CURVE",
"438 64 OFFCURVE",
"438 69 OFFCURVE",
"443 79 CURVE SMOOTH",
"448 89 OFFCURVE",
"453 114 OFFCURVE",
"453 114 CURVE",
"453 154 LINE SMOOTH",
"453 159 OFFCURVE",
"443 184 OFFCURVE",
"443 189 CURVE",
"443 189 OFFCURVE",
"428 210 OFFCURVE",
"423 215 CURVE SMOOTH",
"413 225 LINE SMOOTH",
"408 230 OFFCURVE",
"394 240 OFFCURVE",
"394 240 CURVE SMOOTH",
"389 240 OFFCURVE",
"374 245 OFFCURVE",
"369 245 CURVE SMOOTH",
"294 245 LINE",
"294 250 OFFCURVE",
"309 270 OFFCURVE",
"309 275 CURVE",
"314 280 LINE",
"319 290 LINE",
"319 295 OFFCURVE",
"334 315 OFFCURVE",
"334 315 CURVE",
"334 320 OFFCURVE",
"354 345 OFFCURVE",
"354 350 CURVE",
"359 355 LINE",
"369 371 LINE",
"374 376 LINE SMOOTH",
"379 381 OFFCURVE",
"408 441 OFFCURVE",
"413 446 CURVE SMOOTH",
"418 451 LINE",
"418 451 OFFCURVE",
"428 471 OFFCURVE",
"433 476 CURVE",
"438 486 LINE",
"443 491 OFFCURVE",
"463 522 OFFCURVE",
"468 527 CURVE",
"473 537 LINE",
"473 557 LINE",
"473 557 OFFCURVE",
"468 562 OFFCURVE",
"463 562 CURVE SMOOTH",
"458 562 OFFCURVE",
"418 567 OFFCURVE",
"408 567 CURVE SMOOTH",
"384 567 LINE SMOOTH",
"384 567 OFFCURVE",
"359 562 OFFCURVE",
"354 557 CURVE",
"344 552 LINE",
"339 552 OFFCURVE",
"329 542 OFFCURVE",
"329 542 CURVE SMOOTH",
"324 542 OFFCURVE",
"319 532 OFFCURVE",
"319 532 CURVE",
"314 506 LINE",
"314 501 OFFCURVE",
"289 476 OFFCURVE",
"289 471 CURVE",
"279 451 LINE",
"274 446 OFFCURVE",
"260 432 OFFCURVE",
"259 427 CURVE",
"259 511 LINE SMOOTH",
"259 517 OFFCURVE",
"244 537 OFFCURVE",
"239 547 CURVE",
"239 547 OFFCURVE",
"225 562 OFFCURVE",
"220 567 CURVE",
"220 567 OFFCURVE",
"210 577 OFFCURVE",
"205 577 CURVE",
"200 582 OFFCURVE",
"185 587 OFFCURVE",
"185 587 CURVE SMOOTH",
"110 587 LINE SMOOTH",
"110 587 OFFCURVE",
"95 582 OFFCURVE",
"90 577 CURVE SMOOTH",
"85 572 OFFCURVE",
"66 557 OFFCURVE",
"61 557 CURVE",
"36 532 LINE SMOOTH",
"31 527 OFFCURVE",
"16 501 OFFCURVE",
"16 496 CURVE",
"11 471 LINE",
"6 456 LINE",
"6 451 OFFCURVE",
"1 436 OFFCURVE",
"1 436 CURVE",
"1 381 LINE",
"1 381 OFFCURVE",
"6 361 OFFCURVE",
"11 350 CURVE",
"16 340 LINE",
"16 320 LINE",
"16 320 OFFCURVE",
"21 310 OFFCURVE",
"26 305 CURVE SMOOTH",
"36 295 LINE SMOOTH",
"41 290 OFFCURVE",
"56 280 OFFCURVE",
"56 280 CURVE SMOOTH",
"56 280 OFFCURVE",
"71 270 OFFCURVE",
"76 270 CURVE",
"90 265 LINE",
"100 260 LINE",
"120 260 LINE SMOOTH",
"125 260 OFFCURVE",
"145 265 OFFCURVE",
"150 265 CURVE",
"160 270 LINE",
"160 265 LINE",
"150 250 LINE",
"145 240 LINE",
"145 235 OFFCURVE",
"125 210 OFFCURVE",
"120 199 CURVE",
"120 194 OFFCURVE",
"110 184 OFFCURVE",
"110 184 CURVE",
"105 179 LINE",
"100 169 LINE",
"95 164 LINE",
"95 159 OFFCURVE",
"76 139 OFFCURVE",
"76 134 CURVE SMOOTH",
"76 129 OFFCURVE",
"51 104 OFFCURVE",
"51 99 CURVE SMOOTH",
"51 94 OFFCURVE",
"31 64 OFFCURVE",
"31 59 CURVE",
"16 38 LINE",
"16 38 OFFCURVE",
"11 28 OFFCURVE",
"11 23 CURVE SMOOTH",
"11 18 LINE",
"16 8 LINE",
"21 8 OFFCURVE",
"31 -2 OFFCURVE",
"36 -2 CURVE SMOOTH",
"41 -2 OFFCURVE",
"90 -12 OFFCURVE",
"105 -12 CURVE SMOOTH",
"120 -12 LINE SMOOTH",
"125 -12 OFFCURVE",
"150 3 OFFCURVE",
"155 8 CURVE SMOOTH",
"175 28 LINE",
"185 43 LINE",
"185 48 OFFCURVE",
"193 66 OFFCURVE",
"195 72 CURVE",
"196 67 OFFCURVE",
"200 58 OFFCURVE",
"200 54 CURVE SMOOTH"
);
},
{
closed = 1;
nodes = (
"230 89 LINE SMOOTH",
"230 99 OFFCURVE",
"235 119 OFFCURVE",
"235 124 CURVE",
"235 124 OFFCURVE",
"244 149 OFFCURVE",
"249 159 CURVE SMOOTH",
"254 169 LINE",
"259 174 OFFCURVE",
"269 189 OFFCURVE",
"269 189 CURVE",
"274 194 OFFCURVE",
"284 205 OFFCURVE",
"289 205 CURVE",
"289 205 OFFCURVE",
"314 215 OFFCURVE",
"319 215 CURVE SMOOTH",
"324 215 LINE",
"334 210 LINE",
"359 205 LINE",
"369 199 LINE",
"374 194 LINE",
"374 189 OFFCURVE",
"384 179 OFFCURVE",
"384 179 CURVE SMOOTH",
"384 179 OFFCURVE",
"394 159 OFFCURVE",
"394 154 CURVE SMOOTH",
"394 149 OFFCURVE",
"398 139 OFFCURVE",
"398 139 CURVE",
"398 129 LINE SMOOTH",
"398 124 OFFCURVE",
"394 99 OFFCURVE",
"394 99 CURVE SMOOTH",
"394 99 OFFCURVE",
"379 64 OFFCURVE",
"374 54 CURVE",
"374 49 OFFCURVE",
"364 33 OFFCURVE",
"364 33 CURVE SMOOTH",
"364 33 OFFCURVE",
"354 18 OFFCURVE",
"349 18 CURVE",
"339 13 LINE",
"334 8 OFFCURVE",
"314 3 OFFCURVE",
"314 3 CURVE SMOOTH",
"289 3 LINE",
"284 8 LINE",
"269 8 LINE",
"259 18 LINE",
"244 23 LINE",
"244 23 OFFCURVE",
"235 33 OFFCURVE",
"235 38 CURVE SMOOTH",
"235 43 OFFCURVE",
"230 64 OFFCURVE",
"230 69 CURVE SMOOTH"
);
},
{
closed = 1;
nodes = (
"46 33 LINE SMOOTH",
"46 38 OFFCURVE",
"56 59 OFFCURVE",
"56 59 CURVE",
"66 69 LINE",
"76 84 LINE",
"80 89 OFFCURVE",
"90 104 OFFCURVE",
"90 104 CURVE",
"100 114 LINE",
"105 124 OFFCURVE",
"125 154 OFFCURVE",
"130 159 CURVE",
"135 174 LINE",
"140 184 LINE",
"150 194 LINE",
"160 215 LINE",
"170 225 LINE",
"175 235 LINE",
"180 240 LINE SMOOTH",
"185 245 OFFCURVE",
"220 310 OFFCURVE",
"225 315 CURVE",
"225 315 OFFCURVE",
"235 330 OFFCURVE",
"239 335 CURVE",
"244 340 LINE",
"254 355 LINE",
"259 366 LINE",
"259 366 OFFCURVE",
"269 381 OFFCURVE",
"274 386 CURVE SMOOTH",
"279 391 LINE",
"289 416 LINE",
"294 426 LINE",
"304 441 LINE",
"304 446 OFFCURVE",
"319 471 OFFCURVE",
"324 476 CURVE",
"329 486 LINE",
"334 491 LINE",
"349 511 LINE",
"354 511 OFFCURVE",
"379 517 OFFCURVE",
"384 517 CURVE",
"384 506 LINE",
"384 506 OFFCURVE",
"369 471 OFFCURVE",
"359 456 CURVE SMOOTH",
"349 441 LINE",
"339 431 LINE",
"334 421 LINE",
"329 416 OFFCURVE",
"299 355 OFFCURVE",
"294 350 CURVE",
"289 340 LINE",
"289 340 OFFCURVE",
"279 330 OFFCURVE",
"279 325 CURVE",
"264 305 LINE",
"259 295 LINE",
"259 290 OFFCURVE",
"244 270 OFFCURVE",
"244 270 CURVE",
"244 265 OFFCURVE",
"225 240 OFFCURVE",
"225 235 CURVE",
"215 220 LINE",
"205 199 LINE",
"200 194 LINE SMOOTH",
"195 189 OFFCURVE",
"175 154 OFFCURVE",
"170 149 CURVE",
"155 129 LINE",
"145 109 LINE",
"140 104 OFFCURVE",
"120 69 OFFCURVE",
"115 64 CURVE",
"110 54 LINE",
"105 49 LINE",
"100 43 OFFCURVE",
"95 33 OFFCURVE",
"90 23 CURVE",
"66 23 LINE SMOOTH",
"61 23 OFFCURVE",
"51 28 OFFCURVE",
"46 28 CURVE"
);
},
{
closed = 1;
nodes = (
"254 79 LINE SMOOTH",
"254 74 OFFCURVE",
"264 54 OFFCURVE",
"264 49 CURVE",
"269 43 LINE",
"284 38 LINE",
"289 33 LINE",
"299 28 LINE",
"319 28 LINE",
"334 38 LINE",
"344 43 LINE",
"349 43 OFFCURVE",
"359 59 OFFCURVE",
"359 59 CURVE",
"364 69 LINE",
"364 69 OFFCURVE",
"369 79 OFFCURVE",
"369 84 CURVE SMOOTH",
"369 89 OFFCURVE",
"374 99 OFFCURVE",
"374 104 CURVE SMOOTH",
"374 109 OFFCURVE",
"379 129 OFFCURVE",
"379 129 CURVE",
"379 144 LINE SMOOTH",
"379 149 OFFCURVE",
"369 164 OFFCURVE",
"369 169 CURVE SMOOTH",
"369 174 OFFCURVE",
"359 184 OFFCURVE",
"354 184 CURVE SMOOTH",
"309 184 LINE SMOOTH",
"309 184 OFFCURVE",
"299 179 OFFCURVE",
"294 174 CURVE SMOOTH",
"289 169 LINE SMOOTH",
"284 164 OFFCURVE",
"269 144 OFFCURVE",
"269 144 CURVE SMOOTH",
"269 144 OFFCURVE",
"264 124 OFFCURVE",
"259 119 CURVE",
"259 114 OFFCURVE",
"254 104 OFFCURVE",
"254 104 CURVE"
);
},
{
closed = 1;
nodes = (
"31 386 LINE",
"31 421 LINE SMOOTH",
"31 426 OFFCURVE",
"36 456 OFFCURVE",
"41 466 CURVE",
"46 481 LINE",
"51 491 LINE",
"66 511 LINE",
"76 527 LINE",
"80 532 LINE",
"85 532 OFFCURVE",
"95 547 OFFCURVE",
"100 547 CURVE SMOOTH",
"150 547 LINE",
"160 542 LINE",
"165 537 LINE",
"165 532 LINE",
"160 532 OFFCURVE",
"145 537 OFFCURVE",
"140 537 CURVE",
"130 532 LINE",
"125 527 LINE",
"120 527 OFFCURVE",
"100 506 OFFCURVE",
"95 506 CURVE SMOOTH",
"95 506 OFFCURVE",
"85 496 OFFCURVE",
"85 491 CURVE SMOOTH",
"85 486 OFFCURVE",
"76 476 OFFCURVE",
"76 471 CURVE",
"76 471 OFFCURVE",
"71 461 OFFCURVE",
"71 456 CURVE SMOOTH",
"71 451 OFFCURVE",
"66 436 OFFCURVE",
"66 436 CURVE",
"66 386 LINE SMOOTH",
"66 381 OFFCURVE",
"71 366 OFFCURVE",
"71 366 CURVE",
"100 335 LINE",
"110 335 LINE SMOOTH",
"115 335 OFFCURVE",
"135 340 OFFCURVE",
"135 340 CURVE SMOOTH",
"135 340 OFFCURVE",
"155 355 OFFCURVE",
"160 361 CURVE",
"165 366 LINE",
"175 386 OFFCURVE",
"180 406 OFFCURVE",
"185 426 CURVE",
"185 431 LINE SMOOTH",
"185 451 OFFCURVE",
"180 496 OFFCURVE",
"180 496 CURVE",
"180 501 OFFCURVE",
"170 522 OFFCURVE",
"170 527 CURVE",
"175 527 LINE",
"175 527 OFFCURVE",
"190 511 OFFCURVE",
"190 506 CURVE SMOOTH",
"190 501 OFFCURVE",
"195 481 OFFCURVE",
"195 476 CURVE SMOOTH",
"195 431 LINE",
"190 416 LINE",
"185 396 LINE",
"185 391 OFFCURVE",
"175 376 OFFCURVE",
"175 371 CURVE",
"170 366 OFFCURVE",
"160 340 OFFCURVE",
"160 340 CURVE",
"140 320 LINE",
"140 320 OFFCURVE",
"130 310 OFFCURVE",
"125 310 CURVE",
"115 305 LINE",
"95 305 LINE",
"80 310 LINE",
"76 310 LINE",
"71 315 LINE SMOOTH",
"61 325 OFFCURVE",
"41 350 OFFCURVE",
"41 350 CURVE",
"36 371 LINE"
);
},
{
closed = 1;
nodes = (
"115 401 LINE",
"115 431 LINE SMOOTH",
"115 436 OFFCURVE",
"125 456 OFFCURVE",
"125 461 CURVE",
"130 466 LINE",
"130 471 OFFCURVE",
"140 481 OFFCURVE",
"140 486 CURVE",
"145 481 LINE",
"145 426 LINE",
"145 426 OFFCURVE",
"140 416 OFFCURVE",
"140 411 CURVE",
"135 401 LINE",
"125 391 LINE",
"120 391 LINE"
);
},
{
closed = 1;
nodes = (
"339 149 LINE",
"344 144 LINE",
"344 129 LINE SMOOTH",
"344 124 OFFCURVE",
"339 104 OFFCURVE",
"339 99 CURVE",
"339 99 OFFCURVE",
"334 89 OFFCURVE",
"334 84 CURVE",
"329 74 LINE",
"319 69 LINE",
"314 69 LINE",
"314 94 LINE",
"314 94 OFFCURVE",
"319 109 OFFCURVE",
"319 114 CURVE SMOOTH",
"319 119 OFFCURVE",
"329 139 OFFCURVE",
"329 139 CURVE"
);
},
{
closed = 1;
nodes = (
"259 421 OFFCURVE",
"259 411 OFFCURVE",
"254 411 CURVE SMOOTH",
"249 411 OFFCURVE",
"249 421 OFFCURVE",
"254 421 CURVE SMOOTH"
);
}
);
width = 476;
}
);
note = percent;
unicode = 0025;
},
{
glyphname = ampersand;
layers = (
{
layerId = "4FCC7E5A-ABB0-4C53-A7CD-8FBAF99C528D";
name = Regular;
paths = (
{
closed = 1;
nodes = (
"17 52 LINE",
"22 42 LINE",
"27 37 LINE",
"32 37 LINE",
"37 32 LINE",
"47 12 LINE",
"52 7 LINE",
"52 7 OFFCURVE",
"62 -3 OFFCURVE",
"67 -3 CURVE SMOOTH",
"72 -3 OFFCURVE",
"87 -18 OFFCURVE",
"92 -18 CURVE",
"102 -23 LINE",
"117 -33 LINE",
"127 -33 LINE SMOOTH",
"132 -33 OFFCURVE",
"166 -48 OFFCURVE",
"171 -48 CURVE SMOOTH",
"186 -48 LINE SMOOTH",
"191 -48 OFFCURVE",
"221 -43 OFFCURVE",
"231 -43 CURVE SMOOTH",
"241 -43 OFFCURVE",
"266 -38 OFFCURVE",
"266 -38 CURVE",
"276 -33 LINE",
"281 -33 OFFCURVE",
"316 -13 OFFCURVE",
"321 -13 CURVE",
"331 -3 LINE",
"351 7 LINE",
"366 17 LINE",
"386 2 LINE",
"396 -3 LINE",
"411 -13 LINE",
"416 -13 OFFCURVE",
"430 -23 OFFCURVE",
"435 -23 CURVE SMOOTH",
"440 -23 LINE",
"450 -8 LINE",
"490 32 LINE",
"495 32 LINE",
"500 37 LINE",
"500 42 OFFCURVE",
"510 52 OFFCURVE",
"510 52 CURVE",
"510 57 OFFCURVE",
"520 72 OFFCURVE",
"520 77 CURVE SMOOTH",
"520 82 LINE SMOOTH",
"520 87 OFFCURVE",
"515 102 OFFCURVE",
"515 102 CURVE",
"505 117 LINE",
"500 127 LINE",
"500 146 LINE",
"500 146 OFFCURVE",
"505 156 OFFCURVE",
"505 161 CURVE SMOOTH",
"505 166 OFFCURVE",
"520 186 OFFCURVE",
"520 191 CURVE",
"525 206 LINE",
"530 216 LINE",
"530 216 OFFCURVE",
"535 226 OFFCURVE",
"535 231 CURVE SMOOTH",
"535 236 OFFCURVE",
"540 251 OFFCURVE",
"540 251 CURVE",
"540 256 OFFCURVE",
"545 276 OFFCURVE",
"545 281 CURVE",
"555 296 LINE",
"555 301 LINE",
"550 306 LINE",
"550 311 OFFCURVE",
"545 336 OFFCURVE",
"545 341 CURVE",
"540 346 LINE",
"530 351 LINE",
"525 351 OFFCURVE",
"495 356 OFFCURVE",
"490 356 CURVE",
"480 361 LINE",
"460 361 LINE SMOOTH",
"460 361 OFFCURVE",
"435 346 OFFCURVE",
"430 341 CURVE SMOOTH",
"420 331 LINE",
"416 326 OFFCURVE",
"411 316 OFFCURVE",
"411 316 CURVE",
"411 296 LINE SMOOTH",
"411 291 OFFCURVE",
"386 251 OFFCURVE",
"386 246 CURVE SMOOTH",
"386 241 OFFCURVE",
"381 226 OFFCURVE",
"381 221 CURVE",
"361 241 LINE",
"361 241 OFFCURVE",
"356 246 OFFCURVE",
"356 251 CURVE",
"351 261 OFFCURVE",
"341 286 OFFCURVE",
"341 286 CURVE",
"341 291 OFFCURVE",
"336 306 OFFCURVE",
"336 311 CURVE",
"341 321 LINE",
"356 341 LINE",
"356 346 OFFCURVE",
"376 371 OFFCURVE",
"376 376 CURVE",
"386 391 LINE",
"391 401 OFFCURVE",
"411 431 OFFCURVE",
"411 431 CURVE",
"416 436 OFFCURVE",
"435 481 OFFCURVE",
"440 491 CURVE",
"440 491 OFFCURVE",
"450 511 OFFCURVE",
"450 516 CURVE",
"455 530 LINE",
"460 540 OFFCURVE",
"465 565 OFFCURVE",
"465 565 CURVE",
"465 590 LINE",
"465 590 OFFCURVE",
"460 620 OFFCURVE",
"455 630 CURVE",
"450 645 LINE",
"445 655 LINE",
"420 680 LINE",
"416 680 OFFCURVE",
"406 690 OFFCURVE",
"406 690 CURVE",
"396 695 OFFCURVE",
"356 705 OFFCURVE",
"346 705 CURVE SMOOTH",
"306 705 LINE",
"286 695 LINE",
"271 690 LINE",
"261 685 LINE",
"241 680 LINE",
"241 680 OFFCURVE",
"221 670 OFFCURVE",
"216 665 CURVE SMOOTH",
"211 660 OFFCURVE",
"191 650 OFFCURVE",
"186 645 CURVE SMOOTH",
"181 640 LINE",
"161 615 LINE",
"156 610 LINE",
"142 585 OFFCURVE",
"137 560 OFFCURVE",
"132 530 CURVE",
"132 520 OFFCURVE",
"127 491 OFFCURVE",
"127 486 CURVE SMOOTH",
"127 451 LINE SMOOTH",
"127 441 OFFCURVE",
"137 386 OFFCURVE",
"142 366 CURVE",
"147 351 LINE",
"127 331 LINE SMOOTH",
"117 321 OFFCURVE",
"77 266 OFFCURVE",
"67 256 CURVE",
"67 256 OFFCURVE",
"57 236 OFFCURVE",
"52 231 CURVE",
"52 226 OFFCURVE",
"32 196 OFFCURVE",
"32 191 CURVE",
"27 186 LINE",
"27 186 OFFCURVE",
"22 166 OFFCURVE",
"22 161 CURVE SMOOTH",
"22 151 OFFCURVE",
"17 127 OFFCURVE",
"17 122 CURVE SMOOTH"
);
},
{
closed = 1;
nodes = (
"47 97 LINE SMOOTH",
"47 127 OFFCURVE",
"52 161 OFFCURVE",
"67 191 CURVE SMOOTH",
"87 231 LINE",
"127 276 LINE",
"137 291 LINE",
"166 321 LINE",
"181 321 LINE",
"181 321 OFFCURVE",
"186 326 OFFCURVE",
"186 331 CURVE SMOOTH",
"186 341 LINE SMOOTH",
"186 346 OFFCURVE",
"171 366 OFFCURVE",
"171 371 CURVE SMOOTH",
"171 376 OFFCURVE",
"166 396 OFFCURVE",
"166 401 CURVE",
"166 401 OFFCURVE",
"161 421 OFFCURVE",
"161 426 CURVE SMOOTH",
"161 486 LINE SMOOTH",
"161 496 OFFCURVE",
"166 530 OFFCURVE",
"166 535 CURVE",
"166 535 OFFCURVE",
"181 565 OFFCURVE",
"186 580 CURVE",
"191 590 LINE",
"196 595 LINE",
"201 605 LINE",
"216 620 LINE",
"216 620 OFFCURVE",
"241 630 OFFCURVE",
"246 635 CURVE",
"261 640 LINE SMOOTH",
"276 645 OFFCURVE",
"291 655 OFFCURVE",
"306 655 CURVE SMOOTH",
"316 655 LINE SMOOTH",
"321 655 OFFCURVE",
"341 650 OFFCURVE",
"346 650 CURVE",
"356 645 LINE",
"371 635 LINE",
"381 630 LINE",
"391 620 LINE",
"391 615 OFFCURVE",
"401 605 OFFCURVE",
"401 600 CURVE SMOOTH",
"401 520 LINE",
"401 520 OFFCURVE",
"396 506 OFFCURVE",
"396 501 CURVE SMOOTH",
"396 496 OFFCURVE",
"391 486 OFFCURVE",
"391 486 CURVE",
"361 426 LINE",
"356 421 LINE",
"336 396 LINE",
"266 326 LINE",
"261 316 LINE",
"261 306 LINE",
"266 291 LINE",
"271 266 LINE",
"271 261 OFFCURVE",
"296 241 OFFCURVE",
"296 236 CURVE",
"301 231 OFFCURVE",
"311 211 OFFCURVE",
"316 206 CURVE",
"316 201 OFFCURVE",
"336 176 OFFCURVE",
"336 171 CURVE SMOOTH",
"336 166 OFFCURVE",
"346 156 OFFCURVE",
"346 156 CURVE",
"356 146 LINE",
"366 141 LINE",
"376 146 LINE",
"396 166 LINE",
"396 166 OFFCURVE",
"401 186 OFFCURVE",
"406 191 CURVE",
"411 206 LINE",
"416 216 LINE",
"420 231 LINE",
"425 246 OFFCURVE",
"445 281 OFFCURVE",
"445 281 CURVE",
"475 281 LINE",
"475 276 OFFCURVE",
"470 241 OFFCURVE",
"470 236 CURVE SMOOTH",
"470 231 OFFCURVE",
"455 191 OFFCURVE",
"450 176 CURVE",
"445 166 LINE",
"445 161 OFFCURVE",
"435 146 OFFCURVE",
"430 141 CURVE",
"420 127 LINE",
"416 117 LINE",
"416 112 LINE SMOOTH",
"416 107 OFFCURVE",
"425 92 OFFCURVE",
"425 92 CURVE",
"440 77 LINE",
"445 67 LINE",
"445 57 LINE",
"435 47 LINE",
"425 32 LINE",
"416 27 LINE",
"411 32 LINE",
"401 52 LINE",
"381 57 LINE",
"366 62 LINE",
"361 62 LINE",
"356 57 OFFCURVE",
"336 42 OFFCURVE",
"331 37 CURVE",
"331 37 OFFCURVE",
"306 22 OFFCURVE",
"296 17 CURVE",
"291 12 OFFCURVE",
"271 2 OFFCURVE",
"266 2 CURVE",
"261 -3 OFFCURVE",
"236 -8 OFFCURVE",
"236 -8 CURVE SMOOTH",
"151 -8 LINE SMOOTH",
"147 -8 OFFCURVE",
"132 2 OFFCURVE",
"127 2 CURVE",
"112 7 LINE",
"112 7 OFFCURVE",
"92 17 OFFCURVE",
"87 22 CURVE",
"82 22 OFFCURVE",
"72 32 OFFCURVE",
"72 32 CURVE",
"57 47 LINE",
"57 52 OFFCURVE",
"47 72 OFFCURVE",
"47 77 CURVE SMOOTH"
);
},
{
closed = 1;
nodes = (
"92 102 LINE SMOOTH",
"92 97 OFFCURVE",
"97 87 OFFCURVE",
"97 87 CURVE",
"107 77 LINE",
"117 57 LINE",
"117 57 OFFCURVE",
"132 47 OFFCURVE",
"137 47 CURVE",
"151 42 LINE",
"156 42 OFFCURVE",
"176 37 OFFCURVE",
"181 37 CURVE SMOOTH",
"231 37 LINE",
"231 37 OFFCURVE",
"251 42 OFFCURVE",
"256 47 CURVE",
"266 52 OFFCURVE",
"291 62 OFFCURVE",
"291 62 CURVE",
"296 67 LINE",
"306 72 LINE SMOOTH",
"316 77 OFFCURVE",
"331 97 OFFCURVE",
"331 97 CURVE",
"331 107 LINE",
"326 112 OFFCURVE",
"306 141 OFFCURVE",
"301 146 CURVE",
"296 156 LINE",
"286 171 LINE",
"281 186 OFFCURVE",
"256 236 OFFCURVE",
"251 241 CURVE",
"246 261 LINE",
"246 261 OFFCURVE",
"226 266 OFFCURVE",
"221 266 CURVE SMOOTH",
"216 266 LINE SMOOTH",
"211 266 OFFCURVE",
"196 256 OFFCURVE",
"196 256 CURVE",
"191 251 OFFCURVE",
"171 236 OFFCURVE",
"166 231 CURVE SMOOTH",
"132 196 LINE",
"132 196 OFFCURVE",
"122 181 OFFCURVE",
"117 176 CURVE",
"117 171 OFFCURVE",
"107 161 OFFCURVE",
"107 161 CURVE",
"107 156 OFFCURVE",
"97 141 OFFCURVE",
"97 137 CURVE SMOOTH",
"97 132 OFFCURVE",
"92 122 OFFCURVE",
"92 117 CURVE SMOOTH"
);
},
{
closed = 1;
nodes = (
"191 471 LINE",
"191 471 OFFCURVE",
"196 441 OFFCURVE",
"201 431 CURVE",
"201 426 OFFCURVE",
"206 416 OFFCURVE",
"206 416 CURVE",
"206 411 OFFCURVE",
"221 391 OFFCURVE",
"221 386 CURVE",
"226 381 LINE",
"236 376 LINE",
"241 376 LINE",
"246 381 OFFCURVE",
"271 391 OFFCURVE",
"271 391 CURVE",
"276 401 LINE",
"286 406 OFFCURVE",
"321 441 OFFCURVE",
"326 446 CURVE SMOOTH",
"331 451 LINE SMOOTH",
"336 456 OFFCURVE",
"351 481 OFFCURVE",
"356 486 CURVE",
"361 496 LINE",
"361 506 OFFCURVE",
"371 530 OFFCURVE",
"371 535 CURVE SMOOTH",
"371 560 LINE SMOOTH",
"371 565 OFFCURVE",
"361 585 OFFCURVE",
"361 590 CURVE",
"341 605 LINE",
"336 610 LINE",
"336 610 OFFCURVE",
"316 615 OFFCURVE",
"311 615 CURVE SMOOTH",
"301 615 LINE SMOOTH",
"296 615 OFFCURVE",
"271 610 OFFCURVE",
"266 610 CURVE",
"256 605 LINE",
"251 600 OFFCURVE",
"231 590 OFFCURVE",
"231 590 CURVE",
"221 580 LINE SMOOTH",
"216 575 OFFCURVE",
"211 565 OFFCURVE",
"206 555 CURVE",
"201 550 OFFCURVE",
"196 530 OFFCURVE",
"196 530 CURVE",
"196 525 OFFCURVE",
"191 501 OFFCURVE",
"191 496 CURVE SMOOTH"
);
},
{
closed = 1;
nodes = (
"181 82 LINE",
"181 117 LINE",
"181 117 OFFCURVE",
"186 132 OFFCURVE",
"191 137 CURVE",
"196 141 LINE",
"211 161 LINE",
"216 166 LINE",
"226 171 LINE",
"231 181 LINE",
"236 186 LINE",
"236 181 OFFCURVE",
"246 171 OFFCURVE",
"246 166 CURVE",
"256 151 LINE",
"261 141 LINE",
"266 137 LINE",
"276 122 LINE",
"281 117 LINE",
"286 107 LINE",
"286 102 LINE",
"281 97 OFFCURVE",
"251 87 OFFCURVE",
"246 82 CURVE",
"246 82 OFFCURVE",
"236 77 OFFCURVE",
"231 77 CURVE SMOOTH",
"226 77 OFFCURVE",
"211 72 OFFCURVE",
"211 72 CURVE SMOOTH",
"196 72 LINE",
"186 77 LINE"
);
},
{
closed = 1;
nodes = (
"271 516 LINE SMOOTH",
"271 520 OFFCURVE",
"276 545 OFFCURVE",
"276 550 CURVE",
"281 560 LINE",
"296 570 LINE",
"306 580 LINE",
"311 580 LINE",
"321 575 LINE",
"331 565 LINE",
"336 555 LINE",
"336 535 LINE SMOOTH",
"336 530 OFFCURVE",
"326 511 OFFCURVE",
"326 506 CURVE",
"326 506 OFFCURVE",
"321 496 OFFCURVE",
"316 491 CURVE",
"306 476 OFFCURVE",
"296 461 OFFCURVE",
"276 451 CURVE",
"276 456 OFFCURVE",
"271 476 OFFCURVE",
"271 481 CURVE SMOOTH"
);
},
{
closed = 1;
nodes = (
"311 72 OFFCURVE",
"311 62 OFFCURVE",
"316 62 CURVE SMOOTH",
"321 62 OFFCURVE",
"321 72 OFFCURVE",
"316 72 CURVE SMOOTH"
);
},
{
closed = 1;
nodes = (
"321 62 LINE",
"316 57 LINE",
"321 57 LINE"
);
}
);
width = 531;
}
);
note = ampersand;
unicode = 0026;
},
{
glyphname = quotesingle;
layers = (
{
layerId = "4FCC7E5A-ABB0-4C53-A7CD-8FBAF99C528D";
name = Regular;
paths = (
{
closed = 1;
nodes = (
"18 572 OFFCURVE",
"28 551 OFFCURVE",
"28 546 CURVE SMOOTH",
"28 541 OFFCURVE",
"33 521 OFFCURVE",
"33 516 CURVE SMOOTH",
"33 506 OFFCURVE",
"38 421 OFFCURVE",
"38 410 CURVE SMOOTH",
"38 405 OFFCURVE",
"43 375 OFFCURVE",
"43 370 CURVE SMOOTH",
"43 365 OFFCURVE",
"48 355 OFFCURVE",
"48 350 CURVE",
"54 340 LINE",
"94 340 LINE SMOOTH",
"99 340 OFFCURVE",
"135 345 OFFCURVE",
"140 345 CURVE",
"140 350 OFFCURVE",
"150 360 OFFCURVE",
"150 365 CURVE",
"155 380 LINE",
"165 395 LINE",
"165 400 OFFCURVE",
"175 416 OFFCURVE",
"175 421 CURVE SMOOTH",
"175 426 OFFCURVE",
"181 436 OFFCURVE",
"181 441 CURVE SMOOTH",
"181 446 OFFCURVE",
"186 471 OFFCURVE",
"186 476 CURVE SMOOTH",
"186 481 OFFCURVE",
"201 516 OFFCURVE",
"201 521 CURVE",
"201 521 OFFCURVE",
"206 541 OFFCURVE",
"206 551 CURVE SMOOTH",
"206 561 OFFCURVE",
"211 587 OFFCURVE",
"211 587 CURVE",
"211 612 LINE",
"196 627 LINE",
"181 637 LINE",
"165 637 OFFCURVE",
"94 642 OFFCURVE",
"79 642 CURVE SMOOTH",
"64 642 LINE",
"54 637 LINE",
"54 637 OFFCURVE",
"38 627 OFFCURVE",
"38 622 CURVE SMOOTH",
"38 617 OFFCURVE",
"28 607 OFFCURVE",
"28 607 CURVE",
"23 602 OFFCURVE",
"18 577 OFFCURVE",
"18 577 CURVE"
);
},
{
closed = 1;
nodes = (
"74 380 LINE",
"74 390 OFFCURVE",
"69 441 OFFCURVE",
"69 451 CURVE SMOOTH",
"69 466 OFFCURVE",
"64 531 OFFCURVE",
"64 546 CURVE SMOOTH",
"64 561 LINE",
"69 561 OFFCURVE",
"94 567 OFFCURVE",
"99 567 CURVE SMOOTH",
"140 567 LINE",
"145 561 LINE",
"145 556 LINE",
"140 551 LINE",
"140 551 OFFCURVE",
"135 531 OFFCURVE",
"135 521 CURVE SMOOTH",
"135 511 OFFCURVE",
"130 486 OFFCURVE",
"130 486 CURVE",
"130 481 OFFCURVE",
"125 416 OFFCURVE",
"125 410 CURVE",
"125 410 OFFCURVE",
"120 395 OFFCURVE",
"120 390 CURVE",
"114 380 LINE",
"109 375 LINE",
"79 375 LINE"
);
}
);
width = 219;
}
);
note = quotesingle;
unicode = 0027;
},
{
glyphname = parenleft;
layers = (
{
layerId = "4FCC7E5A-ABB0-4C53-A7CD-8FBAF99C528D";
name = Regular;
paths = (
{
closed = 1;
nodes = (
"245 646 LINE SMOOTH",
"240 646 OFFCURVE",
"220 636 OFFCURVE",
"215 636 CURVE SMOOTH",
"210 636 OFFCURVE",
"180 621 OFFCURVE",
"176 616 CURVE",
"176 616 OFFCURVE",
"166 606 OFFCURVE",
"161 606 CURVE",
"156 601 LINE",
"156 601 OFFCURVE",
"146 591 OFFCURVE",
"146 586 CURVE",
"141 576 LINE",
"136 571 OFFCURVE",
"126 551 OFFCURVE",
"126 551 CURVE",
"121 546 LINE SMOOTH",
"116 541 OFFCURVE",
"106 521 OFFCURVE",
"101 515 CURVE",
"96 505 LINE",
"96 500 OFFCURVE",
"77 475 OFFCURVE",
"77 470 CURVE",
"72 450 LINE",
"72 445 OFFCURVE",
"52 405 OFFCURVE",
"52 400 CURVE SMOOTH",
"52 395 OFFCURVE",
"42 370 OFFCURVE",
"42 365 CURVE",
"37 350 OFFCURVE",
"32 315 OFFCURVE",
"32 310 CURVE SMOOTH",
"32 134 LINE SMOOTH",
"32 129 OFFCURVE",
"37 94 OFFCURVE",
"42 84 CURVE SMOOTH",
"52 64 LINE",
"57 44 LINE",
"57 39 OFFCURVE",
"77 9 OFFCURVE",
"77 3 CURVE SMOOTH",
"77 -2 OFFCURVE",
"86 -22 OFFCURVE",
"86 -27 CURVE",
"96 -47 LINE",
"101 -62 LINE",
"106 -67 LINE",
"106 -72 LINE",
"126 -112 LINE",
"126 -112 OFFCURVE",
"141 -122 OFFCURVE",
"146 -122 CURVE",
"161 -117 LINE",
"166 -117 OFFCURVE",
"190 -112 OFFCURVE",
"195 -112 CURVE SMOOTH",
"200 -112 OFFCURVE",
"235 -92 OFFCURVE",
"245 -87 CURVE",
"250 -82 LINE",
"255 -72 OFFCURVE",
"270 -47 OFFCURVE",
"270 -47 CURVE",
"270 -32 LINE",
"270 -32 OFFCURVE",
"260 -2 OFFCURVE",
"255 9 CURVE",
"245 34 LINE",
"245 39 OFFCURVE",
"240 49 OFFCURVE",
"240 49 CURVE",
"240 59 OFFCURVE",
"230 124 OFFCURVE",
"230 134 CURVE",
"225 174 OFFCURVE",
"215 219 OFFCURVE",
"215 259 CURVE SMOOTH",
"215 275 LINE SMOOTH",
"215 300 OFFCURVE",
"220 325 OFFCURVE",
"225 350 CURVE",
"225 355 OFFCURVE",
"230 375 OFFCURVE",
"230 375 CURVE",
"230 380 OFFCURVE",
"240 400 OFFCURVE",
"240 405 CURVE",
"245 425 LINE",
"250 435 LINE",
"250 440 OFFCURVE",
"260 460 OFFCURVE",
"260 465 CURVE",
"270 485 LINE",
"270 490 OFFCURVE",
"284 515 OFFCURVE",
"284 521 CURVE",
"284 521 OFFCURVE",
"294 531 OFFCURVE",
"294 536 CURVE",
"299 541 LINE SMOOTH",
"304 546 OFFCURVE",
"314 566 OFFCURVE",
"319 571 CURVE",
"324 581 LINE",
"329 586 OFFCURVE",
"334 606 OFFCURVE",
"334 606 CURVE",
"334 616 LINE",
"329 626 LINE",
"329 631 OFFCURVE",
"319 636 OFFCURVE",
"319 636 CURVE SMOOTH",
"314 636 OFFCURVE",
"289 641 OFFCURVE",
"284 641 CURVE SMOOTH",
"284 641 OFFCURVE",
"265 646 OFFCURVE",
"260 646 CURVE SMOOTH"
);
},
{
closed = 1;
nodes = (
"101 19 LINE",
"101 24 LINE SMOOTH",
"101 29 OFFCURVE",
"86 49 OFFCURVE",
"86 54 CURVE SMOOTH",
"86 59 OFFCURVE",
"77 79 OFFCURVE",
"77 84 CURVE SMOOTH",
"77 89 OFFCURVE",
"67 114 OFFCURVE",
"67 124 CURVE SMOOTH",
"67 129 OFFCURVE",
"62 144 OFFCURVE",
"62 149 CURVE SMOOTH",
"62 300 LINE SMOOTH",
"62 305 OFFCURVE",
"67 325 OFFCURVE",
"67 335 CURVE SMOOTH",
"67 340 OFFCURVE",
"72 350 OFFCURVE",
"72 355 CURVE SMOOTH",
"72 360 OFFCURVE",
"81 380 OFFCURVE",
"81 385 CURVE SMOOTH",
"81 390 OFFCURVE",
"101 435 OFFCURVE",
"101 440 CURVE SMOOTH",
"101 445 OFFCURVE",
"111 465 OFFCURVE",
"111 470 CURVE",
"116 475 LINE",
"116 480 OFFCURVE",
"136 500 OFFCURVE",
"136 505 CURVE",
"141 510 LINE",
"156 536 LINE",
"161 541 LINE",
"171 561 LINE",
"180 571 LINE",
"185 576 OFFCURVE",
"195 581 OFFCURVE",
"195 581 CURVE",
"220 581 LINE SMOOTH",
"225 581 OFFCURVE",
"235 576 OFFCURVE",
"240 576 CURVE",
"240 571 LINE",
"240 571 OFFCURVE",
"230 556 OFFCURVE",
"230 551 CURVE",
"220 536 LINE SMOOTH",
"200 505 OFFCURVE",
"185 475 OFFCURVE",
"176 445 CURVE",
"171 440 OFFCURVE",
"166 415 OFFCURVE",
"166 415 CURVE",
"166 410 OFFCURVE",
"156 360 OFFCURVE",
"156 345 CURVE SMOOTH",
"156 335 OFFCURVE",
"151 295 OFFCURVE",
"151 290 CURVE SMOOTH",
"151 209 LINE SMOOTH",
"151 204 OFFCURVE",
"156 164 OFFCURVE",
"156 154 CURVE SMOOTH",
"156 139 OFFCURVE",
"166 94 OFFCURVE",
"166 89 CURVE SMOOTH",
"166 79 OFFCURVE",
"190 3 OFFCURVE",
"195 -17 CURVE",
"195 -22 OFFCURVE",
"210 -52 OFFCURVE",
"210 -57 CURVE SMOOTH",
"210 -62 LINE",
"205 -67 LINE SMOOTH",
"200 -72 OFFCURVE",
"190 -77 OFFCURVE",
"190 -77 CURVE SMOOTH",
"190 -77 OFFCURVE",
"171 -82 OFFCURVE",
"166 -82 CURVE SMOOTH",
"156 -82 LINE",
"151 -77 LINE SMOOTH",
"146 -72 OFFCURVE",
"136 -57 OFFCURVE",
"136 -57 CURVE SMOOTH",
"136 -57 OFFCURVE",
"126 -42 OFFCURVE",
"126 -37 CURVE"
);
}
);
width = 302;
}
);
note = parenleft;
unicode = 0028;
},
{
glyphname = parenright;
layers = (
{
layerId = "4FCC7E5A-ABB0-4C53-A7CD-8FBAF99C528D";
name = Regular;
paths = (
{
closed = 1;
nodes = (
"10 -102 LINE",
"20 -112 LINE",
"70 -112 LINE SMOOTH",
"75 -112 OFFCURVE",
"95 -107 OFFCURVE",
"100 -107 CURVE SMOOTH",
"105 -107 OFFCURVE",
"125 -97 OFFCURVE",
"130 -97 CURVE",
"150 -82 LINE",
"170 -72 LINE",
"170 -72 OFFCURVE",
"185 -62 OFFCURVE",
"185 -57 CURVE",
"185 -57 OFFCURVE",
"190 -52 OFFCURVE",
"190 -47 CURVE SMOOTH",
"190 -42 OFFCURVE",
"205 -17 OFFCURVE",
"205 -12 CURVE",
"210 -2 LINE",
"210 3 OFFCURVE",
"230 38 OFFCURVE",
"230 43 CURVE",
"275 134 LINE",
"280 154 LINE",
"280 159 OFFCURVE",
"290 184 OFFCURVE",
"290 189 CURVE SMOOTH",
"290 194 OFFCURVE",
"295 204 OFFCURVE",
"295 209 CURVE SMOOTH",
"295 214 OFFCURVE",
"300 234 OFFCURVE",
"300 234 CURVE",
"300 334 LINE",
"300 334 OFFCURVE",
"295 354 OFFCURVE",
"295 359 CURVE",
"290 374 OFFCURVE",
"275 429 OFFCURVE",
"275 439 CURVE SMOOTH",
"275 444 OFFCURVE",
"265 465 OFFCURVE",
"265 470 CURVE SMOOTH",
"265 475 OFFCURVE",
"255 500 OFFCURVE",
"255 505 CURVE SMOOTH",
"255 510 OFFCURVE",
"235 550 OFFCURVE",
"235 555 CURVE",
"230 575 LINE",
"230 580 OFFCURVE",
"220 600 OFFCURVE",
"215 605 CURVE SMOOTH",
"210 610 OFFCURVE",
"200 630 OFFCURVE",
"200 630 CURVE",
"190 635 LINE",
"165 635 LINE SMOOTH",
"165 635 OFFCURVE",
"145 640 OFFCURVE",
"140 640 CURVE",
"125 645 LINE",
"120 645 LINE SMOOTH",
"115 645 OFFCURVE",
"100 640 OFFCURVE",
"95 635 CURVE SMOOTH",
"90 630 OFFCURVE",
"65 615 OFFCURVE",
"65 615 CURVE",
"30 580 LINE",
"30 565 LINE",
"30 565 OFFCURVE",
"35 555 OFFCURVE",
"35 550 CURVE SMOOTH",
"35 545 OFFCURVE",
"50 515 OFFCURVE",
"50 510 CURVE",
"55 495 LINE",
"65 470 LINE",
"70 454 LINE",
"75 434 LINE",
"80 419 LINE",
"80 419 OFFCURVE",
"85 394 OFFCURVE",
"85 384 CURVE SMOOTH",
"85 374 OFFCURVE",
"90 344 OFFCURVE",
"90 344 CURVE",
"90 214 LINE SMOOTH",
"90 204 OFFCURVE",
"85 149 OFFCURVE",
"85 139 CURVE",
"80 124 LINE",
"80 119 OFFCURVE",
"70 79 OFFCURVE",
"70 73 CURVE SMOOTH",
"70 68 OFFCURVE",
"65 53 OFFCURVE",
"65 53 CURVE",
"65 48 OFFCURVE",
"55 13 OFFCURVE",
"50 8 CURVE",
"50 3 OFFCURVE",
"40 -12 OFFCURVE",
"40 -17 CURVE",
"35 -27 LINE",
"30 -42 LINE",
"30 -47 OFFCURVE",
"15 -72 OFFCURVE",
"15 -77 CURVE",
"15 -77 OFFCURVE",
"10 -92 OFFCURVE",
"10 -97 CURVE SMOOTH"
);
},
{
closed = 1;
nodes = (
"120 369 LINE SMOOTH",
"120 374 OFFCURVE",
"115 399 OFFCURVE",
"115 404 CURVE SMOOTH",
"115 409 OFFCURVE",
"105 449 OFFCURVE",
"100 465 CURVE SMOOTH",
"95 480 LINE",
"95 485 OFFCURVE",
"80 525 OFFCURVE",
"80 530 CURVE SMOOTH",
"80 535 OFFCURVE",
"70 550 OFFCURVE",
"70 555 CURVE SMOOTH",
"70 560 LINE",
"75 560 OFFCURVE",
"105 565 OFFCURVE",
"110 565 CURVE SMOOTH",
"120 565 LINE SMOOTH",
"125 565 OFFCURVE",
"140 560 OFFCURVE",
"140 560 CURVE",
"145 555 LINE",
"145 555 OFFCURVE",
"155 545 OFFCURVE",
"155 540 CURVE",
"160 530 LINE",
"165 515 LINE",
"170 510 OFFCURVE",
"190 460 OFFCURVE",
"195 454 CURVE",
"195 454 OFFCURVE",
"200 444 OFFCURVE",
"200 439 CURVE SMOOTH",
"200 434 OFFCURVE",
"210 409 OFFCURVE",
"210 404 CURVE",
"210 404 OFFCURVE",
"215 384 OFFCURVE",
"215 379 CURVE SMOOTH",
"215 374 OFFCURVE",
"220 349 OFFCURVE",
"220 349 CURVE",
"220 339 OFFCURVE",
"225 279 OFFCURVE",
"225 269 CURVE SMOOTH",
"225 204 LINE",
"225 204 OFFCURVE",
"220 189 OFFCURVE",
"220 184 CURVE",
"215 169 OFFCURVE",
"205 134 OFFCURVE",
"205 129 CURVE SMOOTH",
"205 124 OFFCURVE",
"195 104 OFFCURVE",
"195 99 CURVE",
"185 68 OFFCURVE",
"165 38 OFFCURVE",
"150 8 CURVE",
"140 -7 OFFCURVE",
"135 -17 OFFCURVE",
"125 -32 CURVE",
"120 -42 OFFCURVE",
"100 -67 OFFCURVE",
"100 -67 CURVE",
"85 -77 LINE",
"55 -77 LINE",
"60 -72 OFFCURVE",
"70 -37 OFFCURVE",
"75 -27 CURVE",
"80 -12 LINE",
"85 -2 LINE",
"85 3 OFFCURVE",
"100 38 OFFCURVE",
"100 43 CURVE SMOOTH",
"100 48 OFFCURVE",
"105 63 OFFCURVE",
"105 63 CURVE",
"105 68 OFFCURVE",
"110 99 OFFCURVE",
"110 104 CURVE",
"115 124 LINE",
"115 134 OFFCURVE",
"120 169 OFFCURVE",
"120 174 CURVE SMOOTH"
);
}
);
width = 308;
}
);
note = parenright;
unicode = 0029;
},
{
glyphname = asterisk;
layers = (
{
layerId = "4FCC7E5A-ABB0-4C53-A7CD-8FBAF99C528D";
name = Regular;
paths = (
{
closed = 1;
nodes = (
"70 189 LINE",
"70 189 OFFCURVE",
"75 179 OFFCURVE",
"80 179 CURVE SMOOTH",
"85 179 OFFCURVE",
"110 159 OFFCURVE",
"115 159 CURVE",
"120 154 LINE",
"125 154 OFFCURVE",
"135 144 OFFCURVE",
"140 144 CURVE",
"155 139 LINE",
"175 124 LINE",
"185 124 LINE SMOOTH",
"190 124 OFFCURVE",
"205 134 OFFCURVE",
"205 134 CURVE",
"210 144 LINE",
"215 144 OFFCURVE",
"225 149 OFFCURVE",
"230 149 CURVE",
"235 154 OFFCURVE",
"245 184 OFFCURVE",
"250 189 CURVE SMOOTH",
"255 194 LINE",
"260 209 LINE",
"265 215 LINE",
"270 209 LINE",
"275 204 OFFCURVE",
"295 154 OFFCURVE",
"300 149 CURVE SMOOTH",
"305 144 LINE",
"310 144 OFFCURVE",
"320 134 OFFCURVE",
"325 134 CURVE",
"330 144 OFFCURVE",
"365 179 OFFCURVE",
"375 184 CURVE",
"390 194 LINE",
"395 199 OFFCURVE",
"410 209 OFFCURVE",
"410 215 CURVE",
"415 225 LINE",
"415 270 LINE SMOOTH",
"415 275 OFFCURVE",
"390 295 OFFCURVE",
"385 300 CURVE SMOOTH",
"380 305 OFFCURVE",
"365 335 OFFCURVE",
"360 340 CURVE",
"375 350 LINE",
"390 355 LINE",
"400 360 LINE",
"405 360 OFFCURVE",
"420 370 OFFCURVE",
"425 370 CURVE",
"440 375 LINE",
"440 375 OFFCURVE",
"450 386 OFFCURVE",
"455 386 CURVE",
"460 391 LINE",
"470 411 LINE",
"480 421 LINE",
"475 431 LINE",
"475 456 LINE",
"470 461 LINE",
"470 466 OFFCURVE",
"460 486 OFFCURVE",
"460 491 CURVE",
"460 491 OFFCURVE",
"450 501 OFFCURVE",
"450 506 CURVE",
"445 511 LINE",
"440 511 OFFCURVE",
"420 516 OFFCURVE",
"415 516 CURVE SMOOTH",
"400 516 LINE SMOOTH",
"400 516 OFFCURVE",
"390 511 OFFCURVE",
"385 511 CURVE SMOOTH",
"380 511 OFFCURVE",
"355 496 OFFCURVE",
"350 496 CURVE SMOOTH",
"345 496 OFFCURVE",
"330 486 OFFCURVE",
"325 486 CURVE",
"325 496 LINE",
"325 496 OFFCURVE",
"330 521 OFFCURVE",
"335 531 CURVE",
"340 546 LINE",
"340 551 OFFCURVE",
"345 577 OFFCURVE",
"345 582 CURVE SMOOTH",
"345 622 LINE",
"335 627 LINE",
"325 627 OFFCURVE",
"280 637 OFFCURVE",
"275 637 CURVE SMOOTH",
"225 637 LINE",
"215 632 LINE",
"210 627 OFFCURVE",
"175 607 OFFCURVE",
"170 602 CURVE",
"170 587 LINE",
"165 577 LINE",
"165 572 LINE SMOOTH",
"165 541 OFFCURVE",
"170 511 OFFCURVE",
"170 486 CURVE SMOOTH",
"170 476 LINE",
"165 481 OFFCURVE",
"135 501 OFFCURVE",
"125 501 CURVE SMOOTH",
"90 501 LINE SMOOTH",
"85 501 OFFCURVE",
"70 496 OFFCURVE",
"65 496 CURVE SMOOTH",
"65 496 OFFCURVE",
"55 491 OFFCURVE",
"55 486 CURVE",
"50 476 LINE",
"45 461 OFFCURVE",
"35 441 OFFCURVE",
"30 426 CURVE",
"25 406 LINE",
"25 401 OFFCURVE",
"15 380 OFFCURVE",
"15 375 CURVE SMOOTH",
"15 350 LINE",
"20 345 LINE",
"20 345 OFFCURVE",
"35 340 OFFCURVE",
"40 340 CURVE SMOOTH",
"45 340 OFFCURVE",
"65 335 OFFCURVE",
"70 335 CURVE SMOOTH",
"80 335 OFFCURVE",
"125 330 OFFCURVE",
"135 330 CURVE",
"135 320 LINE SMOOTH",
"135 315 OFFCURVE",
"120 295 OFFCURVE",
"120 295 CURVE",
"115 285 OFFCURVE",
"100 260 OFFCURVE",
"100 260 CURVE",
"95 245 LINE",
"80 230 LINE",
"80 225 OFFCURVE",
"70 215 OFFCURVE",
"70 209 CURVE SMOOTH"
);
},
{
closed = 1;
nodes = (
"110 199 LINE",
"110 209 LINE",
"110 209 OFFCURVE",
"120 230 OFFCURVE",
"125 235 CURVE SMOOTH",
"130 240 LINE",
"135 250 LINE",
"135 255 OFFCURVE",
"150 270 OFFCURVE",
"150 275 CURVE",
"160 295 LINE",
"165 300 LINE SMOOTH",
"170 305 OFFCURVE",
"180 330 OFFCURVE",
"180 330 CURVE",
"180 355 LINE",
"170 360 LINE",
"165 360 OFFCURVE",
"140 365 OFFCURVE",
"135 365 CURVE SMOOTH",
"130 365 OFFCURVE",
"80 370 OFFCURVE",
"75 370 CURVE SMOOTH",
"70 370 OFFCURVE",
"60 375 OFFCURVE",
"55 375 CURVE",
"55 380 LINE SMOOTH",
"55 386 OFFCURVE",
"60 406 OFFCURVE",
"60 406 CURVE SMOOTH",
"60 406 OFFCURVE",
"70 426 OFFCURVE",
"70 431 CURVE SMOOTH",
"70 436 OFFCURVE",
"80 446 OFFCURVE",
"80 451 CURVE",
"85 451 LINE",
"95 446 LINE SMOOTH",
"105 441 OFFCURVE",
"130 431 OFFCURVE",
"130 431 CURVE SMOOTH",
"130 431 OFFCURVE",
"160 421 OFFCURVE",
"170 421 CURVE SMOOTH",
"175 421 OFFCURVE",
"190 416 OFFCURVE",
"195 416 CURVE SMOOTH",
"205 416 LINE",
"215 421 LINE",
"215 557 LINE",
"220 562 LINE",
"220 562 OFFCURVE",
"260 567 OFFCURVE",
"275 567 CURVE SMOOTH",
"280 567 LINE",
"280 541 OFFCURVE",
"270 516 OFFCURVE",
"265 491 CURVE",
"260 471 LINE",
"255 456 LINE",
"255 436 LINE",
"255 436 OFFCURVE",
"260 426 OFFCURVE",
"265 426 CURVE",
"270 421 OFFCURVE",
"285 416 OFFCURVE",
"285 416 CURVE SMOOTH",
"285 416 OFFCURVE",
"290 421 OFFCURVE",
"295 421 CURVE",
"310 431 LINE",
"315 431 OFFCURVE",
"335 441 OFFCURVE",
"340 446 CURVE",
"350 451 OFFCURVE",
"380 466 OFFCURVE",
"385 466 CURVE SMOOTH",
"390 466 LINE",
"400 456 LINE",
"400 456 OFFCURVE",
"410 436 OFFCURVE",
"410 431 CURVE SMOOTH",
"410 426 OFFCURVE",
"415 411 OFFCURVE",
"415 411 CURVE",
"410 406 LINE",
"405 406 OFFCURVE",
"395 396 OFFCURVE",
"390 396 CURVE",
"370 391 LINE",
"365 391 OFFCURVE",
"335 375 OFFCURVE",
"325 370 CURVE",
"320 365 OFFCURVE",
"300 355 OFFCURVE",
"295 355 CURVE",
"290 350 LINE",
"290 330 LINE",
"290 330 OFFCURVE",
"300 315 OFFCURVE",
"305 310 CURVE SMOOTH",
"315 300 LINE",
"320 290 LINE",
"320 285 OFFCURVE",
"340 265 OFFCURVE",
"345 260 CURVE SMOOTH",
"355 250 LINE",
"355 250 OFFCURVE",
"365 235 OFFCURVE",
"365 230 CURVE SMOOTH",
"365 225 LINE",
"320 179 LINE",
"315 189 LINE",
"310 204 LINE",
"310 209 OFFCURVE",
"300 235 OFFCURVE",
"295 240 CURVE",
"290 250 LINE",
"280 275 LINE",
"280 280 OFFCURVE",
"270 295 OFFCURVE",
"265 300 CURVE",
"265 305 OFFCURVE",
"255 310 OFFCURVE",
"255 310 CURVE SMOOTH",
"240 310 LINE",
"240 305 OFFCURVE",
"225 290 OFFCURVE",
"225 285 CURVE",
"215 270 LINE",
"210 260 LINE",
"205 245 LINE",
"205 240 OFFCURVE",
"185 209 OFFCURVE",
"185 204 CURVE",
"180 189 LINE",
"180 184 OFFCURVE",
"170 174 OFFCURVE",
"170 169 CURVE",
"165 169 LINE SMOOTH",
"165 169 OFFCURVE",
"150 179 OFFCURVE",
"145 179 CURVE",
"130 189 LINE"
);
}
);
width = 490;
}
);
note = asterisk;
unicode = 002A;
},
{
glyphname = plus;
layers = (
{
layerId = "4FCC7E5A-ABB0-4C53-A7CD-8FBAF99C528D";
name = Regular;
paths = (
{
closed = 1;
nodes = (
"150 196 LINE",
"150 102 LINE",
"155 97 LINE",
"160 97 OFFCURVE",
"165 92 OFFCURVE",
"165 92 CURVE",
"205 92 LINE SMOOTH",
"215 92 OFFCURVE",
"265 102 OFFCURVE",
"280 102 CURVE",
"295 107 LINE",
"300 112 LINE SMOOTH",
"305 117 OFFCURVE",
"315 137 OFFCURVE",
"320 142 CURVE",
"325 152 LINE",
"325 152 OFFCURVE",
"335 161 OFFCURVE",
"339 161 CURVE",
"339 216 LINE",
"339 216 OFFCURVE",
"354 221 OFFCURVE",
"359 221 CURVE SMOOTH",
"364 221 OFFCURVE",
"394 226 OFFCURVE",
"399 226 CURVE",
"399 231 OFFCURVE",
"409 241 OFFCURVE",
"409 246 CURVE SMOOTH",
"409 251 OFFCURVE",
"419 261 OFFCURVE",
"419 261 CURVE",
"434 276 LINE",
"439 286 LINE",
"439 380 LINE",
"429 385 LINE",
"374 385 LINE SMOOTH",
"364 385 OFFCURVE",
"330 390 OFFCURVE",
"320 390 CURVE",
"320 467 LINE",
"318 485 LINE",
"311 497 LINE",
"278 502 LINE",
"209 496 LINE",
"198 490 OFFCURVE",
"190 479 OFFCURVE",
"185 479 CURVE",
"180 474 OFFCURVE",
"155 459 OFFCURVE",
"150 454 CURVE",
"150 370 LINE",
"61 370 LINE",
"26 330 LINE",
"26 325 LINE SMOOTH",
"26 310 OFFCURVE",
"31 261 OFFCURVE",
"31 256 CURVE SMOOTH",
"31 251 OFFCURVE",
"36 226 OFFCURVE",
"36 221 CURVE SMOOTH",
"36 211 LINE SMOOTH",
"36 206 OFFCURVE",
"41 191 OFFCURVE",
"41 191 CURVE",
"46 186 LINE",
"71 186 LINE SMOOTH",
"76 186 OFFCURVE",
"106 191 OFFCURVE",
"111 191 CURVE",
"130 196 LINE"
);
},
{
closed = 1;
nodes = (
"155 236 LINE SMOOTH",
"150 236 OFFCURVE",
"130 231 OFFCURVE",
"126 231 CURVE",
"106 226 LINE",
"71 226 LINE",
"71 231 OFFCURVE",
"66 266 OFFCURVE",
"66 271 CURVE SMOOTH",
"66 291 LINE",
"71 305 LINE",
"81 305 OFFCURVE",
"140 310 OFFCURVE",
"150 310 CURVE",
"150 310 OFFCURVE",
"160 315 OFFCURVE",
"165 315 CURVE SMOOTH",
"170 315 OFFCURVE",
"180 320 OFFCURVE",
"180 320 CURVE",
"180 425 LINE",
"180 425 OFFCURVE",
"190 430 OFFCURVE",
"195 430 CURVE SMOOTH",
"250 430 LINE",
"250 420 OFFCURVE",
"255 385 OFFCURVE",
"255 375 CURVE SMOOTH",
"255 340 LINE",
"255 340 OFFCURVE",
"260 330 OFFCURVE",
"260 325 CURVE SMOOTH",
"260 320 OFFCURVE",
"265 315 OFFCURVE",
"265 315 CURVE",
"285 315 LINE SMOOTH",
"290 315 OFFCURVE",
"320 325 OFFCURVE",
"325 325 CURVE SMOOTH",
"330 325 OFFCURVE",
"364 330 OFFCURVE",
"369 330 CURVE",
"369 266 LINE",
"364 261 LINE",
"364 261 OFFCURVE",
"349 256 OFFCURVE",
"344 256 CURVE SMOOTH",
"339 256 OFFCURVE",
"320 251 OFFCURVE",
"320 251 CURVE SMOOTH",
"305 251 LINE SMOOTH",
"300 251 OFFCURVE",
"290 246 OFFCURVE",
"290 246 CURVE",
"280 236 LINE",
"280 226 OFFCURVE",
"275 191 OFFCURVE",
"275 181 CURVE SMOOTH",
"275 171 OFFCURVE",
"270 142 OFFCURVE",
"270 142 CURVE",
"265 137 LINE",
"265 137 OFFCURVE",
"235 132 OFFCURVE",
"225 132 CURVE SMOOTH",
"185 132 LINE",
"185 231 LINE",
"185 231 OFFCURVE",
"175 236 OFFCURVE",
"170 236 CURVE SMOOTH"
);
}
);
width = 465;
}
);
note = plus;
unicode = 002B;
},
{
glyphname = comma;
layers = (
{
layerId = "4FCC7E5A-ABB0-4C53-A7CD-8FBAF99C528D";
name = Regular;
paths = (
{
closed = 1;
nodes = (
"-39 -117 LINE",
"-39 -122 LINE SMOOTH",
"-39 -127 OFFCURVE",
"-29 -142 OFFCURVE",
"-29 -142 CURVE",
"-19 -152 LINE",
"-9 -167 LINE",
"1 -177 LINE",
"11 -177 LINE",
"11 -177 OFFCURVE",
"46 -162 OFFCURVE",
"56 -157 CURVE SMOOTH",
"66 -152 LINE",
"71 -147 OFFCURVE",
"86 -137 OFFCURVE",
"86 -137 CURVE",
"116 -107 LINE",
"141 -87 LINE",
"141 -87 OFFCURVE",
"151 -72 OFFCURVE",
"156 -67 CURVE SMOOTH",
"161 -62 OFFCURVE",
"176 -37 OFFCURVE",
"181 -32 CURVE SMOOTH",
"186 -27 OFFCURVE",
"201 -7 OFFCURVE",
"201 -2 CURVE",
"206 8 LINE",
"211 13 OFFCURVE",
"216 33 OFFCURVE",
"216 33 CURVE",
"216 38 OFFCURVE",
"226 73 OFFCURVE",
"226 78 CURVE SMOOTH",
"226 83 OFFCURVE",
"231 118 OFFCURVE",
"231 123 CURVE SMOOTH",
"231 183 LINE",
"206 198 LINE",
"146 198 LINE",
"131 203 LINE",
"86 203 LINE",
"76 198 OFFCURVE",
"41 163 OFFCURVE",
"36 158 CURVE SMOOTH",
"31 153 LINE",
"31 143 LINE SMOOTH",
"31 138 OFFCURVE",
"11 88 OFFCURVE",
"11 83 CURVE SMOOTH",
"11 78 OFFCURVE",
"6 68 OFFCURVE",
"6 63 CURVE SMOOTH",
"6 58 OFFCURVE",
"1 38 OFFCURVE",
"1 33 CURVE SMOOTH",
"1 28 LINE",
"6 18 LINE",
"11 13 LINE",
"16 13 OFFCURVE",
"46 -7 OFFCURVE",
"51 -7 CURVE",
"56 -12 LINE",
"46 -32 LINE"
);
},
{
closed = 1;
nodes = (
"11 -112 LINE",
"16 -107 OFFCURVE",
"31 -97 OFFCURVE",
"31 -97 CURVE",
"51 -77 LINE",
"61 -62 LINE",
"61 -57 OFFCURVE",
"81 -42 OFFCURVE",
"81 -37 CURVE",
"86 -32 OFFCURVE",
"96 -17 OFFCURVE",
"96 -17 CURVE",
"96 8 LINE",
"96 8 OFFCURVE",
"91 18 OFFCURVE",
"86 18 CURVE",
"66 23 LINE",
"56 28 LINE",
"41 33 LINE",
"36 38 LINE",
"36 53 LINE SMOOTH",
"36 58 OFFCURVE",
"46 78 OFFCURVE",
"46 83 CURVE",
"61 113 LINE",
"61 113 OFFCURVE",
"86 118 OFFCURVE",
"96 118 CURVE SMOOTH",
"136 118 LINE SMOOTH",
"141 118 OFFCURVE",
"156 113 OFFCURVE",
"161 113 CURVE",
"161 78 LINE",
"161 78 OFFCURVE",
"156 63 OFFCURVE",
"156 58 CURVE SMOOTH",
"156 53 OFFCURVE",
"141 18 OFFCURVE",
"141 13 CURVE SMOOTH",
"141 8 OFFCURVE",
"131 -22 OFFCURVE",
"131 -27 CURVE",
"131 -27 OFFCURVE",
"121 -47 OFFCURVE",
"116 -52 CURVE",
"116 -57 OFFCURVE",
"106 -67 OFFCURVE",
"106 -67 CURVE",
"71 -102 LINE",
"71 -102 OFFCURVE",
"51 -117 OFFCURVE",
"46 -122 CURVE",
"41 -122 OFFCURVE",
"31 -132 OFFCURVE",
"31 -132 CURVE SMOOTH",
"26 -132 OFFCURVE",
"11 -137 OFFCURVE",
"11 -137 CURVE SMOOTH",
"6 -137 OFFCURVE",
"-4 -127 OFFCURVE",
"-4 -122 CURVE"
);
}
);
width = 260;
}
);
note = comma;
unicode = 002C;
},
{
glyphname = hyphen;
layers = (
{
layerId = "4FCC7E5A-ABB0-4C53-A7CD-8FBAF99C528D";
name = Regular;
paths = (
{
closed = 1;
nodes = (
"25 338 LINE",
"25 318 LINE SMOOTH",
"25 313 OFFCURVE",
"30 268 OFFCURVE",
"30 263 CURVE SMOOTH",
"30 238 LINE SMOOTH",
"30 233 OFFCURVE",
"40 223 OFFCURVE",
"45 223 CURVE SMOOTH",
"70 223 LINE SMOOTH",
"75 223 OFFCURVE",
"100 228 OFFCURVE",
"105 228 CURVE SMOOTH",
"110 228 OFFCURVE",
"141 233 OFFCURVE",
"146 233 CURVE",
"146 233 OFFCURVE",
"166 238 OFFCURVE",
"171 238 CURVE SMOOTH",
"176 238 OFFCURVE",
"236 243 OFFCURVE",
"241 243 CURVE",
"261 248 LINE",
"276 248 OFFCURVE",
"342 258 OFFCURVE",
"357 258 CURVE",
"362 263 LINE",
"377 288 LINE",
"377 288 OFFCURVE",
"397 303 OFFCURVE",
"397 308 CURVE SMOOTH",
"397 343 LINE SMOOTH",
"397 358 OFFCURVE",
"392 388 OFFCURVE",
"392 388 CURVE",
"382 398 LINE",
"261 398 LINE SMOOTH",
"256 398 OFFCURVE",
"191 393 OFFCURVE",
"186 393 CURVE SMOOTH",
"181 393 LINE SMOOTH",
"171 393 OFFCURVE",
"110 388 OFFCURVE",
"100 388 CURVE SMOOTH",
"95 388 OFFCURVE",
"80 373 OFFCURVE",
"75 373 CURVE",
"65 368 LINE SMOOTH",
"55 363 OFFCURVE",
"30 348 OFFCURVE",
"30 348 CURVE"
);
},
{
closed = 1;
nodes = (
"322 328 LINE",
"322 293 LINE",
"322 293 OFFCURVE",
"312 288 OFFCURVE",
"307 288 CURVE SMOOTH",
"296 288 OFFCURVE",
"231 283 OFFCURVE",
"221 283 CURVE SMOOTH",
"216 283 OFFCURVE",
"161 273 OFFCURVE",
"156 273 CURVE SMOOTH",
"151 273 LINE SMOOTH",
"146 273 OFFCURVE",
"100 268 OFFCURVE",
"95 268 CURVE SMOOTH",
"65 268 LINE",
"65 313 LINE",
"65 313 OFFCURVE",
"75 318 OFFCURVE",
"80 318 CURVE SMOOTH",
"85 318 OFFCURVE",
"110 323 OFFCURVE",
"115 323 CURVE SMOOTH",
"131 323 OFFCURVE",
"166 328 OFFCURVE",
"171 328 CURVE SMOOTH"
);
}
);
width = 416;
}
);
note = hyphen;
unicode = 002D;
},
{
glyphname = period;
layers = (
{
layerId = "4FCC7E5A-ABB0-4C53-A7CD-8FBAF99C528D";
name = Regular;
paths = (
{
closed = 1;
nodes = (
"28 45 LINE SMOOTH",
"28 40 OFFCURVE",
"33 21 OFFCURVE",
"33 16 CURVE SMOOTH",
"33 11 OFFCURVE",
"38 1 OFFCURVE",
"38 1 CURVE",
"48 -4 LINE",
"58 -4 OFFCURVE",
"109 6 OFFCURVE",
"119 6 CURVE SMOOTH",
"124 6 OFFCURVE",
"134 11 OFFCURVE",
"139 11 CURVE",
"150 16 LINE",
"155 21 LINE",
"160 36 LINE",
"160 40 OFFCURVE",
"180 70 OFFCURVE",
"180 75 CURVE SMOOTH",
"180 95 LINE SMOOTH",
"180 105 OFFCURVE",
"175 139 OFFCURVE",
"175 144 CURVE",
"170 154 LINE",
"165 154 OFFCURVE",
"155 164 OFFCURVE",
"150 164 CURVE SMOOTH",
"89 164 LINE SMOOTH",
"84 164 OFFCURVE",
"69 159 OFFCURVE",
"69 159 CURVE",
"58 154 OFFCURVE",
"33 129 OFFCURVE",
"33 125 CURVE",
"33 125 OFFCURVE",
"28 90 OFFCURVE",
"28 80 CURVE SMOOTH"
);
},
{
closed = 1;
nodes = (
"124 95 LINE",
"124 50 LINE SMOOTH",
"124 45 OFFCURVE",
"119 36 OFFCURVE",
"119 36 CURVE",
"58 31 LINE",
"58 65 LINE SMOOTH",
"58 70 OFFCURVE",
"63 90 OFFCURVE",
"63 90 CURVE SMOOTH",
"63 90 OFFCURVE",
"79 95 OFFCURVE",
"84 95 CURVE SMOOTH"
);
}
);
width = 188;
}
);
note = period;
unicode = 002E;
},
{
glyphname = slash;
layers = (
{
layerId = "4FCC7E5A-ABB0-4C53-A7CD-8FBAF99C528D";
name = Regular;
paths = (
{
closed = 1;
nodes = (
"-16 15 LINE",
"-11 10 LINE",
"19 10 LINE SMOOTH",
"34 10 OFFCURVE",
"94 15 OFFCURVE",
"109 15 CURVE SMOOTH",
"114 15 OFFCURVE",
"124 25 OFFCURVE",
"129 30 CURVE",
"134 40 LINE",
"149 60 LINE",
"149 60 OFFCURVE",
"159 95 OFFCURVE",
"164 105 CURVE",
"169 125 LINE",
"174 135 OFFCURVE",
"199 221 OFFCURVE",
"204 231 CURVE",
"209 251 LINE",
"214 256 LINE",
"214 261 OFFCURVE",
"224 281 OFFCURVE",
"224 286 CURVE SMOOTH",
"224 291 OFFCURVE",
"234 311 OFFCURVE",
"234 311 CURVE",
"239 326 LINE",
"244 336 LINE",
"249 361 LINE",
"254 371 LINE",
"259 386 LINE",
"269 406 LINE",
"274 426 LINE",
"284 447 LINE",
"289 452 OFFCURVE",
"299 477 OFFCURVE",
"299 482 CURVE",
"304 497 OFFCURVE",
"319 537 OFFCURVE",
"319 542 CURVE SMOOTH",
"319 567 LINE",
"314 572 LINE",
"309 572 OFFCURVE",
"294 582 OFFCURVE",
"289 582 CURVE SMOOTH",
"284 582 OFFCURVE",
"269 587 OFFCURVE",
"269 587 CURVE SMOOTH",
"204 587 LINE",
"184 567 LINE SMOOTH",
"179 562 OFFCURVE",
"159 542 OFFCURVE",
"159 537 CURVE",
"154 522 LINE SMOOTH",
"139 477 OFFCURVE",
"119 431 OFFCURVE",
"99 386 CURVE",
"89 366 LINE",
"84 351 LINE",
"84 346 OFFCURVE",
"74 326 OFFCURVE",
"74 326 CURVE",
"69 321 LINE",
"64 296 LINE",
"64 291 OFFCURVE",
"54 276 OFFCURVE",
"54 271 CURVE",
"49 261 OFFCURVE",
"29 191 OFFCURVE",
"24 181 CURVE",
"24 176 OFFCURVE",
"9 145 OFFCURVE",
"9 140 CURVE",
"4 130 OFFCURVE",
"-6 90 OFFCURVE",
"-11 80 CURVE",
"-11 75 OFFCURVE",
"-16 60 OFFCURVE",
"-16 60 CURVE"
);
},
{
closed = 1;
nodes = (
"194 507 OFFCURVE",
"209 512 OFFCURVE",
"214 512 CURVE SMOOTH",
"244 512 LINE",
"244 497 OFFCURVE",
"239 482 OFFCURVE",
"234 467 CURVE",
"229 442 LINE",
"229 436 OFFCURVE",
"224 421 OFFCURVE",
"224 421 CURVE",
"224 416 OFFCURVE",
"214 396 OFFCURVE",
"209 386 CURVE SMOOTH",
"199 366 LINE",
"199 361 OFFCURVE",
"189 336 OFFCURVE",
"189 331 CURVE SMOOTH",
"189 326 OFFCURVE",
"184 316 OFFCURVE",
"184 316 CURVE",
"184 311 OFFCURVE",
"169 286 OFFCURVE",
"169 281 CURVE SMOOTH",
"169 276 OFFCURVE",
"149 226 OFFCURVE",
"149 221 CURVE",
"139 201 LINE",
"139 196 OFFCURVE",
"129 171 OFFCURVE",
"129 166 CURVE",
"119 125 OFFCURVE",
"99 90 OFFCURVE",
"89 50 CURVE",
"24 50 LINE",
"29 65 LINE",
"34 75 LINE",
"39 100 LINE",
"39 105 OFFCURVE",
"49 135 OFFCURVE",
"49 140 CURVE",
"54 166 LINE",
"59 181 LINE",
"59 186 OFFCURVE",
"74 216 OFFCURVE",
"79 226 CURVE SMOOTH",
"89 246 LINE",
"89 246 OFFCURVE",
"94 256 OFFCURVE",
"94 261 CURVE SMOOTH",
"94 266 OFFCURVE",
"109 306 OFFCURVE",
"109 311 CURVE",
"114 321 OFFCURVE",
"124 351 OFFCURVE",
"124 356 CURVE",
"129 366 LINE",
"129 371 OFFCURVE",
"139 391 OFFCURVE",
"139 396 CURVE",
"144 406 LINE",
"144 411 OFFCURVE",
"159 436 OFFCURVE",
"159 442 CURVE",
"169 467 LINE",
"174 472 OFFCURVE",
"184 502 OFFCURVE",
"189 507 CURVE"
);
}
);
width = 302;
}
);
note = slash;
unicode = 002F;
},
{
glyphname = zero;
layers = (
{
layerId = "4FCC7E5A-ABB0-4C53-A7CD-8FBAF99C528D";
name = Regular;
paths = (
{
closed = 1;
nodes = (
"32 209 LINE",
"32 209 OFFCURVE",
"37 174 OFFCURVE",
"42 159 CURVE",
"42 149 OFFCURVE",
"52 114 OFFCURVE",
"52 114 CURVE",
"52 109 OFFCURVE",
"62 94 OFFCURVE",
"62 89 CURVE",
"62 89 OFFCURVE",
"72 79 OFFCURVE",
"72 74 CURVE",
"82 64 LINE",
"117 24 LINE",
"122 19 LINE",
"122 19 OFFCURVE",
"141 9 OFFCURVE",
"146 9 CURVE",
"151 4 OFFCURVE",
"176 -1 OFFCURVE",
"176 -1 CURVE",
"181 -1 OFFCURVE",
"211 -6 OFFCURVE",
"221 -6 CURVE SMOOTH",
"246 -6 LINE",
"266 -1 LINE",
"271 -1 OFFCURVE",
"301 4 OFFCURVE",
"306 4 CURVE",
"306 4 OFFCURVE",
"316 9 OFFCURVE",
"321 14 CURVE SMOOTH",
"326 19 LINE",
"341 24 LINE",
"346 24 OFFCURVE",
"360 44 OFFCURVE",
"365 49 CURVE",
"370 59 LINE",
"370 64 OFFCURVE",
"395 79 OFFCURVE",
"395 84 CURVE",
"395 84 OFFCURVE",
"405 99 OFFCURVE",
"405 104 CURVE",
"425 144 OFFCURVE",
"430 189 OFFCURVE",
"440 229 CURVE",
"440 234 OFFCURVE",
"450 269 OFFCURVE",
"450 274 CURVE SMOOTH",
"450 279 OFFCURVE",
"455 299 OFFCURVE",
"455 299 CURVE",
"455 389 LINE SMOOTH",
"455 399 OFFCURVE",
"445 444 OFFCURVE",
"445 454 CURVE SMOOTH",
"445 464 OFFCURVE",
"435 499 OFFCURVE",
"430 504 CURVE",
"430 509 OFFCURVE",
"410 544 OFFCURVE",
"405 554 CURVE",
"405 559 OFFCURVE",
"395 569 OFFCURVE",
"395 569 CURVE",
"380 584 LINE",
"380 584 OFFCURVE",
"360 594 OFFCURVE",
"355 594 CURVE",
"346 599 OFFCURVE",
"311 609 OFFCURVE",
"311 609 CURVE SMOOTH",
"261 609 LINE SMOOTH",
"256 609 OFFCURVE",
"241 604 OFFCURVE",
"236 604 CURVE SMOOTH",
"231 604 OFFCURVE",
"211 594 OFFCURVE",
"206 594 CURVE",
"196 589 LINE",
"191 589 OFFCURVE",
"166 569 OFFCURVE",
"161 569 CURVE",
"146 564 LINE",
"102 519 LINE SMOOTH",
"97 514 OFFCURVE",
"87 494 OFFCURVE",
"82 489 CURVE SMOOTH",
"77 484 OFFCURVE",
"67 454 OFFCURVE",
"62 449 CURVE",
"62 444 OFFCURVE",
"52 424 OFFCURVE",
"52 419 CURVE SMOOTH",
"52 414 OFFCURVE",
"42 384 OFFCURVE",
"42 379 CURVE",
"37 374 LINE",
"37 349 LINE SMOOTH",
"37 344 OFFCURVE",
"32 334 OFFCURVE",
"32 329 CURVE SMOOTH"
);
},
{
closed = 1;
nodes = (
"67 319 LINE SMOOTH",
"67 324 OFFCURVE",
"87 399 OFFCURVE",
"92 424 CURVE",
"92 429 OFFCURVE",
"102 449 OFFCURVE",
"102 454 CURVE",
"107 459 LINE",
"112 469 LINE",
"117 474 OFFCURVE",
"141 504 OFFCURVE",
"146 514 CURVE",
"151 519 LINE",
"156 519 OFFCURVE",
"181 534 OFFCURVE",
"186 539 CURVE SMOOTH",
"191 544 OFFCURVE",
"206 549 OFFCURVE",
"206 549 CURVE",
"236 549 LINE",
"246 554 LINE",
"271 554 LINE SMOOTH",
"276 554 OFFCURVE",
"291 549 OFFCURVE",
"296 549 CURVE",
"301 544 LINE",
"321 529 LINE",
"326 524 OFFCURVE",
"341 509 OFFCURVE",
"341 504 CURVE",
"341 504 OFFCURVE",
"351 484 OFFCURVE",
"351 479 CURVE",
"351 479 OFFCURVE",
"355 464 OFFCURVE",
"355 459 CURVE SMOOTH",
"355 454 OFFCURVE",
"360 429 OFFCURVE",
"360 429 CURVE",
"360 214 LINE SMOOTH",
"360 209 OFFCURVE",
"355 189 OFFCURVE",
"355 184 CURVE SMOOTH",
"355 179 OFFCURVE",
"346 159 OFFCURVE",
"346 154 CURVE",
"341 134 LINE",
"336 124 LINE",
"331 119 OFFCURVE",
"321 99 OFFCURVE",
"321 99 CURVE",
"271 49 LINE SMOOTH",
"266 44 OFFCURVE",
"256 34 OFFCURVE",
"251 34 CURVE SMOOTH",
"176 34 LINE SMOOTH",
"171 34 OFFCURVE",
"156 39 OFFCURVE",
"156 39 CURVE",
"102 89 LINE",
"102 89 OFFCURVE",
"92 104 OFFCURVE",
"92 109 CURVE SMOOTH",
"92 114 OFFCURVE",
"82 134 OFFCURVE",
"82 139 CURVE",
"77 164 LINE",
"72 184 LINE",
"72 189 OFFCURVE",
"67 209 OFFCURVE",
"67 209 CURVE"
);
},
{
closed = 1;
nodes = (
"117 249 LINE SMOOTH",
"117 244 OFFCURVE",
"122 224 OFFCURVE",
"122 214 CURVE SMOOTH",
"122 209 OFFCURVE",
"127 194 OFFCURVE",
"127 189 CURVE SMOOTH",
"127 184 OFFCURVE",
"136 159 OFFCURVE",
"136 154 CURVE",
"141 134 LINE",
"141 129 OFFCURVE",
"151 114 OFFCURVE",
"156 114 CURVE",
"156 114 OFFCURVE",
"171 104 OFFCURVE",
"176 104 CURVE SMOOTH",
"181 104 OFFCURVE",
"191 99 OFFCURVE",
"196 99 CURVE SMOOTH",
"216 99 LINE",
"216 99 OFFCURVE",
"226 104 OFFCURVE",
"231 109 CURVE SMOOTH",
"236 114 OFFCURVE",
"256 129 OFFCURVE",
"256 129 CURVE SMOOTH",
"256 129 OFFCURVE",
"266 144 OFFCURVE",
"266 149 CURVE SMOOTH",
"266 154 OFFCURVE",
"276 184 OFFCURVE",
"281 194 CURVE",
"281 199 OFFCURVE",
"291 224 OFFCURVE",
"291 229 CURVE SMOOTH",
"291 234 OFFCURVE",
"296 259 OFFCURVE",
"296 259 CURVE",
"296 434 LINE",
"296 434 OFFCURVE",
"291 449 OFFCURVE",
"291 454 CURVE",
"286 464 LINE",
"281 469 OFFCURVE",
"271 489 OFFCURVE",
"271 489 CURVE SMOOTH",
"271 489 OFFCURVE",
"256 499 OFFCURVE",
"251 499 CURVE",
"236 504 LINE",
"231 504 LINE SMOOTH",
"221 504 OFFCURVE",
"191 494 OFFCURVE",
"191 494 CURVE SMOOTH",
"186 494 OFFCURVE",
"176 484 OFFCURVE",
"171 479 CURVE",
"166 469 LINE",
"166 464 OFFCURVE",
"146 444 OFFCURVE",
"146 439 CURVE",
"141 429 LINE",
"141 424 OFFCURVE",
"132 399 OFFCURVE",
"132 394 CURVE",
"127 379 LINE",
"127 374 OFFCURVE",
"122 359 OFFCURVE",
"122 354 CURVE SMOOTH",
"122 344 OFFCURVE",
"117 294 OFFCURVE",
"117 284 CURVE SMOOTH"
);
},
{
closed = 1;
nodes = (
"191 314 LINE",
"196 329 LINE",
"196 334 OFFCURVE",
"201 344 OFFCURVE",
"201 349 CURVE SMOOTH",
"201 354 OFFCURVE",
"211 394 OFFCURVE",
"211 399 CURVE",
"211 399 OFFCURVE",
"221 424 OFFCURVE",
"226 434 CURVE",
"226 439 OFFCURVE",
"236 454 OFFCURVE",
"236 454 CURVE",
"246 459 LINE",
"251 454 LINE SMOOTH",
"256 449 OFFCURVE",
"261 429 OFFCURVE",
"261 429 CURVE",
"261 254 LINE",
"261 254 OFFCURVE",
"251 209 OFFCURVE",
"246 194 CURVE",
"246 189 OFFCURVE",
"241 179 OFFCURVE",
"241 179 CURVE",
"241 174 OFFCURVE",
"231 159 OFFCURVE",
"231 159 CURVE",
"231 154 OFFCURVE",
"221 149 OFFCURVE",
"221 149 CURVE",
"211 154 LINE",
"211 154 OFFCURVE",
"201 169 OFFCURVE",
"201 174 CURVE SMOOTH",
"201 179 OFFCURVE",
"196 189 OFFCURVE",
"196 194 CURVE SMOOTH",
"196 204 OFFCURVE",
"191 239 OFFCURVE",
"191 244 CURVE SMOOTH"
);
}
);
width = 469;
}
);
note = zero;
unicode = 0030;
},
{
glyphname = one;
layers = (
{
layerId = "4FCC7E5A-ABB0-4C53-A7CD-8FBAF99C528D";
name = Regular;
paths = (
{
closed = 1;
nodes = (
"100 309 OFFCURVE",
"105 265 OFFCURVE",
"105 255 CURVE SMOOTH",
"105 235 OFFCURVE",
"111 65 OFFCURVE",
"111 45 CURVE SMOOTH",
"111 40 OFFCURVE",
"116 5 OFFCURVE",
"116 0 CURVE",
"121 -10 LINE",
"126 -15 LINE",
"151 -15 LINE",
"166 -10 LINE",
"227 -10 LINE SMOOTH",
"232 -10 OFFCURVE",
"242 0 OFFCURVE",
"242 5 CURVE",
"252 30 LINE",
"257 35 LINE",
"262 45 LINE",
"262 50 OFFCURVE",
"277 60 OFFCURVE",
"277 60 CURVE",
"277 579 LINE",
"277 579 OFFCURVE",
"272 589 OFFCURVE",
"267 589 CURVE SMOOTH",
"262 589 OFFCURVE",
"242 594 OFFCURVE",
"237 594 CURVE SMOOTH",
"191 594 LINE SMOOTH",
"191 594 OFFCURVE",
"161 584 OFFCURVE",
"151 579 CURVE SMOOTH",
"141 574 LINE",
"136 569 LINE",
"131 549 LINE",
"126 539 LINE",
"116 524 LINE",
"111 509 LINE",
"105 499 LINE",
"100 494 LINE",
"95 484 LINE",
"95 484 OFFCURVE",
"85 469 OFFCURVE",
"80 464 CURVE",
"80 459 OFFCURVE",
"60 444 OFFCURVE",
"60 439 CURVE SMOOTH",
"60 434 OFFCURVE",
"50 419 OFFCURVE",
"50 414 CURVE SMOOTH",
"50 399 LINE SMOOTH",
"50 389 OFFCURVE",
"55 349 OFFCURVE",
"55 344 CURVE SMOOTH",
"55 339 OFFCURVE",
"60 329 OFFCURVE",
"60 329 CURVE",
"70 324 LINE",
"75 324 OFFCURVE",
"95 319 OFFCURVE",
"100 319 CURVE"
);
},
{
closed = 1;
nodes = (
"141 30 LINE",
"141 65 OFFCURVE",
"136 230 OFFCURVE",
"136 265 CURVE SMOOTH",
"136 270 OFFCURVE",
"131 304 OFFCURVE",
"131 309 CURVE SMOOTH",
"131 349 LINE",
"121 359 LINE",
"116 359 OFFCURVE",
"90 364 OFFCURVE",
"85 364 CURVE",
"85 369 OFFCURVE",
"80 399 OFFCURVE",
"80 404 CURVE SMOOTH",
"80 409 LINE",
"85 419 LINE",
"90 424 OFFCURVE",
"111 459 OFFCURVE",
"116 464 CURVE SMOOTH",
"121 469 LINE",
"131 489 LINE",
"141 499 LINE",
"151 514 LINE",
"161 524 LINE",
"196 524 LINE SMOOTH",
"201 524 OFFCURVE",
"206 519 OFFCURVE",
"206 519 CURVE",
"206 65 LINE",
"201 30 LINE",
"201 30 OFFCURVE",
"181 25 OFFCURVE",
"171 25 CURVE SMOOTH",
"146 25 LINE"
);
}
);
width = 343;
}
);
note = one;
unicode = 0031;
},
{
glyphname = two;
layers = (
{
layerId = "4FCC7E5A-ABB0-4C53-A7CD-8FBAF99C528D";
name = Regular;
paths = (
{
closed = 1;
nodes = (
"43 9 OFFCURVE",
"58 4 OFFCURVE",
"68 -1 CURVE",
"163 -1 LINE SMOOTH",
"168 -1 OFFCURVE",
"183 4 OFFCURVE",
"188 4 CURVE SMOOTH",
"208 4 OFFCURVE",
"313 14 OFFCURVE",
"333 14 CURVE",
"338 19 OFFCURVE",
"353 29 OFFCURVE",
"358 34 CURVE SMOOTH",
"393 69 LINE",
"393 150 LINE",
"393 150 OFFCURVE",
"388 165 OFFCURVE",
"383 170 CURVE",
"378 180 LINE",
"303 180 LINE",
"298 185 LINE",
"303 190 OFFCURVE",
"323 220 OFFCURVE",
"328 225 CURVE",
"328 230 OFFCURVE",
"348 260 OFFCURVE",
"348 265 CURVE SMOOTH",
"348 270 OFFCURVE",
"363 285 OFFCURVE",
"363 290 CURVE",
"368 306 OFFCURVE",
"403 366 OFFCURVE",
"408 381 CURVE",
"408 386 OFFCURVE",
"413 406 OFFCURVE",
"413 411 CURVE",
"418 436 LINE",
"418 441 LINE SMOOTH",
"418 451 OFFCURVE",
"413 481 OFFCURVE",
"413 481 CURVE",
"413 486 OFFCURVE",
"403 512 OFFCURVE",
"403 517 CURVE",
"393 532 LINE",
"388 542 LINE",
"388 547 OFFCURVE",
"373 557 OFFCURVE",
"368 562 CURVE",
"353 572 LINE",
"348 577 LINE",
"333 587 OFFCURVE",
"298 602 OFFCURVE",
"298 602 CURVE SMOOTH",
"208 602 LINE",
"198 597 LINE",
"193 597 OFFCURVE",
"158 582 OFFCURVE",
"153 582 CURVE",
"143 577 LINE",
"138 577 OFFCURVE",
"113 562 OFFCURVE",
"108 562 CURVE",
"78 532 LINE",
"78 532 OFFCURVE",
"68 517 OFFCURVE",
"63 512 CURVE",
"58 502 LINE",
"53 476 LINE",
"53 476 OFFCURVE",
"48 456 OFFCURVE",
"43 451 CURVE",
"38 441 LINE",
"38 436 OFFCURVE",
"33 416 OFFCURVE",
"33 411 CURVE SMOOTH",
"33 376 LINE",
"38 376 OFFCURVE",
"48 366 OFFCURVE",
"53 366 CURVE SMOOTH",
"58 366 OFFCURVE",
"93 361 OFFCURVE",
"98 361 CURVE",
"123 356 LINE",
"128 356 LINE",
"133 361 LINE",
"138 371 LINE",
"143 371 LINE",
"153 381 LINE",
"173 391 LINE",
"178 401 LINE",
"178 416 LINE",
"178 416 OFFCURVE",
"183 436 OFFCURVE",
"188 441 CURVE",
"193 451 LINE",
"193 456 OFFCURVE",
"203 461 OFFCURVE",
"203 461 CURVE",
"223 461 LINE",
"228 451 LINE",
"228 396 LINE SMOOTH",
"228 391 OFFCURVE",
"213 371 OFFCURVE",
"213 366 CURVE SMOOTH",
"213 361 OFFCURVE",
"203 341 OFFCURVE",
"203 336 CURVE SMOOTH",
"203 331 OFFCURVE",
"188 311 OFFCURVE",
"188 306 CURVE",
"178 295 LINE",
"168 280 LINE",
"163 275 OFFCURVE",
"153 260 OFFCURVE",
"153 260 CURVE",
"133 240 LINE",
"123 225 LINE",
"93 195 LINE",
"73 180 LINE",
"33 140 LINE",
"33 110 LINE SMOOTH",
"33 105 OFFCURVE",
"28 89 OFFCURVE",
"28 84 CURVE SMOOTH",
"28 54 LINE SMOOTH",
"28 49 OFFCURVE",
"33 19 OFFCURVE",
"33 14 CURVE"
);
},
{
closed = 1;
nodes = (
"63 39 LINE",
"63 94 LINE SMOOTH",
"63 105 OFFCURVE",
"68 130 OFFCURVE",
"68 135 CURVE",
"83 150 LINE",
"93 155 LINE",
"98 160 OFFCURVE",
"113 170 OFFCURVE",
"118 175 CURVE",
"123 175 OFFCURVE",
"133 190 OFFCURVE",
"133 190 CURVE",
"148 210 LINE",
"148 215 OFFCURVE",
"173 230 OFFCURVE",
"173 235 CURVE",
"173 235 OFFCURVE",
"193 260 OFFCURVE",
"198 270 CURVE",
"198 275 OFFCURVE",
"208 285 OFFCURVE",
"208 285 CURVE",
"213 290 OFFCURVE",
"223 311 OFFCURVE",
"223 316 CURVE",
"228 331 LINE",
"233 341 LINE",
"238 346 LINE",
"243 361 LINE",
"248 371 LINE SMOOTH",
"253 381 OFFCURVE",
"258 406 OFFCURVE",
"258 406 CURVE",
"258 461 LINE",
"253 471 LINE",
"228 496 LINE",
"228 496 OFFCURVE",
"208 502 OFFCURVE",
"203 502 CURVE SMOOTH",
"173 502 LINE",
"163 496 LINE",
"158 496 OFFCURVE",
"148 486 OFFCURVE",
"148 486 CURVE",
"138 476 LINE",
"133 466 LINE SMOOTH",
"128 456 OFFCURVE",
"113 421 OFFCURVE",
"113 416 CURVE SMOOTH",
"113 411 OFFCURVE",
"108 401 OFFCURVE",
"108 396 CURVE",
"68 396 LINE",
"68 426 LINE",
"68 426 OFFCURVE",
"73 441 OFFCURVE",
"73 446 CURVE",
"73 446 OFFCURVE",
"83 466 OFFCURVE",
"83 471 CURVE",
"88 481 LINE",
"93 486 OFFCURVE",
"108 512 OFFCURVE",
"113 517 CURVE SMOOTH",
"118 522 LINE",
"123 522 OFFCURVE",
"133 532 OFFCURVE",
"133 532 CURVE",
"138 537 OFFCURVE",
"163 547 OFFCURVE",
"163 547 CURVE",
"168 547 OFFCURVE",
"203 557 OFFCURVE",
"213 557 CURVE SMOOTH",
"228 557 LINE SMOOTH",
"233 557 OFFCURVE",
"253 547 OFFCURVE",
"258 547 CURVE SMOOTH",
"263 547 OFFCURVE",
"283 537 OFFCURVE",
"288 532 CURVE",
"293 532 OFFCURVE",
"313 517 OFFCURVE",
"318 512 CURVE SMOOTH",
"323 507 LINE",
"323 502 OFFCURVE",
"333 466 OFFCURVE",
"333 461 CURVE SMOOTH",
"333 456 LINE",
"333 456 OFFCURVE",
"338 436 OFFCURVE",
"338 431 CURVE SMOOTH",
"338 411 LINE",
"338 411 OFFCURVE",
"333 391 OFFCURVE",
"333 386 CURVE SMOOTH",
"333 376 OFFCURVE",
"323 346 OFFCURVE",
"323 346 CURVE",
"313 331 LINE",
"313 326 OFFCURVE",
"293 300 OFFCURVE",
"293 295 CURVE",
"278 275 LINE",
"273 270 OFFCURVE",
"253 235 OFFCURVE",
"248 230 CURVE",
"243 220 LINE",
"243 215 OFFCURVE",
"228 205 OFFCURVE",
"228 200 CURVE",
"213 185 LINE",
"193 160 LINE",
"188 155 LINE",
"163 135 LINE",
"158 135 OFFCURVE",
"153 125 OFFCURVE",
"153 125 CURVE",
"153 110 LINE",
"158 105 LINE",
"168 99 LINE",
"173 99 LINE SMOOTH",
"178 99 OFFCURVE",
"188 105 OFFCURVE",
"193 105 CURVE SMOOTH",
"313 105 LINE",
"313 44 LINE",
"308 44 OFFCURVE",
"273 39 OFFCURVE",
"263 39 CURVE SMOOTH",
"223 39 LINE SMOOTH",
"218 39 OFFCURVE",
"173 34 OFFCURVE",
"168 34 CURVE SMOOTH",
"73 34 LINE"
);
}
);
width = 437;
}
);
note = two;
unicode = 0032;
},
{
glyphname = three;
layers = (
{
layerId = "4FCC7E5A-ABB0-4C53-A7CD-8FBAF99C528D";
name = Regular;
paths = (
{
closed = 1;
nodes = (
"19 135 LINE SMOOTH",
"19 130 OFFCURVE",
"29 100 OFFCURVE",
"29 95 CURVE",
"34 80 OFFCURVE",
"34 60 OFFCURVE",
"44 45 CURVE",
"44 40 OFFCURVE",
"54 30 OFFCURVE",
"54 30 CURVE SMOOTH",
"54 30 OFFCURVE",
"69 20 OFFCURVE",
"74 15 CURVE",
"89 5 OFFCURVE",
"100 0 OFFCURVE",
"115 -5 CURVE SMOOTH",
"130 -10 OFFCURVE",
"170 -20 OFFCURVE",
"175 -20 CURVE SMOOTH",
"180 -20 OFFCURVE",
"215 -25 OFFCURVE",
"225 -25 CURVE SMOOTH",
"256 -25 LINE SMOOTH",
"261 -25 OFFCURVE",
"286 -20 OFFCURVE",
"296 -15 CURVE",
"301 -15 OFFCURVE",
"321 -5 OFFCURVE",
"326 -5 CURVE",
"331 0 LINE",
"346 10 LINE",
"356 15 OFFCURVE",
"382 35 OFFCURVE",
"382 35 CURVE SMOOTH",
"382 35 OFFCURVE",
"397 60 OFFCURVE",
"402 65 CURVE SMOOTH",
"407 70 OFFCURVE",
"417 90 OFFCURVE",
"417 95 CURVE",
"422 105 OFFCURVE",
"437 149 OFFCURVE",
"442 159 CURVE",
"442 164 OFFCURVE",
"447 179 OFFCURVE",
"447 184 CURVE SMOOTH",
"447 244 LINE",
"442 259 LINE",
"437 279 OFFCURVE",
"432 299 OFFCURVE",
"422 319 CURVE",
"417 324 OFFCURVE",
"407 349 OFFCURVE",
"402 354 CURVE",
"402 359 OFFCURVE",
"407 369 OFFCURVE",
"407 374 CURVE",
"412 399 LINE",
"417 409 LINE",
"417 508 LINE",
"417 508 OFFCURVE",
"412 528 OFFCURVE",
"412 533 CURVE SMOOTH",
"412 538 OFFCURVE",
"402 558 OFFCURVE",
"402 563 CURVE SMOOTH",
"402 568 OFFCURVE",
"392 583 OFFCURVE",
"392 583 CURVE",
"361 613 LINE SMOOTH",
"356 618 OFFCURVE",
"336 628 OFFCURVE",
"331 633 CURVE",
"331 633 OFFCURVE",
"321 638 OFFCURVE",
"316 638 CURVE SMOOTH",
"311 638 OFFCURVE",
"296 643 OFFCURVE",
"296 643 CURVE SMOOTH",
"246 643 LINE SMOOTH",
"246 643 OFFCURVE",
"225 638 OFFCURVE",
"220 638 CURVE SMOOTH",
"215 638 OFFCURVE",
"190 628 OFFCURVE",
"185 628 CURVE",
"175 623 LINE",
"170 618 OFFCURVE",
"140 598 OFFCURVE",
"135 593 CURVE",
"125 588 LINE",
"110 578 LINE",
"100 573 LINE",
"89 563 LINE",
"74 553 LINE",
"69 548 LINE",
"59 533 LINE",
"54 528 LINE",
"54 523 OFFCURVE",
"44 513 OFFCURVE",
"44 508 CURVE",
"39 498 OFFCURVE",
"29 469 OFFCURVE",
"29 464 CURVE SMOOTH",
"29 434 LINE SMOOTH",
"29 424 OFFCURVE",
"34 389 OFFCURVE",
"34 384 CURVE",
"39 379 LINE",
"49 374 LINE",
"59 374 LINE SMOOTH",
"69 374 OFFCURVE",
"105 379 OFFCURVE",
"110 379 CURVE SMOOTH",
"115 379 OFFCURVE",
"130 384 OFFCURVE",
"130 384 CURVE",
"135 389 LINE",
"155 399 LINE",
"155 399 OFFCURVE",
"165 409 OFFCURVE",
"165 414 CURVE",
"170 424 LINE",
"170 434 LINE",
"170 434 OFFCURVE",
"175 454 OFFCURVE",
"175 459 CURVE SMOOTH",
"175 469 OFFCURVE",
"180 478 OFFCURVE",
"185 488 CURVE",
"190 493 LINE",
"210 493 LINE",
"220 488 LINE",
"230 478 LINE",
"236 474 OFFCURVE",
"251 454 OFFCURVE",
"251 449 CURVE",
"256 434 LINE",
"256 399 LINE",
"251 394 OFFCURVE",
"246 389 OFFCURVE",
"241 389 CURVE SMOOTH",
"236 389 OFFCURVE",
"225 384 OFFCURVE",
"225 384 CURVE SMOOTH",
"195 384 LINE",
"180 389 LINE",
"175 389 LINE",
"165 384 LINE",
"150 379 LINE",
"140 369 LINE",
"130 364 LINE",
"125 359 OFFCURVE",
"115 349 OFFCURVE",
"115 344 CURVE SMOOTH",
"115 289 LINE SMOOTH",
"115 284 OFFCURVE",
"120 264 OFFCURVE",
"120 264 CURVE",
"120 259 OFFCURVE",
"135 244 OFFCURVE",
"140 244 CURVE SMOOTH",
"150 244 OFFCURVE",
"200 239 OFFCURVE",
"210 239 CURVE SMOOTH",
"215 239 OFFCURVE",
"236 234 OFFCURVE",
"236 234 CURVE",
"251 219 LINE",
"256 209 LINE",
"256 135 LINE SMOOTH",
"256 130 OFFCURVE",
"251 120 OFFCURVE",
"246 115 CURVE",
"246 115 OFFCURVE",
"225 105 OFFCURVE",
"220 105 CURVE SMOOTH",
"210 105 LINE SMOOTH",
"210 105 OFFCURVE",
"200 120 OFFCURVE",
"195 125 CURVE",
"195 125 OFFCURVE",
"190 135 OFFCURVE",
"190 140 CURVE SMOOTH",
"190 149 OFFCURVE",
"180 169 OFFCURVE",
"180 174 CURVE",
"175 199 LINE",
"175 204 OFFCURVE",
"165 219 OFFCURVE",
"160 219 CURVE SMOOTH",
"160 219 OFFCURVE",
"145 224 OFFCURVE",
"140 224 CURVE SMOOTH",
"95 224 LINE",
"79 229 LINE",
"59 229 LINE SMOOTH",
"54 229 OFFCURVE",
"39 209 OFFCURVE",
"39 209 CURVE",
"24 199 LINE",
"24 199 OFFCURVE",
"19 189 OFFCURVE",
"19 184 CURVE SMOOTH"
);
},
{
closed = 1;
nodes = (
"125 159 LINE",
"125 154 OFFCURVE",
"130 140 OFFCURVE",
"130 135 CURVE",
"130 135 OFFCURVE",
"140 120 OFFCURVE",
"140 115 CURVE",
"140 115 OFFCURVE",
"150 105 OFFCURVE",
"150 100 CURVE",
"155 95 OFFCURVE",
"165 80 OFFCURVE",
"165 80 CURVE",
"175 75 LINE",
"180 75 OFFCURVE",
"190 70 OFFCURVE",
"190 70 CURVE",
"225 70 LINE SMOOTH",
"230 70 OFFCURVE",
"246 80 OFFCURVE",
"251 80 CURVE SMOOTH",
"256 80 OFFCURVE",
"271 95 OFFCURVE",
"276 100 CURVE",
"276 100 OFFCURVE",
"286 110 OFFCURVE",
"286 115 CURVE SMOOTH",
"286 120 OFFCURVE",
"291 130 OFFCURVE",
"291 135 CURVE SMOOTH",
"291 194 LINE SMOOTH",
"291 204 OFFCURVE",
"281 234 OFFCURVE",
"276 239 CURVE SMOOTH",
"271 244 OFFCURVE",
"256 264 OFFCURVE",
"251 264 CURVE SMOOTH",
"246 264 OFFCURVE",
"210 274 OFFCURVE",
"200 279 CURVE",
"185 279 LINE",
"165 284 LINE",
"145 284 LINE",
"145 324 LINE",
"160 324 OFFCURVE",
"220 329 OFFCURVE",
"236 329 CURVE",
"236 329 OFFCURVE",
"251 334 OFFCURVE",
"256 334 CURVE",
"266 339 LINE",
"271 339 OFFCURVE",
"281 354 OFFCURVE",
"281 354 CURVE",
"286 359 OFFCURVE",
"291 374 OFFCURVE",
"291 374 CURVE",
"291 424 LINE SMOOTH",
"291 429 OFFCURVE",
"286 449 OFFCURVE",
"281 454 CURVE",
"281 459 OFFCURVE",
"271 478 OFFCURVE",
"266 483 CURVE",
"266 488 OFFCURVE",
"256 498 OFFCURVE",
"256 498 CURVE",
"241 513 LINE SMOOTH",
"236 518 OFFCURVE",
"215 528 OFFCURVE",
"210 528 CURVE SMOOTH",
"170 528 LINE SMOOTH",
"170 528 OFFCURVE",
"145 513 OFFCURVE",
"135 508 CURVE",
"130 503 LINE",
"130 503 OFFCURVE",
"120 493 OFFCURVE",
"120 488 CURVE",
"115 478 LINE",
"115 474 OFFCURVE",
"110 464 OFFCURVE",
"110 459 CURVE SMOOTH",
"110 454 OFFCURVE",
"105 424 OFFCURVE",
"105 419 CURVE",
"100 414 LINE",
"59 414 LINE",
"59 424 OFFCURVE",
"64 459 OFFCURVE",
"64 469 CURVE",
"64 469 OFFCURVE",
"69 488 OFFCURVE",
"74 493 CURVE",
"74 498 OFFCURVE",
"84 513 OFFCURVE",
"84 513 CURVE",
"84 518 OFFCURVE",
"95 528 OFFCURVE",
"100 528 CURVE",
"105 533 OFFCURVE",
"135 548 OFFCURVE",
"140 553 CURVE",
"150 558 OFFCURVE",
"175 573 OFFCURVE",
"180 573 CURVE SMOOTH",
"185 573 OFFCURVE",
"220 583 OFFCURVE",
"230 583 CURVE SMOOTH",
"241 583 LINE SMOOTH",
"251 583 OFFCURVE",
"281 578 OFFCURVE",
"286 578 CURVE SMOOTH",
"291 578 OFFCURVE",
"301 573 OFFCURVE",
"301 573 CURVE",
"331 543 LINE",
"331 543 OFFCURVE",
"341 518 OFFCURVE",
"346 513 CURVE SMOOTH",
"351 508 OFFCURVE",
"356 488 OFFCURVE",
"356 483 CURVE SMOOTH",
"356 449 LINE SMOOTH",
"356 444 OFFCURVE",
"351 419 OFFCURVE",
"351 414 CURVE SMOOTH",
"351 409 OFFCURVE",
"346 399 OFFCURVE",
"346 399 CURVE",
"331 379 LINE",
"321 364 LINE",
"286 329 LINE",
"286 309 LINE",
"286 309 OFFCURVE",
"291 304 OFFCURVE",
"296 304 CURVE",
"321 299 LINE",
"331 294 LINE",
"336 294 OFFCURVE",
"346 284 OFFCURVE",
"346 284 CURVE",
"351 279 LINE",
"351 279 OFFCURVE",
"361 264 OFFCURVE",
"361 259 CURVE SMOOTH",
"361 254 OFFCURVE",
"371 239 OFFCURVE",
"371 234 CURVE",
"377 219 LINE",
"377 214 OFFCURVE",
"382 199 OFFCURVE",
"382 199 CURVE",
"382 149 LINE SMOOTH",
"382 144 OFFCURVE",
"371 130 OFFCURVE",
"371 125 CURVE",
"366 105 LINE",
"366 100 OFFCURVE",
"356 90 OFFCURVE",
"356 85 CURVE",
"351 80 OFFCURVE",
"336 60 OFFCURVE",
"336 55 CURVE",
"331 50 OFFCURVE",
"321 35 OFFCURVE",
"316 35 CURVE SMOOTH",
"316 35 OFFCURVE",
"301 25 OFFCURVE",
"296 25 CURVE",
"281 20 LINE",
"276 20 OFFCURVE",
"261 15 OFFCURVE",
"256 15 CURVE SMOOTH",
"236 15 LINE SMOOTH",
"215 15 OFFCURVE",
"155 20 OFFCURVE",
"150 20 CURVE SMOOTH",
"150 20 OFFCURVE",
"140 25 OFFCURVE",
"135 25 CURVE",
"130 30 OFFCURVE",
"105 40 OFFCURVE",
"105 40 CURVE SMOOTH",
"100 40 OFFCURVE",
"89 50 OFFCURVE",
"89 55 CURVE SMOOTH",
"89 60 OFFCURVE",
"79 80 OFFCURVE",
"74 85 CURVE",
"69 95 OFFCURVE",
"59 120 OFFCURVE",
"59 125 CURVE SMOOTH",
"59 130 OFFCURVE",
"54 154 OFFCURVE",
"54 159 CURVE"
);
}
);
width = 477;
}
);
note = three;
unicode = 0033;
},
{
glyphname = four;
layers = (
{
layerId = "4FCC7E5A-ABB0-4C53-A7CD-8FBAF99C528D";
name = Regular;
paths = (
{
closed = 1;
nodes = (
"191 12 LINE",
"191 -3 LINE",
"201 -8 LINE",
"211 -18 LINE",
"221 -23 LINE",
"260 -23 LINE SMOOTH",
"265 -23 OFFCURVE",
"280 -18 OFFCURVE",
"285 -18 CURVE SMOOTH",
"325 -18 LINE",
"335 -13 LINE",
"370 22 LINE",
"370 132 LINE",
"379 137 LINE",
"384 137 OFFCURVE",
"394 147 OFFCURVE",
"394 147 CURVE",
"429 182 LINE",
"434 192 LINE",
"434 207 OFFCURVE",
"439 267 OFFCURVE",
"439 282 CURVE SMOOTH",
"439 292 LINE",
"434 296 LINE",
"389 296 LINE SMOOTH",
"379 296 OFFCURVE",
"365 301 OFFCURVE",
"365 301 CURVE",
"365 566 LINE",
"365 566 OFFCURVE",
"350 591 OFFCURVE",
"345 601 CURVE",
"340 606 LINE",
"340 606 OFFCURVE",
"320 611 OFFCURVE",
"315 611 CURVE SMOOTH",
"310 611 OFFCURVE",
"280 616 OFFCURVE",
"275 616 CURVE SMOOTH",
"255 616 LINE SMOOTH",
"255 616 OFFCURVE",
"240 611 OFFCURVE",
"235 606 CURVE",
"221 596 LINE",
"216 591 LINE",
"206 576 LINE",
"171 541 LINE",
"171 541 OFFCURVE",
"151 516 OFFCURVE",
"146 506 CURVE",
"146 501 OFFCURVE",
"136 491 OFFCURVE",
"136 491 CURVE",
"136 486 OFFCURVE",
"121 466 OFFCURVE",
"121 461 CURVE",
"111 436 LINE",
"111 431 OFFCURVE",
"96 411 OFFCURVE",
"96 406 CURVE",
"91 391 LINE",
"82 376 LINE",
"77 371 OFFCURVE",
"57 321 OFFCURVE",
"52 316 CURVE",
"52 311 OFFCURVE",
"37 296 OFFCURVE",
"37 292 CURVE",
"27 282 LINE SMOOTH",
"22 277 OFFCURVE",
"17 262 OFFCURVE",
"17 262 CURVE",
"17 137 LINE",
"22 127 LINE",
"27 127 OFFCURVE",
"37 122 OFFCURVE",
"37 122 CURVE",
"196 122 LINE",
"196 22 LINE"
);
},
{
closed = 1;
nodes = (
"86 152 LINE SMOOTH",
"82 152 OFFCURVE",
"62 157 OFFCURVE",
"62 157 CURVE",
"62 242 LINE",
"96 311 LINE",
"101 336 LINE",
"101 341 OFFCURVE",
"111 361 OFFCURVE",
"111 366 CURVE SMOOTH",
"111 371 OFFCURVE",
"121 391 OFFCURVE",
"121 391 CURVE",
"126 396 OFFCURVE",
"151 436 OFFCURVE",
"156 441 CURVE",
"156 441 OFFCURVE",
"176 476 OFFCURVE",
"181 486 CURVE SMOOTH",
"191 506 LINE",
"201 516 LINE",
"211 531 LINE",
"211 536 OFFCURVE",
"221 541 OFFCURVE",
"221 541 CURVE",
"285 541 LINE",
"285 461 LINE SMOOTH",
"285 441 OFFCURVE",
"280 272 OFFCURVE",
"280 252 CURVE SMOOTH",
"280 237 LINE",
"285 232 LINE",
"340 232 LINE",
"355 227 LINE",
"355 222 OFFCURVE",
"360 202 OFFCURVE",
"360 197 CURVE SMOOTH",
"360 172 LINE",
"355 167 LINE",
"310 167 LINE",
"300 152 LINE",
"300 17 LINE",
"295 17 OFFCURVE",
"275 12 OFFCURVE",
"270 12 CURVE",
"255 7 LINE",
"235 7 LINE",
"235 22 OFFCURVE",
"230 87 OFFCURVE",
"230 102 CURVE SMOOTH",
"230 112 OFFCURVE",
"226 132 OFFCURVE",
"226 137 CURVE",
"216 147 LINE",
"211 147 OFFCURVE",
"201 152 OFFCURVE",
"196 152 CURVE SMOOTH"
);
},
{
closed = 1;
nodes = (
"91 217 LINE",
"96 212 LINE",
"106 207 LINE",
"111 207 OFFCURVE",
"121 202 OFFCURVE",
"121 202 CURVE",
"191 202 LINE SMOOTH",
"201 202 OFFCURVE",
"226 207 OFFCURVE",
"226 207 CURVE",
"230 222 LINE",
"230 227 OFFCURVE",
"240 311 OFFCURVE",
"240 346 CURVE SMOOTH",
"240 406 LINE SMOOTH",
"240 416 OFFCURVE",
"235 456 OFFCURVE",
"235 461 CURVE",
"230 471 LINE",
"216 471 LINE",
"206 461 LINE",
"206 461 OFFCURVE",
"196 436 OFFCURVE",
"191 431 CURVE",
"191 431 OFFCURVE",
"181 411 OFFCURVE",
"181 406 CURVE",
"176 391 LINE",
"176 386 OFFCURVE",
"161 371 OFFCURVE",
"161 366 CURVE",
"121 287 LINE SMOOTH",
"111 267 OFFCURVE",
"91 247 OFFCURVE",
"91 222 CURVE SMOOTH"
);
},
{
closed = 1;
nodes = (
"206 306 LINE",
"206 287 LINE SMOOTH",
"206 282 OFFCURVE",
"201 262 OFFCURVE",
"201 262 CURVE SMOOTH",
"171 262 LINE",
"176 272 LINE",
"181 277 OFFCURVE",
"196 311 OFFCURVE",
"201 316 CURVE"
);
}
);
width = 445;
}
);
note = four;
unicode = 0034;
},
{
glyphname = five;
layers = (
{
layerId = "4FCC7E5A-ABB0-4C53-A7CD-8FBAF99C528D";
name = Regular;
paths = (
{
closed = 1;
nodes = (
"51 46 LINE",
"91 6 LINE",
"91 6 OFFCURVE",
"101 -4 OFFCURVE",
"106 -4 CURVE SMOOTH",
"111 -4 OFFCURVE",
"126 -14 OFFCURVE",
"126 -14 CURVE",
"136 -19 OFFCURVE",
"166 -29 OFFCURVE",
"171 -29 CURVE SMOOTH",
"232 -29 LINE SMOOTH",
"237 -29 OFFCURVE",
"257 -19 OFFCURVE",
"262 -19 CURVE",
"282 -14 LINE",
"297 -4 LINE",
"307 1 LINE",
"312 6 OFFCURVE",
"337 21 OFFCURVE",
"337 21 CURVE",
"372 56 LINE",
"377 66 LINE",
"382 71 LINE",
"382 76 OFFCURVE",
"392 91 OFFCURVE",
"392 91 CURVE SMOOTH",
"392 91 OFFCURVE",
"397 111 OFFCURVE",
"397 121 CURVE SMOOTH",
"397 126 OFFCURVE",
"402 156 OFFCURVE",
"402 161 CURVE",
"402 161 OFFCURVE",
"407 181 OFFCURVE",
"407 186 CURVE",
"412 206 LINE",
"412 261 LINE SMOOTH",
"412 266 OFFCURVE",
"407 286 OFFCURVE",
"407 286 CURVE",
"407 291 OFFCURVE",
"402 311 OFFCURVE",
"402 316 CURVE SMOOTH",
"402 321 OFFCURVE",
"392 336 OFFCURVE",
"392 341 CURVE",
"387 351 OFFCURVE",
"367 376 OFFCURVE",
"362 381 CURVE SMOOTH",
"357 386 OFFCURVE",
"337 396 OFFCURVE",
"332 401 CURVE",
"327 401 OFFCURVE",
"307 411 OFFCURVE",
"302 411 CURVE SMOOTH",
"297 411 OFFCURVE",
"277 416 OFFCURVE",
"272 416 CURVE SMOOTH",
"216 416 LINE",
"211 421 LINE",
"221 426 LINE",
"347 426 LINE SMOOTH",
"352 426 OFFCURVE",
"362 431 OFFCURVE",
"362 431 CURVE",
"392 461 LINE",
"397 471 LINE",
"397 556 LINE",
"387 576 LINE",
"171 576 LINE SMOOTH",
"166 576 OFFCURVE",
"141 571 OFFCURVE",
"131 571 CURVE SMOOTH",
"126 571 OFFCURVE",
"116 566 OFFCURVE",
"116 566 CURVE SMOOTH",
"111 566 OFFCURVE",
"96 546 OFFCURVE",
"91 546 CURVE",
"76 536 LINE",
"71 531 LINE",
"71 526 OFFCURVE",
"61 516 OFFCURVE",
"61 511 CURVE SMOOTH",
"61 506 OFFCURVE",
"51 481 OFFCURVE",
"51 476 CURVE SMOOTH",
"51 471 OFFCURVE",
"46 426 OFFCURVE",
"46 421 CURVE SMOOTH",
"46 416 OFFCURVE",
"41 391 OFFCURVE",
"41 386 CURVE SMOOTH",
"41 376 LINE",
"41 376 OFFCURVE",
"36 356 OFFCURVE",
"36 351 CURVE SMOOTH",
"36 266 LINE SMOOTH",
"36 261 OFFCURVE",
"46 251 OFFCURVE",
"51 251 CURVE SMOOTH",
"56 251 OFFCURVE",
"81 231 OFFCURVE",
"86 231 CURVE",
"96 221 LINE",
"91 221 OFFCURVE",
"76 216 OFFCURVE",
"71 216 CURVE SMOOTH",
"66 216 OFFCURVE",
"51 196 OFFCURVE",
"46 191 CURVE SMOOTH",
"41 186 OFFCURVE",
"31 166 OFFCURVE",
"31 161 CURVE SMOOTH",
"31 131 LINE SMOOTH",
"31 126 OFFCURVE",
"41 91 OFFCURVE",
"41 86 CURVE",
"46 61 LINE"
);
},
{
closed = 1;
nodes = (
"81 66 LINE",
"81 76 OFFCURVE",
"71 126 OFFCURVE",
"71 136 CURVE SMOOTH",
"71 141 LINE",
"76 146 LINE",
"116 146 LINE",
"116 141 OFFCURVE",
"126 126 OFFCURVE",
"126 121 CURVE",
"131 111 OFFCURVE",
"136 106 OFFCURVE",
"141 96 CURVE",
"146 91 LINE SMOOTH",
"151 86 OFFCURVE",
"171 76 OFFCURVE",
"171 76 CURVE",
"176 76 OFFCURVE",
"191 71 OFFCURVE",
"196 71 CURVE SMOOTH",
"221 71 LINE",
"221 71 OFFCURVE",
"237 76 OFFCURVE",
"242 81 CURVE SMOOTH",
"247 86 OFFCURVE",
"262 96 OFFCURVE",
"262 96 CURVE SMOOTH",
"262 96 OFFCURVE",
"272 121 OFFCURVE",
"277 126 CURVE",
"277 131 OFFCURVE",
"287 161 OFFCURVE",
"292 171 CURVE",
"292 176 OFFCURVE",
"297 191 OFFCURVE",
"297 191 CURVE",
"297 251 LINE",
"297 251 OFFCURVE",
"292 271 OFFCURVE",
"287 281 CURVE",
"287 286 OFFCURVE",
"277 306 OFFCURVE",
"277 306 CURVE",
"267 316 LINE",
"257 321 LINE",
"252 326 LINE",
"242 331 LINE",
"201 331 LINE SMOOTH",
"201 331 OFFCURVE",
"176 326 OFFCURVE",
"166 321 CURVE SMOOTH",
"156 316 LINE",
"151 311 OFFCURVE",
"136 301 OFFCURVE",
"136 296 CURVE SMOOTH",
"136 291 OFFCURVE",
"116 271 OFFCURVE",
"116 266 CURVE",
"111 261 LINE",
"106 261 LINE SMOOTH",
"106 261 OFFCURVE",
"96 266 OFFCURVE",
"91 266 CURVE SMOOTH",
"86 266 OFFCURVE",
"81 271 OFFCURVE",
"76 276 CURVE",
"76 326 LINE SMOOTH",
"76 331 OFFCURVE",
"81 346 OFFCURVE",
"81 351 CURVE SMOOTH",
"81 356 OFFCURVE",
"86 396 OFFCURVE",
"86 401 CURVE SMOOTH",
"86 406 OFFCURVE",
"91 426 OFFCURVE",
"91 426 CURVE",
"91 431 OFFCURVE",
"96 451 OFFCURVE",
"96 456 CURVE SMOOTH",
"96 461 OFFCURVE",
"101 486 OFFCURVE",
"101 491 CURVE SMOOTH",
"101 496 OFFCURVE",
"106 501 OFFCURVE",
"106 501 CURVE",
"272 506 LINE",
"312 501 LINE",
"317 496 LINE",
"322 486 LINE",
"322 476 LINE",
"317 461 LINE",
"216 461 LINE SMOOTH",
"211 461 OFFCURVE",
"186 456 OFFCURVE",
"176 456 CURVE SMOOTH",
"171 456 OFFCURVE",
"151 451 OFFCURVE",
"151 451 CURVE",
"146 441 LINE",
"146 401 LINE",
"141 386 LINE",
"141 381 OFFCURVE",
"136 361 OFFCURVE",
"136 356 CURVE SMOOTH",
"136 351 LINE SMOOTH",
"136 346 OFFCURVE",
"146 341 OFFCURVE",
"146 341 CURVE",
"166 341 LINE",
"171 346 LINE SMOOTH",
"176 351 OFFCURVE",
"196 361 OFFCURVE",
"196 361 CURVE",
"216 366 LINE",
"232 371 LINE",
"247 371 LINE SMOOTH",
"257 371 OFFCURVE",
"287 366 OFFCURVE",
"287 366 CURVE",
"292 366 OFFCURVE",
"312 356 OFFCURVE",
"317 351 CURVE",
"317 351 OFFCURVE",
"332 341 OFFCURVE",
"337 336 CURVE SMOOTH",
"342 331 LINE",
"342 321 OFFCURVE",
"352 266 OFFCURVE",
"352 256 CURVE SMOOTH",
"352 211 LINE SMOOTH",
"352 206 OFFCURVE",
"347 191 OFFCURVE",
"347 186 CURVE SMOOTH",
"347 181 OFFCURVE",
"342 136 OFFCURVE",
"342 131 CURVE",
"342 131 OFFCURVE",
"337 116 OFFCURVE",
"337 111 CURVE SMOOTH",
"337 106 OFFCURVE",
"332 96 OFFCURVE",
"332 96 CURVE SMOOTH",
"332 96 OFFCURVE",
"322 81 OFFCURVE",
"322 76 CURVE",
"317 66 OFFCURVE",
"302 41 OFFCURVE",
"302 41 CURVE SMOOTH",
"302 41 OFFCURVE",
"267 21 OFFCURVE",
"252 16 CURVE SMOOTH",
"237 11 LINE",
"216 1 LINE",
"191 1 LINE SMOOTH",
"186 1 OFFCURVE",
"156 11 OFFCURVE",
"151 11 CURVE SMOOTH",
"146 11 OFFCURVE",
"136 21 OFFCURVE",
"131 21 CURVE SMOOTH",
"126 21 OFFCURVE",
"116 36 OFFCURVE",
"111 36 CURVE"
);
},
{
closed = 1;
nodes = (
"156 211 OFFCURVE",
"151 216 OFFCURVE",
"146 221 CURVE",
"146 226 OFFCURVE",
"156 246 OFFCURVE",
"156 251 CURVE",
"156 251 OFFCURVE",
"171 276 OFFCURVE",
"176 281 CURVE SMOOTH",
"181 286 LINE SMOOTH",
"186 291 OFFCURVE",
"206 301 OFFCURVE",
"211 301 CURVE SMOOTH",
"227 301 LINE",
"237 296 LINE",
"237 296 OFFCURVE",
"247 281 OFFCURVE",
"247 276 CURVE SMOOTH",
"247 271 OFFCURVE",
"257 246 OFFCURVE",
"257 241 CURVE SMOOTH",
"257 206 LINE SMOOTH",
"257 201 OFFCURVE",
"247 186 OFFCURVE",
"247 181 CURVE SMOOTH",
"247 176 OFFCURVE",
"242 156 OFFCURVE",
"242 151 CURVE",
"242 151 OFFCURVE",
"237 136 OFFCURVE",
"232 131 CURVE",
"232 126 OFFCURVE",
"221 116 OFFCURVE",
"221 116 CURVE",
"211 111 LINE",
"191 111 LINE",
"181 116 LINE",
"176 121 LINE",
"176 126 OFFCURVE",
"166 146 OFFCURVE",
"166 151 CURVE SMOOTH",
"166 161 OFFCURVE",
"161 201 OFFCURVE",
"161 211 CURVE"
);
}
);
width = 437;
}
);
note = five;
unicode = 0035;
},
{
glyphname = six;
layers = (
{
layerId = "4FCC7E5A-ABB0-4C53-A7CD-8FBAF99C528D";
name = Regular;
paths = (
{
closed = 1;
nodes = (
"27 286 LINE SMOOTH",
"27 266 OFFCURVE",
"37 191 OFFCURVE",
"37 181 CURVE SMOOTH",
"37 176 OFFCURVE",
"47 146 OFFCURVE",
"47 135 CURVE SMOOTH",
"47 125 OFFCURVE",
"62 95 OFFCURVE",
"62 90 CURVE",
"67 80 OFFCURVE",
"82 45 OFFCURVE",
"87 40 CURVE SMOOTH",
"92 35 OFFCURVE",
"122 10 OFFCURVE",
"132 0 CURVE",
"132 0 OFFCURVE",
"147 -10 OFFCURVE",
"152 -10 CURVE SMOOTH",
"157 -10 OFFCURVE",
"177 -20 OFFCURVE",
"182 -20 CURVE SMOOTH",
"192 -20 LINE SMOOTH",
"197 -20 OFFCURVE",
"217 -25 OFFCURVE",
"222 -25 CURVE SMOOTH",
"257 -25 LINE",
"257 -25 OFFCURVE",
"272 -20 OFFCURVE",
"277 -20 CURVE",
"292 -15 LINE",
"312 -10 LINE",
"317 -10 OFFCURVE",
"337 0 OFFCURVE",
"342 5 CURVE",
"347 5 OFFCURVE",
"357 15 OFFCURVE",
"357 15 CURVE",
"407 65 LINE",
"427 105 LINE",
"427 105 OFFCURVE",
"432 115 OFFCURVE",
"432 120 CURVE SMOOTH",
"432 125 OFFCURVE",
"437 141 OFFCURVE",
"437 146 CURVE SMOOTH",
"437 156 OFFCURVE",
"442 181 OFFCURVE",
"442 186 CURVE SMOOTH",
"442 311 LINE",
"437 326 LINE",
"432 336 LINE",
"427 341 LINE",
"417 356 LINE",
"397 376 LINE",
"382 386 LINE",
"377 391 LINE",
"377 391 OFFCURVE",
"367 396 OFFCURVE",
"362 396 CURVE",
"352 401 OFFCURVE",
"322 406 OFFCURVE",
"322 406 CURVE SMOOTH",
"232 406 LINE",
"217 401 LINE",
"202 401 LINE",
"202 436 LINE SMOOTH",
"202 441 OFFCURVE",
"207 451 OFFCURVE",
"207 456 CURVE",
"212 461 OFFCURVE",
"222 492 OFFCURVE",
"227 497 CURVE",
"242 502 LINE",
"247 502 LINE",
"247 497 OFFCURVE",
"257 487 OFFCURVE",
"257 482 CURVE SMOOTH",
"257 472 OFFCURVE",
"267 436 OFFCURVE",
"267 426 CURVE",
"272 421 LINE",
"292 421 LINE SMOOTH",
"297 421 OFFCURVE",
"332 431 OFFCURVE",
"342 431 CURVE",
"357 436 LINE",
"372 431 LINE",
"392 431 LINE",
"392 431 OFFCURVE",
"397 436 OFFCURVE",
"397 441 CURVE SMOOTH",
"397 446 OFFCURVE",
"402 456 OFFCURVE",
"402 456 CURVE SMOOTH",
"402 456 OFFCURVE",
"407 492 OFFCURVE",
"407 502 CURVE SMOOTH",
"407 507 LINE",
"402 517 OFFCURVE",
"392 542 OFFCURVE",
"387 547 CURVE SMOOTH",
"377 557 LINE",
"372 567 LINE",
"347 592 LINE",
"347 592 OFFCURVE",
"332 607 OFFCURVE",
"327 607 CURVE",
"317 612 LINE",
"312 617 LINE",
"307 617 OFFCURVE",
"272 627 OFFCURVE",
"262 627 CURVE SMOOTH",
"242 627 LINE SMOOTH",
"232 627 OFFCURVE",
"207 622 OFFCURVE",
"207 622 CURVE SMOOTH",
"202 622 OFFCURVE",
"187 602 OFFCURVE",
"182 602 CURVE",
"162 592 LINE",
"162 592 OFFCURVE",
"142 577 OFFCURVE",
"137 572 CURVE SMOOTH",
"127 562 LINE",
"122 552 LINE",
"87 517 LINE",
"87 517 OFFCURVE",
"67 482 OFFCURVE",
"62 467 CURVE",
"62 461 OFFCURVE",
"52 446 OFFCURVE",
"52 441 CURVE SMOOTH",
"52 436 OFFCURVE",
"42 416 OFFCURVE",
"42 411 CURVE SMOOTH",
"42 406 OFFCURVE",
"37 391 OFFCURVE",
"37 391 CURVE",
"37 376 OFFCURVE",
"27 321 OFFCURVE",
"27 311 CURVE SMOOTH"
);
},
{
closed = 1;
nodes = (
"62 326 LINE",
"62 326 OFFCURVE",
"67 351 OFFCURVE",
"67 361 CURVE SMOOTH",
"67 366 OFFCURVE",
"72 381 OFFCURVE",
"72 386 CURVE SMOOTH",
"72 391 OFFCURVE",
"77 406 OFFCURVE",
"77 406 CURVE",
"77 411 OFFCURVE",
"87 431 OFFCURVE",
"87 431 CURVE",
"92 446 LINE",
"97 456 OFFCURVE",
"112 492 OFFCURVE",
"112 492 CURVE",
"117 502 OFFCURVE",
"157 542 OFFCURVE",
"167 547 CURVE SMOOTH",
"177 552 LINE",
"182 557 LINE",
"182 557 OFFCURVE",
"202 567 OFFCURVE",
"207 567 CURVE SMOOTH",
"212 567 OFFCURVE",
"222 572 OFFCURVE",
"222 572 CURVE",
"262 572 LINE",
"277 567 LINE",
"282 567 OFFCURVE",
"292 557 OFFCURVE",
"297 552 CURVE SMOOTH",
"322 527 LINE",
"327 517 LINE",
"332 502 LINE",
"342 482 LINE",
"342 472 LINE",
"337 472 OFFCURVE",
"317 467 OFFCURVE",
"312 467 CURVE SMOOTH",
"292 467 LINE",
"292 472 OFFCURVE",
"282 492 OFFCURVE",
"282 497 CURVE",
"277 507 LINE",
"272 512 OFFCURVE",
"257 532 OFFCURVE",
"257 532 CURVE SMOOTH",
"257 532 OFFCURVE",
"247 542 OFFCURVE",
"242 542 CURVE",
"232 547 LINE",
"207 547 LINE SMOOTH",
"202 547 OFFCURVE",
"187 537 OFFCURVE",
"182 532 CURVE",
"172 517 LINE",
"167 512 LINE SMOOTH",
"162 507 OFFCURVE",
"152 487 OFFCURVE",
"152 482 CURVE SMOOTH",
"152 477 OFFCURVE",
"142 446 OFFCURVE",
"142 441 CURVE",
"137 426 LINE",
"132 416 OFFCURVE",
"127 381 OFFCURVE",
"127 376 CURVE SMOOTH",
"127 326 LINE SMOOTH",
"127 321 OFFCURVE",
"132 311 OFFCURVE",
"132 311 CURVE",
"147 311 LINE SMOOTH",
"152 311 OFFCURVE",
"167 321 OFFCURVE",
"167 321 CURVE",
"177 341 LINE",
"177 341 OFFCURVE",
"182 346 OFFCURVE",
"187 346 CURVE SMOOTH",
"192 346 OFFCURVE",
"217 361 OFFCURVE",
"222 361 CURVE",
"232 366 LINE",
"307 366 LINE",
"317 361 LINE",
"347 331 LINE",
"347 331 OFFCURVE",
"357 316 OFFCURVE",
"357 311 CURVE",
"357 311 OFFCURVE",
"362 301 OFFCURVE",
"362 296 CURVE SMOOTH",
"362 291 OFFCURVE",
"367 281 OFFCURVE",
"367 276 CURVE SMOOTH",
"367 166 LINE SMOOTH",
"367 156 OFFCURVE",
"362 115 OFFCURVE",
"357 105 CURVE",
"357 105 OFFCURVE",
"352 90 OFFCURVE",
"347 85 CURVE",
"337 70 LINE",
"327 50 LINE",
"322 45 LINE SMOOTH",
"317 40 OFFCURVE",
"292 25 OFFCURVE",
"292 25 CURVE",
"282 20 OFFCURVE",
"252 10 OFFCURVE",
"247 10 CURVE SMOOTH",
"192 10 LINE SMOOTH",
"187 10 OFFCURVE",
"177 15 OFFCURVE",
"172 15 CURVE",
"152 30 LINE",
"142 35 LINE",
"137 40 OFFCURVE",
"117 55 OFFCURVE",
"117 55 CURVE",
"107 75 LINE",
"102 80 LINE",
"102 85 OFFCURVE",
"92 95 OFFCURVE",
"92 100 CURVE",
"87 115 OFFCURVE",
"72 156 OFFCURVE",
"72 161 CURVE SMOOTH",
"72 171 OFFCURVE",
"62 231 OFFCURVE",
"62 246 CURVE SMOOTH"
);
},
{
closed = 1;
nodes = (
"132 216 LINE",
"137 186 OFFCURVE",
"137 156 OFFCURVE",
"147 125 CURVE",
"147 120 OFFCURVE",
"157 95 OFFCURVE",
"157 95 CURVE",
"162 90 LINE",
"167 80 LINE",
"192 55 LINE",
"267 55 LINE",
"277 60 LINE",
"302 85 LINE",
"302 90 OFFCURVE",
"317 105 OFFCURVE",
"317 110 CURVE",
"317 110 OFFCURVE",
"322 120 OFFCURVE",
"322 125 CURVE SMOOTH",
"322 130 OFFCURVE",
"327 146 OFFCURVE",
"327 146 CURVE",
"327 151 OFFCURVE",
"332 176 OFFCURVE",
"332 176 CURVE",
"332 221 LINE",
"332 221 OFFCURVE",
"327 241 OFFCURVE",
"322 251 CURVE",
"322 256 OFFCURVE",
"312 276 OFFCURVE",
"312 276 CURVE",
"312 281 OFFCURVE",
"297 296 OFFCURVE",
"297 301 CURVE",
"282 316 LINE",
"277 316 OFFCURVE",
"257 326 OFFCURVE",
"252 326 CURVE SMOOTH",
"207 326 LINE",
"192 321 LINE",
"147 276 LINE",
"147 271 OFFCURVE",
"137 261 OFFCURVE",
"137 261 CURVE SMOOTH",
"137 261 OFFCURVE",
"132 236 OFFCURVE",
"132 231 CURVE SMOOTH"
);
},
{
closed = 1;
nodes = (
"207 156 LINE",
"217 271 LINE",
"217 276 OFFCURVE",
"222 291 OFFCURVE",
"227 291 CURVE SMOOTH",
"242 291 LINE SMOOTH",
"247 291 OFFCURVE",
"262 286 OFFCURVE",
"262 286 CURVE",
"277 271 LINE",
"282 261 LINE SMOOTH",
"287 251 OFFCURVE",
"297 221 OFFCURVE",
"297 221 CURVE",
"297 191 LINE SMOOTH",
"297 186 OFFCURVE",
"287 151 OFFCURVE",
"287 141 CURVE",
"287 141 OFFCURVE",
"282 120 OFFCURVE",
"277 115 CURVE",
"272 105 LINE",
"267 100 LINE",
"252 95 LINE",
"242 90 LINE",
"242 90 OFFCURVE",
"227 95 OFFCURVE",
"227 100 CURVE",
"227 100 OFFCURVE",
"217 115 OFFCURVE",
"217 120 CURVE SMOOTH",
"217 125 OFFCURVE",
"212 146 OFFCURVE",
"212 151 CURVE"
);
},
{
closed = 1;
nodes = (
"187 80 OFFCURVE",
"187 70 OFFCURVE",
"182 70 CURVE SMOOTH",
"177 70 OFFCURVE",
"177 80 OFFCURVE",
"182 80 CURVE SMOOTH"
);
}
);
width = 453;
}
);
note = six;
unicode = 0036;
},
{
glyphname = seven;
layers = (
{
layerId = "4FCC7E5A-ABB0-4C53-A7CD-8FBAF99C528D";
name = Regular;
paths = (
{
closed = 1;
nodes = (
"78 20 LINE",
"78 5 LINE",
"88 -5 LINE",
"139 -5 LINE",
"139 -5 OFFCURVE",
"164 0 OFFCURVE",
"174 5 CURVE",
"184 5 OFFCURVE",
"204 15 OFFCURVE",
"204 15 CURVE SMOOTH",
"204 15 OFFCURVE",
"219 25 OFFCURVE",
"224 30 CURVE SMOOTH",
"234 40 LINE SMOOTH",
"239 45 OFFCURVE",
"254 65 OFFCURVE",
"254 65 CURVE",
"264 85 LINE",
"274 95 LINE",
"274 100 OFFCURVE",
"279 120 OFFCURVE",
"279 125 CURVE SMOOTH",
"279 130 OFFCURVE",
"295 180 OFFCURVE",
"295 185 CURVE SMOOTH",
"295 190 OFFCURVE",
"305 240 OFFCURVE",
"305 245 CURVE",
"310 255 LINE",
"310 260 OFFCURVE",
"320 280 OFFCURVE",
"320 285 CURVE SMOOTH",
"320 290 OFFCURVE",
"340 335 OFFCURVE",
"340 340 CURVE",
"345 355 LINE",
"350 365 LINE",
"355 370 OFFCURVE",
"380 425 OFFCURVE",
"385 430 CURVE",
"385 435 OFFCURVE",
"390 440 OFFCURVE",
"390 440 CURVE",
"390 450 LINE SMOOTH",
"390 470 OFFCURVE",
"380 565 OFFCURVE",
"380 585 CURVE",
"375 595 LINE",
"370 600 LINE",
"365 600 OFFCURVE",
"350 605 OFFCURVE",
"345 605 CURVE SMOOTH",
"300 605 LINE SMOOTH",
"295 605 OFFCURVE",
"254 600 OFFCURVE",
"249 600 CURVE SMOOTH",
"239 600 OFFCURVE",
"154 595 OFFCURVE",
"144 595 CURVE SMOOTH",
"139 595 OFFCURVE",
"88 585 OFFCURVE",
"73 580 CURVE",
"63 575 LINE",
"58 570 OFFCURVE",
"33 555 OFFCURVE",
"28 555 CURVE",
"13 545 LINE",
"8 540 LINE",
"8 535 OFFCURVE",
"3 500 OFFCURVE",
"3 495 CURVE SMOOTH",
"3 420 LINE",
"8 410 LINE",
"8 410 OFFCURVE",
"18 405 OFFCURVE",
"23 405 CURVE SMOOTH",
"38 405 LINE SMOOTH",
"43 405 OFFCURVE",
"109 415 OFFCURVE",
"114 415 CURVE SMOOTH",
"174 415 LINE",
"174 410 OFFCURVE",
"179 390 OFFCURVE",
"179 385 CURVE",
"169 365 LINE",
"164 340 LINE",
"164 335 OFFCURVE",
"149 285 OFFCURVE",
"149 280 CURVE SMOOTH",
"149 275 OFFCURVE",
"144 245 OFFCURVE",
"144 240 CURVE SMOOTH",
"144 225 OFFCURVE",
"139 205 OFFCURVE",
"134 190 CURVE",
"134 185 OFFCURVE",
"124 165 OFFCURVE",
"124 160 CURVE",
"119 140 LINE",
"114 125 LINE",
"109 105 LINE",
"104 95 OFFCURVE",
"88 40 OFFCURVE",
"83 30 CURVE SMOOTH"
);
},
{
closed = 1;
nodes = (
"234 440 OFFCURVE",
"224 450 OFFCURVE",
"224 455 CURVE",
"219 460 LINE",
"204 455 LINE",
"189 455 OFFCURVE",
"129 450 OFFCURVE",
"114 450 CURVE SMOOTH",
"109 450 OFFCURVE",
"88 445 OFFCURVE",
"88 445 CURVE SMOOTH",
"83 445 OFFCURVE",
"53 440 OFFCURVE",
"43 440 CURVE SMOOTH",
"38 440 LINE",
"33 450 LINE",
"33 505 LINE",
"33 505 OFFCURVE",
"53 510 OFFCURVE",
"63 510 CURVE SMOOTH",
"184 510 LINE SMOOTH",
"189 510 OFFCURVE",
"209 515 OFFCURVE",
"209 515 CURVE",
"219 515 OFFCURVE",
"249 520 OFFCURVE",
"254 520 CURVE SMOOTH",
"295 520 LINE",
"295 515 OFFCURVE",
"300 495 OFFCURVE",
"300 490 CURVE SMOOTH",
"300 485 LINE SMOOTH",
"300 480 OFFCURVE",
"305 450 OFFCURVE",
"305 445 CURVE SMOOTH",
"305 435 LINE",
"300 420 OFFCURVE",
"274 365 OFFCURVE",
"269 350 CURVE",
"269 345 OFFCURVE",
"259 325 OFFCURVE",
"259 320 CURVE SMOOTH",
"259 315 OFFCURVE",
"249 290 OFFCURVE",
"249 285 CURVE",
"244 265 LINE",
"244 260 OFFCURVE",
"234 240 OFFCURVE",
"234 240 CURVE",
"234 235 OFFCURVE",
"229 225 OFFCURVE",
"229 225 CURVE",
"224 200 OFFCURVE",
"189 75 OFFCURVE",
"184 50 CURVE",
"179 45 LINE",
"174 45 OFFCURVE",
"159 35 OFFCURVE",
"159 35 CURVE SMOOTH",
"154 35 OFFCURVE",
"129 30 OFFCURVE",
"124 30 CURVE",
"124 45 LINE",
"129 60 LINE",
"129 65 LINE SMOOTH",
"129 75 OFFCURVE",
"144 110 OFFCURVE",
"144 120 CURVE SMOOTH",
"144 125 OFFCURVE",
"154 145 OFFCURVE",
"154 150 CURVE",
"159 170 LINE",
"159 175 OFFCURVE",
"169 200 OFFCURVE",
"169 205 CURVE SMOOTH",
"169 210 OFFCURVE",
"174 230 OFFCURVE",
"174 235 CURVE",
"179 255 LINE",
"179 265 LINE SMOOTH",
"179 270 OFFCURVE",
"189 295 OFFCURVE",
"189 305 CURVE SMOOTH",
"189 310 OFFCURVE",
"199 335 OFFCURVE",
"199 340 CURVE SMOOTH",
"199 345 OFFCURVE",
"209 375 OFFCURVE",
"209 380 CURVE",
"219 400 LINE",
"219 405 OFFCURVE",
"234 430 OFFCURVE",
"234 435 CURVE SMOOTH"
);
}
);
width = 398;
}
);
note = seven;
unicode = 0037;
},
{
glyphname = eight;
layers = (
{
layerId = "4FCC7E5A-ABB0-4C53-A7CD-8FBAF99C528D";
name = Regular;
paths = (
{
closed = 1;
nodes = (
"87 296 LINE",
"82 286 LINE",
"72 276 LINE",
"72 271 OFFCURVE",
"57 251 OFFCURVE",
"57 246 CURVE",
"47 231 LINE",
"47 226 OFFCURVE",
"32 196 OFFCURVE",
"32 191 CURVE",
"27 181 LINE",
"27 176 OFFCURVE",
"22 166 OFFCURVE",
"22 166 CURVE",
"22 85 LINE",
"22 85 OFFCURVE",
"27 65 OFFCURVE",
"32 60 CURVE SMOOTH",
"42 50 LINE SMOOTH",
"47 45 OFFCURVE",
"62 25 OFFCURVE",
"67 20 CURVE SMOOTH",
"72 15 LINE",
"82 10 OFFCURVE",
"117 -10 OFFCURVE",
"122 -10 CURVE SMOOTH",
"127 -10 OFFCURVE",
"152 -15 OFFCURVE",
"157 -15 CURVE SMOOTH",
"162 -15 OFFCURVE",
"177 -20 OFFCURVE",
"182 -20 CURVE",
"197 -25 LINE",
"232 -25 LINE SMOOTH",
"237 -25 OFFCURVE",
"257 -20 OFFCURVE",
"262 -20 CURVE",
"262 -20 OFFCURVE",
"287 -10 OFFCURVE",
"297 -5 CURVE SMOOTH",
"307 0 LINE",
"322 10 LINE",
"332 15 LINE",
"337 15 OFFCURVE",
"347 25 OFFCURVE",
"347 25 CURVE",
"362 40 LINE",
"387 55 LINE",
"392 60 LINE",
"402 75 LINE",
"407 85 LINE",
"412 90 LINE",
"412 95 OFFCURVE",
"422 105 OFFCURVE",
"422 110 CURVE SMOOTH",
"422 115 OFFCURVE",
"432 135 OFFCURVE",
"432 141 CURVE",
"437 146 LINE",
"437 151 OFFCURVE",
"442 166 OFFCURVE",
"442 171 CURVE SMOOTH",
"442 216 LINE",
"442 216 OFFCURVE",
"437 241 OFFCURVE",
"437 246 CURVE SMOOTH",
"437 251 OFFCURVE",
"432 261 OFFCURVE",
"432 266 CURVE SMOOTH",
"432 271 OFFCURVE",
"422 296 OFFCURVE",
"422 296 CURVE",
"422 301 OFFCURVE",
"402 331 OFFCURVE",
"402 336 CURVE SMOOTH",
"402 341 LINE SMOOTH",
"402 346 OFFCURVE",
"417 366 OFFCURVE",
"417 371 CURVE",
"422 381 OFFCURVE",
"432 406 OFFCURVE",
"432 406 CURVE",
"432 451 LINE",
"427 472 LINE",
"422 497 LINE",
"422 502 OFFCURVE",
"417 517 OFFCURVE",
"417 517 CURVE",
"402 537 LINE",
"392 557 LINE",
"357 592 LINE",
"357 592 OFFCURVE",
"337 602 OFFCURVE",
"332 607 CURVE",
"327 607 OFFCURVE",
"312 617 OFFCURVE",
"307 617 CURVE",
"287 622 LINE",
"277 627 LINE",
"197 627 LINE SMOOTH",
"192 627 OFFCURVE",
"167 622 OFFCURVE",
"162 617 CURVE",
"162 617 OFFCURVE",
"152 612 OFFCURVE",
"147 607 CURVE",
"142 607 OFFCURVE",
"127 587 OFFCURVE",
"122 587 CURVE",
"102 572 LINE",
"97 567 OFFCURVE",
"82 557 OFFCURVE",
"82 552 CURVE",
"77 547 OFFCURVE",
"67 527 OFFCURVE",
"62 522 CURVE",
"57 507 LINE",
"57 502 OFFCURVE",
"37 482 OFFCURVE",
"37 477 CURVE",
"37 477 OFFCURVE",
"32 441 OFFCURVE",
"32 426 CURVE SMOOTH",
"32 411 LINE SMOOTH",
"32 406 OFFCURVE",
"37 381 OFFCURVE",
"37 376 CURVE",
"42 361 LINE",
"42 361 OFFCURVE",
"52 351 OFFCURVE",
"52 346 CURVE",
"57 341 LINE",
"57 336 OFFCURVE",
"72 316 OFFCURVE",
"72 311 CURVE"
);
},
{
closed = 1;
nodes = (
"67 75 LINE",
"67 156 LINE",
"67 156 OFFCURVE",
"72 171 OFFCURVE",
"72 176 CURVE SMOOTH",
"72 181 OFFCURVE",
"77 191 OFFCURVE",
"77 191 CURVE",
"82 196 OFFCURVE",
"97 231 OFFCURVE",
"102 236 CURVE SMOOTH",
"107 241 LINE",
"112 251 LINE",
"117 256 LINE",
"122 266 LINE",
"137 281 LINE",
"137 286 LINE SMOOTH",
"137 306 OFFCURVE",
"117 316 OFFCURVE",
"107 326 CURVE SMOOTH",
"102 331 OFFCURVE",
"82 366 OFFCURVE",
"77 371 CURVE SMOOTH",
"72 376 OFFCURVE",
"67 391 OFFCURVE",
"67 396 CURVE SMOOTH",
"67 446 LINE",
"67 446 OFFCURVE",
"72 461 OFFCURVE",
"77 466 CURVE",
"82 472 OFFCURVE",
"102 502 OFFCURVE",
"107 507 CURVE SMOOTH",
"132 532 LINE",
"152 542 LINE",
"157 552 LINE",
"167 557 LINE",
"172 557 OFFCURVE",
"202 562 OFFCURVE",
"207 562 CURVE SMOOTH",
"247 562 LINE SMOOTH",
"257 562 OFFCURVE",
"282 552 OFFCURVE",
"287 552 CURVE SMOOTH",
"292 552 OFFCURVE",
"322 532 OFFCURVE",
"332 522 CURVE SMOOTH",
"342 512 LINE",
"347 502 LINE SMOOTH",
"352 492 OFFCURVE",
"362 456 OFFCURVE",
"362 456 CURVE",
"362 381 LINE SMOOTH",
"362 376 OFFCURVE",
"352 356 OFFCURVE",
"347 351 CURVE SMOOTH",
"327 331 LINE",
"327 331 OFFCURVE",
"322 321 OFFCURVE",
"322 316 CURVE SMOOTH",
"322 296 LINE",
"327 286 LINE",
"337 281 LINE",
"342 276 OFFCURVE",
"357 266 OFFCURVE",
"357 261 CURVE",
"357 261 OFFCURVE",
"367 241 OFFCURVE",
"372 236 CURVE",
"372 231 OFFCURVE",
"377 226 OFFCURVE",
"377 226 CURVE",
"377 181 LINE SMOOTH",
"377 171 OFFCURVE",
"367 130 OFFCURVE",
"362 120 CURVE",
"362 115 OFFCURVE",
"352 95 OFFCURVE",
"347 90 CURVE SMOOTH",
"322 65 LINE SMOOTH",
"317 60 OFFCURVE",
"302 45 OFFCURVE",
"297 45 CURVE SMOOTH",
"292 45 OFFCURVE",
"267 30 OFFCURVE",
"257 25 CURVE",
"242 20 LINE",
"237 20 OFFCURVE",
"217 15 OFFCURVE",
"212 15 CURVE SMOOTH",
"192 15 LINE SMOOTH",
"182 15 OFFCURVE",
"147 20 OFFCURVE",
"142 20 CURVE SMOOTH",
"137 20 OFFCURVE",
"127 25 OFFCURVE",
"122 25 CURVE",
"112 30 LINE",
"107 35 OFFCURVE",
"82 50 OFFCURVE",
"82 50 CURVE SMOOTH",
"82 50 OFFCURVE",
"72 60 OFFCURVE",
"72 65 CURVE"
);
},
{
closed = 1;
nodes = (
"132 386 LINE",
"137 376 LINE",
"142 371 OFFCURVE",
"157 351 OFFCURVE",
"157 351 CURVE SMOOTH",
"157 351 OFFCURVE",
"177 336 OFFCURVE",
"182 331 CURVE",
"187 331 OFFCURVE",
"197 321 OFFCURVE",
"197 321 CURVE",
"207 316 OFFCURVE",
"232 301 OFFCURVE",
"237 301 CURVE SMOOTH",
"252 301 LINE",
"257 306 LINE",
"257 311 OFFCURVE",
"267 321 OFFCURVE",
"267 321 CURVE",
"272 326 OFFCURVE",
"287 356 OFFCURVE",
"287 361 CURVE",
"292 366 OFFCURVE",
"297 386 OFFCURVE",
"297 391 CURVE SMOOTH",
"297 451 LINE",
"292 461 LINE",
"262 492 LINE",
"262 492 OFFCURVE",
"252 497 OFFCURVE",
"247 497 CURVE SMOOTH",
"207 497 LINE",
"197 492 LINE",
"182 487 LINE",
"177 487 OFFCURVE",
"162 477 OFFCURVE",
"162 477 CURVE",
"157 472 OFFCURVE",
"142 461 OFFCURVE",
"142 456 CURVE SMOOTH",
"142 451 OFFCURVE",
"132 436 OFFCURVE",
"132 431 CURVE SMOOTH"
);
},
{
closed = 1;
nodes = (
"127 135 LINE",
"127 135 OFFCURVE",
"132 125 OFFCURVE",
"132 120 CURVE SMOOTH",
"132 115 OFFCURVE",
"137 110 OFFCURVE",
"142 105 CURVE",
"152 100 OFFCURVE",
"172 85 OFFCURVE",
"172 85 CURVE SMOOTH",
"172 85 OFFCURVE",
"217 75 OFFCURVE",
"232 70 CURVE",
"237 70 LINE",
"247 80 LINE",
"262 90 LINE",
"272 100 LINE SMOOTH",
"277 105 OFFCURVE",
"287 120 OFFCURVE",
"287 120 CURVE SMOOTH",
"287 120 OFFCURVE",
"292 141 OFFCURVE",
"292 146 CURVE SMOOTH",
"292 156 LINE SMOOTH",
"292 171 OFFCURVE",
"287 181 OFFCURVE",
"282 191 CURVE",
"277 196 OFFCURVE",
"267 216 OFFCURVE",
"267 216 CURVE",
"262 221 LINE SMOOTH",
"257 226 OFFCURVE",
"242 241 OFFCURVE",
"237 241 CURVE",
"222 251 LINE",
"207 266 LINE",
"187 266 LINE",
"177 261 LINE",
"172 256 OFFCURVE",
"162 241 OFFCURVE",
"157 236 CURVE",
"152 226 OFFCURVE",
"132 196 OFFCURVE",
"132 191 CURVE",
"132 191 OFFCURVE",
"127 171 OFFCURVE",
"127 166 CURVE SMOOTH"
);
},
{
closed = 1;
nodes = (
"187 446 LINE",
"187 446 OFFCURVE",
"197 456 OFFCURVE",
"202 456 CURVE",
"212 461 LINE",
"222 461 LINE",
"227 466 LINE",
"232 466 LINE SMOOTH",
"237 466 OFFCURVE",
"247 461 OFFCURVE",
"247 461 CURVE",
"257 451 LINE",
"262 441 LINE",
"262 391 LINE",
"252 381 LINE",
"247 371 LINE",
"237 376 LINE",
"207 406 LINE",
"207 406 OFFCURVE",
"197 416 OFFCURVE",
"197 421 CURVE SMOOTH",
"197 426 OFFCURVE",
"187 441 OFFCURVE",
"187 441 CURVE"
);
},
{
closed = 1;
nodes = (
"197 171 LINE SMOOTH",
"197 176 OFFCURVE",
"202 186 OFFCURVE",
"202 191 CURVE SMOOTH",
"202 196 OFFCURVE",
"212 211 OFFCURVE",
"212 211 CURVE",
"222 211 LINE",
"257 176 LINE",
"257 146 LINE",
"257 146 OFFCURVE",
"252 135 OFFCURVE",
"252 130 CURVE",
"247 125 LINE",
"227 125 LINE SMOOTH",
"227 125 OFFCURVE",
"217 130 OFFCURVE",
"212 135 CURVE",
"207 141 OFFCURVE",
"197 151 OFFCURVE",
"197 151 CURVE"
);
}
);
width = 469;
}
);
note = eight;
unicode = 0038;
},
{
glyphname = nine;
layers = (
{
layerId = "4FCC7E5A-ABB0-4C53-A7CD-8FBAF99C528D";
name = Regular;
paths = (
{
closed = 1;
nodes = (
"90 190 LINE SMOOTH",
"90 190 OFFCURVE",
"70 185 OFFCURVE",
"65 185 CURVE SMOOTH",
"60 185 OFFCURVE",
"45 180 OFFCURVE",
"45 180 CURVE SMOOTH",
"40 180 OFFCURVE",
"35 175 OFFCURVE",
"35 175 CURVE",
"35 99 LINE",
"35 99 OFFCURVE",
"40 89 OFFCURVE",
"40 84 CURVE",
"45 74 LINE SMOOTH",
"50 64 OFFCURVE",
"65 39 OFFCURVE",
"65 39 CURVE",
"65 34 OFFCURVE",
"80 24 OFFCURVE",
"80 24 CURVE",
"85 19 OFFCURVE",
"115 4 OFFCURVE",
"120 4 CURVE SMOOTH",
"205 4 LINE SMOOTH",
"210 4 OFFCURVE",
"236 9 OFFCURVE",
"241 9 CURVE SMOOTH",
"246 9 OFFCURVE",
"276 24 OFFCURVE",
"281 29 CURVE",
"281 29 OFFCURVE",
"301 44 OFFCURVE",
"306 49 CURVE SMOOTH",
"316 59 LINE",
"341 79 LINE",
"346 84 OFFCURVE",
"361 99 OFFCURVE",
"366 105 CURVE",
"366 105 OFFCURVE",
"376 115 OFFCURVE",
"376 120 CURVE",
"376 120 OFFCURVE",
"386 135 OFFCURVE",
"386 140 CURVE SMOOTH",
"386 145 OFFCURVE",
"401 170 OFFCURVE",
"401 175 CURVE",
"406 180 LINE",
"411 200 LINE",
"416 215 LINE",
"416 220 OFFCURVE",
"421 235 OFFCURVE",
"421 240 CURVE SMOOTH",
"421 260 OFFCURVE",
"431 336 OFFCURVE",
"431 351 CURVE SMOOTH",
"431 391 LINE",
"431 391 OFFCURVE",
"426 426 OFFCURVE",
"421 441 CURVE",
"421 446 OFFCURVE",
"411 476 OFFCURVE",
"411 486 CURVE SMOOTH",
"411 491 OFFCURVE",
"406 506 OFFCURVE",
"406 506 CURVE",
"406 511 OFFCURVE",
"396 532 OFFCURVE",
"391 537 CURVE SMOOTH",
"386 542 OFFCURVE",
"376 562 OFFCURVE",
"376 562 CURVE",
"341 597 LINE",
"336 597 OFFCURVE",
"311 612 OFFCURVE",
"301 617 CURVE",
"296 622 OFFCURVE",
"276 627 OFFCURVE",
"271 627 CURVE SMOOTH",
"190 627 LINE SMOOTH",
"190 627 OFFCURVE",
"175 622 OFFCURVE",
"170 622 CURVE",
"150 612 LINE",
"135 607 LINE",
"135 607 OFFCURVE",
"125 597 OFFCURVE",
"120 597 CURVE",
"115 592 LINE",
"105 587 LINE",
"100 582 LINE",
"90 567 LINE",
"70 547 LINE",
"60 527 LINE",
"60 521 OFFCURVE",
"45 506 OFFCURVE",
"45 501 CURVE SMOOTH",
"45 496 OFFCURVE",
"30 446 OFFCURVE",
"30 441 CURVE",
"25 426 LINE",
"25 421 OFFCURVE",
"20 401 OFFCURVE",
"20 401 CURVE",
"20 351 LINE SMOOTH",
"20 346 OFFCURVE",
"25 326 OFFCURVE",
"25 321 CURVE",
"35 300 LINE",
"35 295 OFFCURVE",
"45 275 OFFCURVE",
"45 270 CURVE",
"50 260 LINE",
"55 255 OFFCURVE",
"65 240 OFFCURVE",
"65 240 CURVE",
"95 210 LINE",
"105 205 LINE",
"110 205 OFFCURVE",
"120 200 OFFCURVE",
"120 200 CURVE",
"145 200 LINE SMOOTH",
"170 200 OFFCURVE",
"190 200 OFFCURVE",
"210 210 CURVE SMOOTH",
"231 220 LINE",
"236 220 LINE",
"236 180 LINE SMOOTH",
"236 175 OFFCURVE",
"231 160 OFFCURVE",
"231 155 CURVE SMOOTH",
"231 150 OFFCURVE",
"220 130 OFFCURVE",
"215 125 CURVE",
"215 120 OFFCURVE",
"200 110 OFFCURVE",
"200 110 CURVE SMOOTH",
"185 110 LINE",
"180 115 LINE",
"175 125 LINE",
"175 165 LINE SMOOTH",
"175 170 OFFCURVE",
"165 180 OFFCURVE",
"160 180 CURVE",
"155 185 OFFCURVE",
"140 190 OFFCURVE",
"140 190 CURVE SMOOTH"
);
},
{
closed = 1;
nodes = (
"70 125 LINE",
"75 130 LINE",
"110 130 LINE",
"110 125 OFFCURVE",
"115 115 OFFCURVE",
"115 110 CURVE SMOOTH",
"115 105 OFFCURVE",
"120 94 OFFCURVE",
"120 94 CURVE SMOOTH",
"120 94 OFFCURVE",
"130 79 OFFCURVE",
"135 79 CURVE SMOOTH",
"140 79 OFFCURVE",
"150 69 OFFCURVE",
"155 69 CURVE",
"155 69 OFFCURVE",
"175 64 OFFCURVE",
"180 64 CURVE SMOOTH",
"185 64 LINE SMOOTH",
"190 64 OFFCURVE",
"205 69 OFFCURVE",
"205 69 CURVE",
"215 74 LINE",
"220 74 OFFCURVE",
"231 84 OFFCURVE",
"231 84 CURVE",
"236 89 OFFCURVE",
"256 110 OFFCURVE",
"256 110 CURVE",
"256 115 OFFCURVE",
"271 140 OFFCURVE",
"271 150 CURVE SMOOTH",
"271 155 OFFCURVE",
"276 175 OFFCURVE",
"276 180 CURVE SMOOTH",
"276 265 LINE",
"266 275 LINE",
"256 275 LINE",
"246 270 LINE",
"225 255 LINE",
"220 255 OFFCURVE",
"210 245 OFFCURVE",
"210 245 CURVE",
"195 240 LINE",
"185 235 LINE",
"170 230 LINE",
"165 230 OFFCURVE",
"150 225 OFFCURVE",
"145 225 CURVE SMOOTH",
"140 225 LINE SMOOTH",
"140 225 OFFCURVE",
"130 230 OFFCURVE",
"125 230 CURVE",
"115 235 LINE",
"95 255 LINE",
"85 270 LINE",
"80 275 LINE",
"80 275 OFFCURVE",
"70 305 OFFCURVE",
"65 316 CURVE",
"60 321 OFFCURVE",
"55 346 OFFCURVE",
"55 346 CURVE",
"55 361 LINE SMOOTH",
"55 366 OFFCURVE",
"60 396 OFFCURVE",
"60 401 CURVE",
"65 426 LINE",
"65 431 OFFCURVE",
"70 451 OFFCURVE",
"70 456 CURVE",
"75 466 OFFCURVE",
"90 501 OFFCURVE",
"95 506 CURVE",
"95 506 OFFCURVE",
"115 532 OFFCURVE",
"120 537 CURVE SMOOTH",
"130 547 LINE",
"135 547 OFFCURVE",
"145 557 OFFCURVE",
"150 557 CURVE",
"160 562 OFFCURVE",
"185 567 OFFCURVE",
"190 567 CURVE SMOOTH",
"256 567 LINE SMOOTH",
"261 567 OFFCURVE",
"281 562 OFFCURVE",
"286 557 CURVE",
"301 547 LINE",
"321 527 LINE",
"321 527 OFFCURVE",
"336 511 OFFCURVE",
"336 506 CURVE",
"341 496 LINE",
"341 491 OFFCURVE",
"346 481 OFFCURVE",
"346 481 CURVE",
"346 476 OFFCURVE",
"351 436 OFFCURVE",
"351 431 CURVE",
"356 416 LINE",
"356 336 LINE SMOOTH",
"356 331 OFFCURVE",
"351 305 OFFCURVE",
"351 300 CURVE SMOOTH",
"351 275 LINE SMOOTH",
"351 265 OFFCURVE",
"341 210 OFFCURVE",
"341 195 CURVE",
"341 195 OFFCURVE",
"336 175 OFFCURVE",
"336 170 CURVE SMOOTH",
"336 165 OFFCURVE",
"331 155 OFFCURVE",
"331 150 CURVE SMOOTH",
"331 145 OFFCURVE",
"326 135 OFFCURVE",
"326 135 CURVE",
"326 130 OFFCURVE",
"306 110 OFFCURVE",
"306 105 CURVE",
"301 94 LINE",
"296 89 LINE SMOOTH",
"291 84 OFFCURVE",
"271 69 OFFCURVE",
"271 69 CURVE",
"266 64 OFFCURVE",
"251 54 OFFCURVE",
"246 54 CURVE",
"220 44 LINE",
"200 34 LINE",
"160 34 LINE SMOOTH",
"155 34 OFFCURVE",
"130 39 OFFCURVE",
"125 39 CURVE",
"115 44 LINE",
"95 64 LINE",
"85 79 LINE",
"80 84 OFFCURVE",
"70 110 OFFCURVE",
"70 115 CURVE SMOOTH"
);
},
{
closed = 1;
nodes = (
"95 361 LINE",
"95 361 OFFCURVE",
"100 346 OFFCURVE",
"100 341 CURVE SMOOTH",
"100 336 OFFCURVE",
"105 326 OFFCURVE",
"105 326 CURVE",
"105 321 OFFCURVE",
"120 310 OFFCURVE",
"125 305 CURVE SMOOTH",
"130 300 OFFCURVE",
"155 285 OFFCURVE",
"160 285 CURVE SMOOTH",
"200 285 LINE SMOOTH",
"205 285 OFFCURVE",
"236 295 OFFCURVE",
"241 295 CURVE",
"241 295 OFFCURVE",
"256 305 OFFCURVE",
"261 305 CURVE SMOOTH",
"266 305 OFFCURVE",
"276 316 OFFCURVE",
"276 316 CURVE",
"281 326 LINE",
"296 341 LINE SMOOTH",
"301 346 OFFCURVE",
"306 371 OFFCURVE",
"306 376 CURVE SMOOTH",
"306 451 LINE",
"301 466 LINE",
"301 471 OFFCURVE",
"291 486 OFFCURVE",
"291 486 CURVE",
"266 511 LINE",
"266 511 OFFCURVE",
"256 516 OFFCURVE",
"251 516 CURVE SMOOTH",
"210 516 LINE SMOOTH",
"205 516 OFFCURVE",
"190 511 OFFCURVE",
"185 511 CURVE",
"175 506 LINE SMOOTH",
"165 501 OFFCURVE",
"140 481 OFFCURVE",
"135 481 CURVE",
"125 471 LINE",
"125 471 OFFCURVE",
"115 451 OFFCURVE",
"110 446 CURVE",
"110 441 OFFCURVE",
"100 426 OFFCURVE",
"100 426 CURVE",
"100 421 OFFCURVE",
"95 406 OFFCURVE",
"95 401 CURVE SMOOTH"
);
},
{
closed = 1;
nodes = (
"170 381 LINE SMOOTH",
"170 391 OFFCURVE",
"175 426 OFFCURVE",
"175 426 CURVE",
"175 431 OFFCURVE",
"185 451 OFFCURVE",
"190 456 CURVE SMOOTH",
"200 466 LINE",
"205 481 LINE",
"210 481 OFFCURVE",
"231 486 OFFCURVE",
"236 486 CURVE SMOOTH",
"241 486 OFFCURVE",
"251 481 OFFCURVE",
"256 476 CURVE",
"256 476 OFFCURVE",
"266 461 OFFCURVE",
"266 456 CURVE SMOOTH",
"266 451 OFFCURVE",
"271 436 OFFCURVE",
"271 436 CURVE",
"271 386 LINE",
"271 386 OFFCURVE",
"266 371 OFFCURVE",
"266 366 CURVE SMOOTH",
"266 361 OFFCURVE",
"256 351 OFFCURVE",
"256 346 CURVE",
"251 341 LINE SMOOTH",
"246 336 OFFCURVE",
"231 331 OFFCURVE",
"231 331 CURVE SMOOTH",
"210 331 LINE SMOOTH",
"205 331 OFFCURVE",
"195 336 OFFCURVE",
"195 336 CURVE",
"190 341 OFFCURVE",
"170 356 OFFCURVE",
"170 361 CURVE SMOOTH"
);
}
);
width = 445;
}
);
note = nine;
unicode = 0039;
},
{
glyphname = colon;
layers = (
{
layerId = "4FCC7E5A-ABB0-4C53-A7CD-8FBAF99C528D";
name = Regular;
paths = (
{
closed = 1;
nodes = (
"51 314 LINE",
"51 314 OFFCURVE",
"56 294 OFFCURVE",
"56 289 CURVE SMOOTH",
"56 284 OFFCURVE",
"61 269 OFFCURVE",
"61 269 CURVE",
"66 259 LINE",
"76 254 LINE",
"81 254 LINE SMOOTH",
"101 254 OFFCURVE",
"162 264 OFFCURVE",
"167 264 CURVE SMOOTH",
"172 264 OFFCURVE",
"187 269 OFFCURVE",
"192 269 CURVE",
"202 274 LINE",
"217 289 LINE",
"217 304 LINE",
"222 309 LINE",
"222 314 OFFCURVE",
"237 334 OFFCURVE",
"237 339 CURVE",
"242 354 LINE",
"247 359 LINE",
"247 385 LINE SMOOTH",
"247 395 OFFCURVE",
"237 440 OFFCURVE",
"237 450 CURVE",
"232 460 LINE",
"222 470 LINE",
"207 475 LINE",
"126 475 LINE SMOOTH",
"121 475 OFFCURVE",
"101 470 OFFCURVE",
"96 470 CURVE SMOOTH",
"96 470 OFFCURVE",
"86 465 OFFCURVE",
"86 460 CURVE",
"76 445 LINE",
"56 425 LINE",
"56 415 OFFCURVE",
"51 380 OFFCURVE",
"51 370 CURVE SMOOTH"
);
},
{
closed = 1;
nodes = (
"36 13 LINE",
"41 8 LINE",
"46 8 OFFCURVE",
"56 -2 OFFCURVE",
"61 -2 CURVE SMOOTH",
"126 -2 LINE",
"141 3 LINE",
"147 3 OFFCURVE",
"177 8 OFFCURVE",
"182 8 CURVE",
"192 18 OFFCURVE",
"202 33 OFFCURVE",
"212 43 CURVE",
"227 53 LINE",
"232 58 LINE",
"232 149 LINE SMOOTH",
"232 154 OFFCURVE",
"227 174 OFFCURVE",
"227 179 CURVE",
"227 179 OFFCURVE",
"217 194 OFFCURVE",
"217 199 CURVE",
"212 204 LINE",
"207 204 OFFCURVE",
"187 214 OFFCURVE",
"182 214 CURVE SMOOTH",
"162 214 LINE SMOOTH",
"147 214 OFFCURVE",
"106 209 OFFCURVE",
"101 209 CURVE",
"91 204 LINE",
"86 199 LINE SMOOTH",
"81 194 OFFCURVE",
"61 179 OFFCURVE",
"56 174 CURVE SMOOTH",
"46 164 LINE",
"46 149 OFFCURVE",
"36 63 OFFCURVE",
"36 48 CURVE SMOOTH"
);
},
{
closed = 1;
nodes = (
"76 38 LINE",
"76 73 LINE SMOOTH",
"76 78 OFFCURVE",
"81 93 OFFCURVE",
"81 98 CURVE",
"86 108 LINE",
"96 118 LINE",
"96 118 OFFCURVE",
"106 124 OFFCURVE",
"111 124 CURVE SMOOTH",
"116 124 OFFCURVE",
"141 129 OFFCURVE",
"147 129 CURVE SMOOTH",
"167 129 LINE",
"167 118 OFFCURVE",
"162 83 OFFCURVE",
"162 73 CURVE SMOOTH",
"162 68 OFFCURVE",
"157 48 OFFCURVE",
"152 43 CURVE SMOOTH",
"147 38 LINE",
"141 38 OFFCURVE",
"131 33 OFFCURVE",
"131 33 CURVE SMOOTH",
"81 33 LINE"
);
},
{
closed = 1;
nodes = (
"86 334 LINE",
"91 349 LINE",
"96 370 LINE",
"96 370 OFFCURVE",
"111 380 OFFCURVE",
"116 380 CURVE SMOOTH",
"121 380 OFFCURVE",
"131 385 OFFCURVE",
"136 385 CURVE SMOOTH",
"177 385 LINE",
"177 339 LINE SMOOTH",
"177 334 OFFCURVE",
"172 314 OFFCURVE",
"172 309 CURVE",
"167 304 LINE",
"157 304 OFFCURVE",
"106 299 OFFCURVE",
"96 299 CURVE SMOOTH",
"91 299 LINE",
"91 304 OFFCURVE",
"86 314 OFFCURVE",
"86 319 CURVE SMOOTH"
);
}
);
width = 264;
}
);
note = colon;
unicode = 003A;
},
{
glyphname = semicolon;
layers = (
{
layerId = "4FCC7E5A-ABB0-4C53-A7CD-8FBAF99C528D";
name = Regular;
paths = (
{
closed = 1;
nodes = (
"-20 -116 LINE SMOOTH",
"-20 -121 OFFCURVE",
"-10 -131 OFFCURVE",
"-10 -136 CURVE",
"20 -166 LINE",
"45 -166 LINE",
"45 -166 OFFCURVE",
"60 -156 OFFCURVE",
"65 -156 CURVE",
"75 -146 LINE SMOOTH",
"80 -141 OFFCURVE",
"105 -121 OFFCURVE",
"114 -116 CURVE",
"129 -106 LINE",
"139 -91 LINE",
"154 -71 LINE",
"159 -66 OFFCURVE",
"169 -51 OFFCURVE",
"169 -46 CURVE",
"174 -31 OFFCURVE",
"199 19 OFFCURVE",
"204 24 CURVE",
"204 29 OFFCURVE",
"214 49 OFFCURVE",
"214 54 CURVE SMOOTH",
"214 59 OFFCURVE",
"224 94 OFFCURVE",
"224 99 CURVE",
"229 114 LINE",
"229 119 OFFCURVE",
"234 154 OFFCURVE",
"234 163 CURVE SMOOTH",
"234 178 LINE",
"229 188 LINE",
"219 198 LINE",
"209 203 LINE",
"90 203 LINE",
"80 198 LINE",
"75 193 LINE SMOOTH",
"65 183 OFFCURVE",
"55 178 OFFCURVE",
"45 168 CURVE SMOOTH",
"40 163 OFFCURVE",
"35 154 OFFCURVE",
"35 154 CURVE",
"35 129 LINE SMOOTH",
"35 124 OFFCURVE",
"25 104 OFFCURVE",
"25 99 CURVE SMOOTH",
"25 94 OFFCURVE",
"20 69 OFFCURVE",
"20 64 CURVE SMOOTH",
"20 19 LINE",
"65 4 LINE",
"60 -6 LINE",
"55 -11 OFFCURVE",
"40 -36 OFFCURVE",
"40 -36 CURVE",
"30 -46 OFFCURVE",
"-10 -91 OFFCURVE",
"-20 -101 CURVE"
);
},
{
closed = 1;
nodes = (
"50 288 LINE",
"55 283 LINE",
"70 273 LINE",
"139 273 LINE",
"154 278 LINE",
"159 278 OFFCURVE",
"184 283 OFFCURVE",
"189 283 CURVE",
"229 323 LINE",
"239 328 LINE",
"239 338 OFFCURVE",
"244 398 OFFCURVE",
"244 408 CURVE SMOOTH",
"244 413 LINE SMOOTH",
"244 423 OFFCURVE",
"239 453 OFFCURVE",
"239 453 CURVE",
"239 458 OFFCURVE",
"229 473 OFFCURVE",
"229 473 CURVE SMOOTH",
"229 473 OFFCURVE",
"214 483 OFFCURVE",
"209 483 CURVE SMOOTH",
"209 483 OFFCURVE",
"189 488 OFFCURVE",
"184 488 CURVE SMOOTH",
"174 488 LINE SMOOTH",
"164 488 OFFCURVE",
"119 483 OFFCURVE",
"110 483 CURVE",
"105 478 OFFCURVE",
"70 453 OFFCURVE",
"65 448 CURVE",
"65 448 OFFCURVE",
"55 438 OFFCURVE",
"55 433 CURVE SMOOTH",
"55 423 OFFCURVE",
"50 383 OFFCURVE",
"50 373 CURVE SMOOTH"
);
},
{
closed = 1;
nodes = (
"25 -111 LINE",
"25 -106 LINE",
"30 -101 LINE",
"45 -91 LINE",
"65 -71 LINE",
"65 -71 OFFCURVE",
"85 -41 OFFCURVE",
"90 -31 CURVE",
"105 -6 LINE",
"114 4 LINE",
"119 14 LINE",
"119 14 OFFCURVE",
"114 24 OFFCURVE",
"114 29 CURVE",
"110 34 LINE",
"85 39 LINE",
"80 39 OFFCURVE",
"70 44 OFFCURVE",
"70 44 CURVE",
"65 49 LINE",
"65 99 LINE SMOOTH",
"65 104 OFFCURVE",
"70 124 OFFCURVE",
"70 124 CURVE SMOOTH",
"70 124 OFFCURVE",
"90 134 OFFCURVE",
"95 134 CURVE SMOOTH",
"129 134 LINE SMOOTH",
"134 134 OFFCURVE",
"169 129 OFFCURVE",
"174 129 CURVE",
"174 109 LINE SMOOTH",
"174 104 OFFCURVE",
"169 79 OFFCURVE",
"169 74 CURVE",
"169 74 OFFCURVE",
"164 64 OFFCURVE",
"164 59 CURVE SMOOTH",
"164 54 OFFCURVE",
"144 14 OFFCURVE",
"144 9 CURVE",
"139 -6 LINE",
"139 -11 OFFCURVE",
"119 -36 OFFCURVE",
"119 -41 CURVE",
"114 -51 LINE",
"110 -56 LINE",
"105 -66 LINE",
"60 -111 LINE",
"45 -121 LINE",
"35 -121 LINE"
);
},
{
closed = 1;
nodes = (
"85 313 LINE",
"85 348 LINE SMOOTH",
"85 353 OFFCURVE",
"90 368 OFFCURVE",
"90 373 CURVE",
"95 383 LINE",
"105 393 LINE",
"105 393 OFFCURVE",
"114 398 OFFCURVE",
"119 398 CURVE SMOOTH",
"124 398 OFFCURVE",
"149 403 OFFCURVE",
"154 403 CURVE SMOOTH",
"174 403 LINE",
"174 383 LINE SMOOTH",
"174 378 OFFCURVE",
"169 353 OFFCURVE",
"169 348 CURVE",
"164 333 LINE",
"164 318 LINE",
"159 313 LINE",
"154 313 OFFCURVE",
"144 308 OFFCURVE",
"144 308 CURVE SMOOTH",
"95 308 LINE"
);
}
);
width = 260;
}
);
note = semicolon;
unicode = 003B;
},
{
glyphname = less;
layers = (
{
layerId = "4FCC7E5A-ABB0-4C53-A7CD-8FBAF99C528D";
name = Regular;
paths = (
{
closed = 1;
nodes = (
"133 110 LINE SMOOTH",
"143 105 OFFCURVE",
"203 85 OFFCURVE",
"213 80 CURVE",
"218 80 OFFCURVE",
"238 70 OFFCURVE",
"238 70 CURVE",
"243 65 LINE SMOOTH",
"248 60 OFFCURVE",
"283 50 OFFCURVE",
"288 45 CURVE",
"298 50 LINE",
"323 55 LINE",
"323 55 OFFCURVE",
"328 65 OFFCURVE",
"328 70 CURVE SMOOTH",
"328 100 LINE SMOOTH",
"328 110 OFFCURVE",
"333 150 OFFCURVE",
"333 155 CURVE",
"338 176 LINE",
"338 191 LINE",
"328 201 LINE",
"323 201 OFFCURVE",
"313 211 OFFCURVE",
"308 211 CURVE SMOOTH",
"303 211 OFFCURVE",
"278 221 OFFCURVE",
"273 221 CURVE",
"263 226 LINE",
"248 236 LINE",
"243 236 OFFCURVE",
"213 256 OFFCURVE",
"208 256 CURVE SMOOTH",
"203 256 OFFCURVE",
"193 266 OFFCURVE",
"193 266 CURVE",
"193 271 LINE",
"198 276 LINE",
"223 296 LINE",
"228 301 LINE SMOOTH",
"233 306 OFFCURVE",
"273 321 OFFCURVE",
"278 326 CURVE",
"283 326 OFFCURVE",
"298 341 OFFCURVE",
"303 341 CURVE",
"313 346 LINE",
"328 361 LINE",
"328 366 OFFCURVE",
"343 386 OFFCURVE",
"343 391 CURVE SMOOTH",
"343 396 OFFCURVE",
"358 411 OFFCURVE",
"358 416 CURVE SMOOTH",
"358 421 OFFCURVE",
"363 431 OFFCURVE",
"363 431 CURVE",
"363 437 OFFCURVE",
"358 452 OFFCURVE",
"358 457 CURVE SMOOTH",
"358 467 OFFCURVE",
"353 532 OFFCURVE",
"353 542 CURVE SMOOTH",
"353 547 OFFCURVE",
"348 557 OFFCURVE",
"348 557 CURVE SMOOTH",
"348 557 OFFCURVE",
"343 562 OFFCURVE",
"338 562 CURVE SMOOTH",
"333 562 LINE SMOOTH",
"328 562 OFFCURVE",
"313 542 OFFCURVE",
"308 542 CURVE SMOOTH",
"303 542 OFFCURVE",
"283 522 OFFCURVE",
"278 522 CURVE",
"273 517 OFFCURVE",
"248 497 OFFCURVE",
"243 492 CURVE",
"228 487 LINE",
"208 472 LINE",
"188 462 LINE",
"183 457 LINE",
"183 457 OFFCURVE",
"173 447 OFFCURVE",
"168 447 CURVE",
"158 442 LINE",
"148 431 OFFCURVE",
"103 406 OFFCURVE",
"98 401 CURVE SMOOTH",
"88 391 LINE",
"83 376 LINE",
"83 371 OFFCURVE",
"58 331 OFFCURVE",
"58 326 CURVE",
"58 326 OFFCURVE",
"53 286 OFFCURVE",
"53 271 CURVE SMOOTH",
"53 251 LINE SMOOTH",
"53 246 OFFCURVE",
"48 201 OFFCURVE",
"48 196 CURVE SMOOTH",
"48 191 OFFCURVE",
"53 155 OFFCURVE",
"53 150 CURVE"
);
},
{
closed = 1;
nodes = (
"303 447 LINE",
"303 406 LINE SMOOTH",
"303 401 OFFCURVE",
"298 381 OFFCURVE",
"298 381 CURVE",
"298 376 OFFCURVE",
"273 361 OFFCURVE",
"268 361 CURVE SMOOTH",
"263 361 OFFCURVE",
"253 346 OFFCURVE",
"248 346 CURVE",
"243 341 LINE",
"223 331 LINE",
"218 326 OFFCURVE",
"198 316 OFFCURVE",
"198 316 CURVE",
"188 306 LINE",
"178 301 LINE",
"173 296 OFFCURVE",
"153 286 OFFCURVE",
"153 286 CURVE SMOOTH",
"148 286 OFFCURVE",
"138 276 OFFCURVE",
"133 271 CURVE",
"128 271 OFFCURVE",
"123 261 OFFCURVE",
"123 261 CURVE",
"123 246 LINE SMOOTH",
"123 241 OFFCURVE",
"133 231 OFFCURVE",
"133 226 CURVE",
"138 221 OFFCURVE",
"173 211 OFFCURVE",
"178 206 CURVE",
"183 206 OFFCURVE",
"208 186 OFFCURVE",
"213 186 CURVE",
"273 155 LINE",
"288 150 LINE",
"293 150 OFFCURVE",
"298 145 OFFCURVE",
"298 145 CURVE",
"298 90 LINE",
"293 90 OFFCURVE",
"263 100 OFFCURVE",
"258 100 CURVE",
"243 105 LINE",
"233 110 OFFCURVE",
"128 150 OFFCURVE",
"118 155 CURVE",
"103 160 LINE",
"93 165 LINE",
"88 165 OFFCURVE",
"83 176 OFFCURVE",
"83 176 CURVE",
"83 301 LINE",
"83 301 OFFCURVE",
"103 321 OFFCURVE",
"113 326 CURVE",
"118 331 OFFCURVE",
"143 346 OFFCURVE",
"148 351 CURVE",
"158 356 LINE",
"163 361 LINE",
"178 371 LINE",
"183 376 LINE",
"198 386 LINE",
"203 391 LINE",
"218 401 LINE",
"228 411 LINE",
"253 421 LINE",
"253 421 OFFCURVE",
"263 431 OFFCURVE",
"268 431 CURVE",
"273 437 LINE",
"283 442 LINE",
"288 447 LINE"
);
}
);
width = 413;
}
);
note = less;
unicode = 003C;
},
{
glyphname = equal;
layers = (
{
layerId = "4FCC7E5A-ABB0-4C53-A7CD-8FBAF99C528D";
name = Regular;
paths = (
{
closed = 1;
nodes = (
"39 417 LINE",
"39 402 LINE SMOOTH",
"39 397 OFFCURVE",
"44 377 OFFCURVE",
"44 372 CURVE SMOOTH",
"44 367 OFFCURVE",
"49 337 OFFCURVE",
"49 332 CURVE SMOOTH",
"49 322 LINE SMOOTH",
"49 317 OFFCURVE",
"64 307 OFFCURVE",
"64 307 CURVE SMOOTH",
"64 307 OFFCURVE",
"89 302 OFFCURVE",
"99 302 CURVE SMOOTH",
"109 302 LINE SMOOTH",
"115 302 OFFCURVE",
"140 312 OFFCURVE",
"145 312 CURVE",
"417 327 LINE",
"417 327 OFFCURVE",
"427 332 OFFCURVE",
"427 337 CURVE",
"427 337 OFFCURVE",
"437 347 OFFCURVE",
"437 352 CURVE",
"442 362 LINE",
"442 367 OFFCURVE",
"457 382 OFFCURVE",
"457 387 CURVE",
"462 397 LINE",
"462 412 LINE SMOOTH",
"462 422 OFFCURVE",
"457 457 OFFCURVE",
"457 462 CURVE",
"452 472 LINE",
"447 487 LINE",
"442 492 LINE",
"437 492 OFFCURVE",
"422 497 OFFCURVE",
"417 497 CURVE SMOOTH",
"296 497 LINE SMOOTH",
"291 497 OFFCURVE",
"205 492 OFFCURVE",
"175 487 CURVE",
"170 487 OFFCURVE",
"145 482 OFFCURVE",
"135 482 CURVE SMOOTH",
"125 482 OFFCURVE",
"99 477 OFFCURVE",
"99 477 CURVE"
);
},
{
closed = 1;
nodes = (
"59 227 LINE",
"59 152 LINE",
"64 132 LINE",
"69 107 LINE",
"74 102 LINE",
"94 102 LINE",
"99 112 LINE",
"175 112 LINE SMOOTH",
"195 112 OFFCURVE",
"276 117 OFFCURVE",
"291 117 CURVE SMOOTH",
"296 117 OFFCURVE",
"331 122 OFFCURVE",
"336 122 CURVE SMOOTH",
"341 122 OFFCURVE",
"381 132 OFFCURVE",
"386 132 CURVE SMOOTH",
"391 132 OFFCURVE",
"412 137 OFFCURVE",
"417 137 CURVE SMOOTH",
"422 137 OFFCURVE",
"432 142 OFFCURVE",
"432 142 CURVE",
"437 147 LINE",
"442 162 LINE",
"457 172 LINE",
"462 182 LINE",
"462 187 OFFCURVE",
"467 197 OFFCURVE",
"467 197 CURVE",
"467 202 OFFCURVE",
"472 222 OFFCURVE",
"472 227 CURVE",
"477 227 LINE",
"477 232 LINE SMOOTH",
"477 237 OFFCURVE",
"472 252 OFFCURVE",
"472 252 CURVE",
"472 257 OFFCURVE",
"462 267 OFFCURVE",
"462 272 CURVE",
"457 277 LINE",
"447 277 OFFCURVE",
"401 282 OFFCURVE",
"391 282 CURVE SMOOTH",
"381 282 LINE SMOOTH",
"376 282 OFFCURVE",
"311 287 OFFCURVE",
"306 287 CURVE SMOOTH",
"276 287 LINE SMOOTH",
"266 287 OFFCURVE",
"220 282 OFFCURVE",
"210 282 CURVE SMOOTH",
"195 282 OFFCURVE",
"140 272 OFFCURVE",
"125 272 CURVE",
"120 267 OFFCURVE",
"94 257 OFFCURVE",
"89 252 CURVE",
"74 242 LINE",
"64 237 LINE"
);
},
{
closed = 1;
nodes = (
"94 192 LINE",
"99 192 OFFCURVE",
"130 197 OFFCURVE",
"135 197 CURVE",
"135 197 OFFCURVE",
"155 202 OFFCURVE",
"160 202 CURVE",
"180 207 LINE",
"195 212 OFFCURVE",
"240 217 OFFCURVE",
"245 217 CURVE SMOOTH",
"326 217 LINE SMOOTH",
"336 217 OFFCURVE",
"371 212 OFFCURVE",
"381 212 CURVE",
"396 207 LINE",
"396 182 LINE",
"396 182 OFFCURVE",
"391 172 OFFCURVE",
"386 172 CURVE",
"376 167 LINE SMOOTH",
"366 162 OFFCURVE",
"341 157 OFFCURVE",
"336 157 CURVE SMOOTH",
"331 157 OFFCURVE",
"250 147 OFFCURVE",
"225 147 CURVE SMOOTH",
"215 147 OFFCURVE",
"160 142 OFFCURVE",
"150 142 CURVE SMOOTH",
"125 142 LINE SMOOTH",
"125 142 OFFCURVE",
"115 147 OFFCURVE",
"109 147 CURVE SMOOTH",
"104 147 OFFCURVE",
"99 152 OFFCURVE",
"99 152 CURVE SMOOTH",
"99 152 OFFCURVE",
"94 172 OFFCURVE",
"94 177 CURVE SMOOTH"
);
},
{
closed = 1;
nodes = (
"84 382 LINE",
"89 387 LINE",
"94 397 LINE",
"115 397 LINE SMOOTH",
"120 397 OFFCURVE",
"165 402 OFFCURVE",
"170 402 CURVE SMOOTH",
"175 402 LINE SMOOTH",
"195 402 OFFCURVE",
"250 407 OFFCURVE",
"255 407 CURVE SMOOTH",
"261 407 OFFCURVE",
"301 412 OFFCURVE",
"306 412 CURVE SMOOTH",
"371 412 LINE",
"376 402 LINE",
"376 402 OFFCURVE",
"381 377 OFFCURVE",
"381 367 CURVE SMOOTH",
"381 362 LINE",
"371 357 LINE",
"336 352 OFFCURVE",
"160 342 OFFCURVE",
"125 342 CURVE SMOOTH",
"89 342 LINE"
);
}
);
width = 506;
}
);
note = equal;
unicode = 003D;
},
{
glyphname = greater;
layers = (
{
layerId = "4FCC7E5A-ABB0-4C53-A7CD-8FBAF99C528D";
name = Regular;
paths = (
{
closed = 1;
nodes = (
"66 65 LINE",
"71 50 LINE",
"76 45 LINE",
"91 45 LINE",
"105 50 LINE",
"110 55 LINE",
"135 70 LINE",
"135 70 OFFCURVE",
"150 80 OFFCURVE",
"155 85 CURVE SMOOTH",
"160 90 OFFCURVE",
"175 105 OFFCURVE",
"180 105 CURVE",
"185 110 LINE",
"195 115 LINE",
"200 115 OFFCURVE",
"215 140 OFFCURVE",
"219 140 CURVE SMOOTH",
"224 140 OFFCURVE",
"244 160 OFFCURVE",
"249 160 CURVE",
"264 175 LINE",
"279 180 LINE",
"284 190 LINE",
"289 190 LINE",
"294 195 OFFCURVE",
"319 210 OFFCURVE",
"324 215 CURVE SMOOTH",
"329 220 LINE",
"333 230 LINE",
"348 235 LINE",
"348 235 OFFCURVE",
"358 255 OFFCURVE",
"363 260 CURVE SMOOTH",
"368 265 OFFCURVE",
"383 300 OFFCURVE",
"388 310 CURVE",
"388 315 LINE",
"383 325 LINE",
"383 335 OFFCURVE",
"378 395 OFFCURVE",
"378 405 CURVE SMOOTH",
"378 410 OFFCURVE",
"373 430 OFFCURVE",
"373 430 CURVE",
"348 440 LINE",
"338 445 LINE",
"333 445 OFFCURVE",
"314 455 OFFCURVE",
"309 455 CURVE SMOOTH",
"304 455 OFFCURVE",
"269 475 OFFCURVE",
"259 480 CURVE",
"244 485 OFFCURVE",
"200 510 OFFCURVE",
"195 515 CURVE",
"190 515 OFFCURVE",
"170 535 OFFCURVE",
"165 535 CURVE",
"150 540 LINE",
"96 540 LINE SMOOTH",
"91 540 OFFCURVE",
"76 535 OFFCURVE",
"71 535 CURVE",
"61 525 LINE",
"61 525 OFFCURVE",
"56 515 OFFCURVE",
"56 510 CURVE SMOOTH",
"56 505 OFFCURVE",
"51 485 OFFCURVE",
"51 485 CURVE",
"51 370 LINE",
"56 365 OFFCURVE",
"61 360 OFFCURVE",
"66 360 CURVE",
"66 360 OFFCURVE",
"81 355 OFFCURVE",
"86 355 CURVE SMOOTH",
"91 355 OFFCURVE",
"105 350 OFFCURVE",
"110 350 CURVE SMOOTH",
"115 350 OFFCURVE",
"135 345 OFFCURVE",
"140 345 CURVE SMOOTH",
"145 345 OFFCURVE",
"165 335 OFFCURVE",
"170 335 CURVE SMOOTH",
"175 335 OFFCURVE",
"185 325 OFFCURVE",
"190 325 CURVE",
"185 320 LINE",
"175 315 LINE",
"160 305 LINE",
"155 300 OFFCURVE",
"130 290 OFFCURVE",
"125 285 CURVE",
"105 275 LINE",
"101 270 LINE",
"101 270 OFFCURVE",
"91 255 OFFCURVE",
"86 250 CURVE",
"86 245 OFFCURVE",
"76 235 OFFCURVE",
"76 235 CURVE",
"71 225 LINE",
"71 220 OFFCURVE",
"66 200 OFFCURVE",
"66 195 CURVE SMOOTH"
);
},
{
closed = 1;
nodes = (
"249 335 LINE",
"239 345 LINE",
"224 350 LINE",
"200 360 LINE",
"185 365 OFFCURVE",
"145 380 OFFCURVE",
"145 380 CURVE SMOOTH",
"140 380 OFFCURVE",
"105 390 OFFCURVE",
"96 390 CURVE",
"91 395 LINE",
"91 400 OFFCURVE",
"86 410 OFFCURVE",
"86 410 CURVE",
"86 440 LINE SMOOTH",
"86 450 OFFCURVE",
"91 480 OFFCURVE",
"91 480 CURVE",
"101 480 LINE",
"115 470 OFFCURVE",
"195 435 OFFCURVE",
"210 425 CURVE",
"215 425 OFFCURVE",
"229 415 OFFCURVE",
"234 415 CURVE",
"254 410 LINE",
"264 405 LINE",
"269 405 OFFCURVE",
"294 390 OFFCURVE",
"299 390 CURVE",
"309 385 LINE",
"309 355 LINE SMOOTH",
"309 350 OFFCURVE",
"304 305 OFFCURVE",
"304 300 CURVE SMOOTH",
"304 285 LINE SMOOTH",
"304 275 OFFCURVE",
"299 250 OFFCURVE",
"299 245 CURVE",
"294 235 LINE",
"289 230 LINE",
"274 220 LINE",
"269 215 OFFCURVE",
"239 195 OFFCURVE",
"234 190 CURVE",
"229 190 OFFCURVE",
"210 170 OFFCURVE",
"205 170 CURVE",
"200 165 OFFCURVE",
"150 125 OFFCURVE",
"145 120 CURVE",
"135 115 LINE",
"135 115 OFFCURVE",
"120 105 OFFCURVE",
"115 100 CURVE SMOOTH",
"110 95 LINE",
"105 95 LINE",
"105 160 LINE SMOOTH",
"105 165 OFFCURVE",
"110 185 OFFCURVE",
"110 190 CURVE",
"110 190 OFFCURVE",
"115 200 OFFCURVE",
"120 200 CURVE",
"135 210 LINE",
"140 215 LINE SMOOTH",
"145 220 OFFCURVE",
"180 245 OFFCURVE",
"185 250 CURVE SMOOTH",
"190 255 LINE",
"224 285 LINE",
"239 300 LINE",
"239 305 OFFCURVE",
"249 315 OFFCURVE",
"249 320 CURVE SMOOTH"
);
},
{
closed = 1;
nodes = (
"229 245 LINE",
"229 240 LINE",
"239 240 LINE",
"239 245 LINE"
);
}
);
width = 441;
}
);
note = greater;
unicode = 003E;
},
{
glyphname = question;
layers = (
{
layerId = "4FCC7E5A-ABB0-4C53-A7CD-8FBAF99C528D";
name = Regular;
paths = (
{
closed = 1;
nodes = (
"134 175 LINE SMOOTH",
"134 170 OFFCURVE",
"139 155 OFFCURVE",
"139 150 CURVE",
"144 145 LINE",
"169 145 LINE SMOOTH",
"184 145 OFFCURVE",
"229 150 OFFCURVE",
"234 150 CURVE",
"234 150 OFFCURVE",
"249 155 OFFCURVE",
"254 155 CURVE",
"264 160 LINE",
"264 165 OFFCURVE",
"284 185 OFFCURVE",
"284 190 CURVE",
"289 195 LINE",
"289 205 OFFCURVE",
"294 240 OFFCURVE",
"299 245 CURVE",
"299 250 OFFCURVE",
"325 310 OFFCURVE",
"335 325 CURVE",
"335 330 OFFCURVE",
"350 345 OFFCURVE",
"350 350 CURVE",
"355 360 LINE",
"355 365 OFFCURVE",
"370 380 OFFCURVE",
"370 385 CURVE SMOOTH",
"370 390 OFFCURVE",
"380 400 OFFCURVE",
"380 405 CURVE SMOOTH",
"380 410 OFFCURVE",
"390 425 OFFCURVE",
"390 430 CURVE SMOOTH",
"390 435 OFFCURVE",
"395 445 OFFCURVE",
"395 445 CURVE",
"395 450 OFFCURVE",
"400 481 OFFCURVE",
"400 486 CURVE SMOOTH",
"400 506 LINE SMOOTH",
"400 511 OFFCURVE",
"390 536 OFFCURVE",
"390 541 CURVE",
"385 551 LINE",
"370 566 LINE SMOOTH",
"365 571 OFFCURVE",
"345 596 OFFCURVE",
"340 601 CURVE SMOOTH",
"335 606 OFFCURVE",
"320 616 OFFCURVE",
"315 616 CURVE SMOOTH",
"310 616 OFFCURVE",
"279 626 OFFCURVE",
"269 626 CURVE SMOOTH",
"239 626 LINE SMOOTH",
"229 626 OFFCURVE",
"189 616 OFFCURVE",
"184 616 CURVE",
"164 606 LINE",
"159 606 OFFCURVE",
"134 591 OFFCURVE",
"129 591 CURVE",
"119 586 LINE",
"103 576 OFFCURVE",
"93 566 OFFCURVE",
"78 556 CURVE",
"73 551 LINE SMOOTH",
"68 546 OFFCURVE",
"53 526 OFFCURVE",
"53 526 CURVE SMOOTH",
"53 526 OFFCURVE",
"48 506 OFFCURVE",
"43 501 CURVE",
"43 496 OFFCURVE",
"38 486 OFFCURVE",
"38 486 CURVE",
"33 476 OFFCURVE",
"28 445 OFFCURVE",
"28 445 CURVE",
"28 360 LINE SMOOTH",
"28 355 OFFCURVE",
"33 345 OFFCURVE",
"33 345 CURVE SMOOTH",
"33 345 OFFCURVE",
"48 340 OFFCURVE",
"53 340 CURVE",
"63 345 LINE",
"68 345 OFFCURVE",
"83 350 OFFCURVE",
"88 350 CURVE SMOOTH",
"98 350 OFFCURVE",
"139 355 OFFCURVE",
"149 355 CURVE",
"154 360 LINE",
"154 360 OFFCURVE",
"164 380 OFFCURVE",
"164 385 CURVE SMOOTH",
"164 390 OFFCURVE",
"174 410 OFFCURVE",
"174 415 CURVE SMOOTH",
"174 420 OFFCURVE",
"184 455 OFFCURVE",
"184 460 CURVE SMOOTH",
"184 466 OFFCURVE",
"189 476 OFFCURVE",
"189 476 CURVE SMOOTH",
"189 476 OFFCURVE",
"199 486 OFFCURVE",
"199 491 CURVE",
"204 496 LINE",
"229 496 LINE",
"234 491 LINE",
"234 466 LINE SMOOTH",
"234 460 OFFCURVE",
"229 445 OFFCURVE",
"229 440 CURVE SMOOTH",
"229 435 OFFCURVE",
"219 415 OFFCURVE",
"219 410 CURVE",
"219 410 OFFCURVE",
"209 390 OFFCURVE",
"204 385 CURVE",
"189 365 LINE",
"184 360 OFFCURVE",
"174 345 OFFCURVE",
"174 340 CURVE",
"164 315 LINE",
"164 310 OFFCURVE",
"149 290 OFFCURVE",
"149 285 CURVE",
"149 285 OFFCURVE",
"144 275 OFFCURVE",
"144 270 CURVE",
"139 260 OFFCURVE",
"134 230 OFFCURVE",
"134 230 CURVE"
);
},
{
closed = 1;
nodes = (
"269 496 LINE",
"269 496 OFFCURVE",
"259 506 OFFCURVE",
"259 511 CURVE",
"249 521 LINE",
"249 521 OFFCURVE",
"239 526 OFFCURVE",
"234 526 CURVE SMOOTH",
"229 526 OFFCURVE",
"214 531 OFFCURVE",
"214 531 CURVE SMOOTH",
"189 531 LINE SMOOTH",
"189 531 OFFCURVE",
"179 526 OFFCURVE",
"174 526 CURVE SMOOTH",
"169 526 OFFCURVE",
"159 516 OFFCURVE",
"159 516 CURVE",
"124 481 LINE",
"119 471 LINE",
"119 466 OFFCURVE",
"113 450 OFFCURVE",
"113 445 CURVE SMOOTH",
"113 380 LINE",
"108 380 OFFCURVE",
"98 375 OFFCURVE",
"93 375 CURVE SMOOTH",
"63 375 LINE",
"58 380 LINE",
"58 430 LINE",
"58 430 OFFCURVE",
"63 450 OFFCURVE",
"63 455 CURVE",
"63 455 OFFCURVE",
"68 466 OFFCURVE",
"68 471 CURVE SMOOTH",
"68 476 OFFCURVE",
"78 491 OFFCURVE",
"78 496 CURVE SMOOTH",
"78 501 OFFCURVE",
"88 516 OFFCURVE",
"88 516 CURVE",
"93 521 OFFCURVE",
"113 541 OFFCURVE",
"119 546 CURVE",
"119 546 OFFCURVE",
"129 556 OFFCURVE",
"134 556 CURVE",
"144 561 LINE",
"149 561 OFFCURVE",
"169 571 OFFCURVE",
"174 571 CURVE SMOOTH",
"179 571 OFFCURVE",
"194 576 OFFCURVE",
"194 576 CURVE",
"229 576 LINE SMOOTH",
"234 576 OFFCURVE",
"264 566 OFFCURVE",
"269 566 CURVE",
"269 566 OFFCURVE",
"279 561 OFFCURVE",
"284 556 CURVE",
"304 541 LINE",
"320 531 LINE",
"325 531 OFFCURVE",
"335 516 OFFCURVE",
"335 511 CURVE",
"335 511 OFFCURVE",
"340 501 OFFCURVE",
"340 496 CURVE SMOOTH",
"340 476 LINE SMOOTH",
"340 471 OFFCURVE",
"335 455 OFFCURVE",
"335 450 CURVE SMOOTH",
"335 445 OFFCURVE",
"325 425 OFFCURVE",
"325 425 CURVE",
"320 410 LINE",
"289 350 LINE",
"284 345 LINE",
"279 335 LINE",
"269 320 LINE",
"264 310 LINE",
"259 305 LINE SMOOTH",
"254 300 OFFCURVE",
"244 270 OFFCURVE",
"239 265 CURVE",
"239 260 OFFCURVE",
"229 240 OFFCURVE",
"229 240 CURVE",
"229 235 OFFCURVE",
"224 210 OFFCURVE",
"224 205 CURVE",
"219 190 LINE",
"214 185 LINE",
"209 185 OFFCURVE",
"189 180 OFFCURVE",
"184 180 CURVE SMOOTH",
"164 180 LINE",
"164 235 LINE",
"169 250 LINE",
"174 270 LINE",
"184 290 LINE",
"189 310 LINE",
"194 315 LINE",
"204 330 LINE",
"209 335 LINE SMOOTH",
"214 340 OFFCURVE",
"229 380 OFFCURVE",
"234 385 CURVE SMOOTH",
"239 390 LINE",
"244 400 LINE",
"254 415 LINE",
"254 420 OFFCURVE",
"264 440 OFFCURVE",
"264 445 CURVE SMOOTH",
"264 450 OFFCURVE",
"269 476 OFFCURVE",
"269 486 CURVE SMOOTH"
);
},
{
closed = 1;
nodes = (
"149 -26 LINE",
"174 -26 LINE SMOOTH",
"179 -26 OFFCURVE",
"199 -21 OFFCURVE",
"199 -21 CURVE",
"204 -21 OFFCURVE",
"234 -16 OFFCURVE",
"239 -16 CURVE SMOOTH",
"244 -16 OFFCURVE",
"254 -11 OFFCURVE",
"259 -11 CURVE",
"264 -6 OFFCURVE",
"279 24 OFFCURVE",
"279 29 CURVE SMOOTH",
"279 74 LINE SMOOTH",
"279 79 OFFCURVE",
"269 114 OFFCURVE",
"269 119 CURVE",
"259 129 LINE",
"244 134 LINE",
"204 134 LINE SMOOTH",
"199 134 OFFCURVE",
"169 129 OFFCURVE",
"164 129 CURVE",
"159 124 LINE SMOOTH",
"154 119 OFFCURVE",
"144 104 OFFCURVE",
"144 104 CURVE",
"144 99 OFFCURVE",
"129 79 OFFCURVE",
"129 74 CURVE SMOOTH",
"129 69 LINE",
"134 54 LINE",
"134 44 OFFCURVE",
"139 -6 OFFCURVE",
"139 -16 CURVE"
);
},
{
closed = 1;
nodes = (
"159 64 LINE",
"164 64 OFFCURVE",
"174 69 OFFCURVE",
"179 69 CURVE SMOOTH",
"214 69 LINE",
"219 59 LINE",
"219 54 OFFCURVE",
"224 34 OFFCURVE",
"224 29 CURVE SMOOTH",
"224 19 LINE",
"214 14 LINE",
"209 14 OFFCURVE",
"189 9 OFFCURVE",
"184 9 CURVE SMOOTH",
"164 9 LINE",
"164 14 OFFCURVE",
"159 29 OFFCURVE",
"159 34 CURVE SMOOTH"
);
}
);
width = 430;
}
);
note = question;
unicode = 003F;
},
{
glyphname = at;
layers = (
{
layerId = "4FCC7E5A-ABB0-4C53-A7CD-8FBAF99C528D";
name = Regular;
paths = (
{
closed = 1;
nodes = (
"25 65 LINE SMOOTH",
"25 60 OFFCURVE",
"30 25 OFFCURVE",
"30 20 CURVE",
"30 20 OFFCURVE",
"35 10 OFFCURVE",
"35 5 CURVE",
"40 -5 OFFCURVE",
"55 -30 OFFCURVE",
"55 -35 CURVE",
"55 -35 OFFCURVE",
"70 -55 OFFCURVE",
"75 -60 CURVE SMOOTH",
"85 -70 OFFCURVE",
"110 -100 OFFCURVE",
"110 -100 CURVE SMOOTH",
"110 -100 OFFCURVE",
"130 -115 OFFCURVE",
"140 -120 CURVE SMOOTH",
"150 -125 LINE",
"165 -130 LINE",
"185 -140 LINE",
"210 -150 LINE",
"224 -160 LINE",
"229 -160 OFFCURVE",
"239 -165 OFFCURVE",
"244 -165 CURVE SMOOTH",
"279 -165 LINE",
"299 -160 LINE",
"324 -155 LINE",
"339 -150 LINE",
"344 -150 OFFCURVE",
"359 -145 OFFCURVE",
"359 -145 CURVE",
"379 -145 LINE SMOOTH",
"384 -145 OFFCURVE",
"404 -125 OFFCURVE",
"409 -125 CURVE",
"424 -120 LINE",
"434 -115 LINE SMOOTH",
"444 -110 OFFCURVE",
"464 -90 OFFCURVE",
"469 -90 CURVE",
"504 -55 LINE",
"514 -40 LINE",
"514 -35 OFFCURVE",
"529 -25 OFFCURVE",
"529 -25 CURVE",
"539 -20 LINE",
"539 -20 OFFCURVE",
"549 5 OFFCURVE",
"549 10 CURVE SMOOTH",
"549 15 LINE SMOOTH",
"549 25 OFFCURVE",
"544 35 OFFCURVE",
"534 40 CURVE",
"519 50 LINE",
"519 55 LINE",
"524 60 LINE",
"549 65 LINE",
"569 70 LINE",
"574 70 OFFCURVE",
"613 80 OFFCURVE",
"618 80 CURVE",
"633 85 OFFCURVE",
"648 90 OFFCURVE",
"658 100 CURVE SMOOTH",
"663 105 OFFCURVE",
"683 120 OFFCURVE",
"683 120 CURVE",
"713 150 LINE",
"713 150 OFFCURVE",
"723 160 OFFCURVE",
"723 165 CURVE",
"728 175 LINE",
"733 180 LINE",
"733 180 OFFCURVE",
"743 200 OFFCURVE",
"748 205 CURVE",
"753 215 LINE",
"763 230 LINE",
"763 235 OFFCURVE",
"773 255 OFFCURVE",
"773 260 CURVE",
"778 270 LINE",
"788 300 OFFCURVE",
"793 325 OFFCURVE",
"798 355 CURVE",
"798 370 LINE SMOOTH",
"798 375 OFFCURVE",
"793 405 OFFCURVE",
"793 410 CURVE",
"793 410 OFFCURVE",
"788 430 OFFCURVE",
"788 435 CURVE SMOOTH",
"788 440 OFFCURVE",
"783 455 OFFCURVE",
"783 455 CURVE",
"778 465 LINE",
"778 470 OFFCURVE",
"763 495 OFFCURVE",
"763 500 CURVE SMOOTH",
"763 505 OFFCURVE",
"753 520 OFFCURVE",
"753 520 CURVE",
"748 525 OFFCURVE",
"728 550 OFFCURVE",
"718 560 CURVE SMOOTH",
"693 585 OFFCURVE",
"668 610 OFFCURVE",
"633 625 CURVE",
"618 630 LINE",
"618 630 OFFCURVE",
"599 640 OFFCURVE",
"594 640 CURVE SMOOTH",
"589 640 OFFCURVE",
"559 645 OFFCURVE",
"554 645 CURVE SMOOTH",
"449 645 LINE SMOOTH",
"444 645 OFFCURVE",
"389 635 OFFCURVE",
"374 630 CURVE",
"369 630 OFFCURVE",
"334 615 OFFCURVE",
"329 615 CURVE",
"309 610 LINE",
"299 605 LINE",
"294 605 OFFCURVE",
"284 595 OFFCURVE",
"284 595 CURVE",
"274 580 LINE",
"269 575 LINE",
"254 565 LINE",
"249 560 OFFCURVE",
"219 530 OFFCURVE",
"215 525 CURVE",
"210 515 OFFCURVE",
"185 490 OFFCURVE",
"180 485 CURVE SMOOTH",
"175 480 OFFCURVE",
"155 445 OFFCURVE",
"150 440 CURVE",
"135 420 LINE",
"135 415 OFFCURVE",
"125 405 OFFCURVE",
"125 405 CURVE",
"120 390 OFFCURVE",
"95 345 OFFCURVE",
"90 335 CURVE",
"90 330 OFFCURVE",
"80 310 OFFCURVE",
"80 305 CURVE",
"75 300 LINE",
"70 290 LINE",
"65 275 OFFCURVE",
"50 235 OFFCURVE",
"50 230 CURVE SMOOTH",
"50 225 OFFCURVE",
"45 200 OFFCURVE",
"45 195 CURVE",
"40 180 LINE",
"40 170 OFFCURVE",
"30 145 OFFCURVE",
"30 140 CURVE SMOOTH",
"30 135 OFFCURVE",
"25 105 OFFCURVE",
"25 95 CURVE SMOOTH"
);
},
{
closed = 1;
nodes = (
"60 105 LINE SMOOTH",
"60 110 OFFCURVE",
"65 150 OFFCURVE",
"70 165 CURVE",
"70 170 OFFCURVE",
"80 200 OFFCURVE",
"80 205 CURVE SMOOTH",
"80 210 OFFCURVE",
"90 230 OFFCURVE",
"90 235 CURVE SMOOTH",
"90 240 OFFCURVE",
"100 260 OFFCURVE",
"100 260 CURVE",
"100 265 OFFCURVE",
"115 295 OFFCURVE",
"115 300 CURVE SMOOTH",
"115 305 OFFCURVE",
"130 325 OFFCURVE",
"130 330 CURVE",
"140 355 LINE",
"140 360 OFFCURVE",
"155 375 OFFCURVE",
"155 380 CURVE",
"160 390 LINE",
"160 395 OFFCURVE",
"180 410 OFFCURVE",
"180 415 CURVE SMOOTH",
"180 420 OFFCURVE",
"200 440 OFFCURVE",
"200 445 CURVE",
"205 450 LINE",
"210 465 LINE",
"210 470 OFFCURVE",
"215 475 OFFCURVE",
"215 475 CURVE",
"219 480 OFFCURVE",
"249 505 OFFCURVE",
"254 510 CURVE",
"259 510 OFFCURVE",
"274 535 OFFCURVE",
"279 535 CURVE",
"284 540 OFFCURVE",
"309 560 OFFCURVE",
"314 560 CURVE",
"314 560 OFFCURVE",
"344 570 OFFCURVE",
"354 575 CURVE",
"359 575 OFFCURVE",
"369 580 OFFCURVE",
"369 580 CURVE",
"374 580 LINE SMOOTH",
"379 580 OFFCURVE",
"414 585 OFFCURVE",
"419 585 CURVE SMOOTH",
"434 585 LINE SMOOTH",
"444 585 OFFCURVE",
"519 595 OFFCURVE",
"529 595 CURVE SMOOTH",
"569 595 LINE",
"569 595 OFFCURVE",
"604 585 OFFCURVE",
"613 580 CURVE",
"623 575 LINE",
"628 575 OFFCURVE",
"638 565 OFFCURVE",
"638 565 CURVE",
"668 535 LINE SMOOTH",
"673 530 OFFCURVE",
"688 515 OFFCURVE",
"688 510 CURVE",
"688 510 OFFCURVE",
"698 490 OFFCURVE",
"698 485 CURVE SMOOTH",
"698 480 OFFCURVE",
"708 450 OFFCURVE",
"708 445 CURVE",
"713 430 LINE",
"713 385 LINE SMOOTH",
"713 380 OFFCURVE",
"708 355 OFFCURVE",
"708 350 CURVE SMOOTH",
"708 345 OFFCURVE",
"693 305 OFFCURVE",
"688 290 CURVE",
"688 285 OFFCURVE",
"678 265 OFFCURVE",
"678 265 CURVE",
"673 250 LINE",
"673 245 OFFCURVE",
"658 220 OFFCURVE",
"658 215 CURVE SMOOTH",
"658 210 OFFCURVE",
"643 190 OFFCURVE",
"643 185 CURVE SMOOTH",
"643 180 OFFCURVE",
"633 170 OFFCURVE",
"633 170 CURVE",
"628 165 OFFCURVE",
"608 140 OFFCURVE",
"599 130 CURVE",
"599 125 OFFCURVE",
"589 120 OFFCURVE",
"589 120 CURVE SMOOTH",
"584 120 OFFCURVE",
"559 110 OFFCURVE",
"554 105 CURVE",
"549 105 OFFCURVE",
"539 100 OFFCURVE",
"534 100 CURVE SMOOTH",
"499 100 LINE SMOOTH",
"499 100 OFFCURVE",
"484 105 OFFCURVE",
"479 105 CURVE",
"469 110 LINE",
"454 125 LINE",
"454 125 OFFCURVE",
"449 145 OFFCURVE",
"449 150 CURVE SMOOTH",
"449 155 OFFCURVE",
"444 185 OFFCURVE",
"444 190 CURVE",
"434 200 LINE",
"424 200 LINE",
"414 195 LINE",
"384 170 OFFCURVE",
"359 140 OFFCURVE",
"319 130 CURVE",
"314 130 OFFCURVE",
"299 125 OFFCURVE",
"294 125 CURVE SMOOTH",
"289 125 LINE SMOOTH",
"279 125 OFFCURVE",
"259 130 OFFCURVE",
"259 130 CURVE SMOOTH",
"254 130 OFFCURVE",
"244 140 OFFCURVE",
"239 140 CURVE",
"229 150 LINE",
"229 155 OFFCURVE",
"224 165 OFFCURVE",
"224 170 CURVE SMOOTH",
"224 225 LINE",
"229 240 LINE",
"234 260 LINE",
"239 265 LINE",
"244 280 LINE",
"249 285 LINE SMOOTH",
"254 290 OFFCURVE",
"269 325 OFFCURVE",
"274 330 CURVE SMOOTH",
"279 335 OFFCURVE",
"299 365 OFFCURVE",
"304 370 CURVE SMOOTH",
"319 385 LINE",
"319 385 OFFCURVE",
"354 405 OFFCURVE",
"364 410 CURVE",
"369 410 OFFCURVE",
"374 415 OFFCURVE",
"374 415 CURVE",
"429 415 LINE",
"439 410 LINE SMOOTH",
"449 405 OFFCURVE",
"444 390 OFFCURVE",
"459 390 CURVE SMOOTH",
"469 390 OFFCURVE",
"484 395 OFFCURVE",
"494 395 CURVE SMOOTH",
"499 395 LINE SMOOTH",
"504 395 OFFCURVE",
"519 390 OFFCURVE",
"519 390 CURVE",
"519 370 LINE",
"519 370 OFFCURVE",
"514 345 OFFCURVE",
"509 340 CURVE",
"504 330 LINE",
"504 325 OFFCURVE",
"489 295 OFFCURVE",
"489 290 CURVE",
"484 280 LINE",
"484 275 OFFCURVE",
"474 245 OFFCURVE",
"474 240 CURVE SMOOTH",
"474 235 OFFCURVE",
"469 205 OFFCURVE",
"469 200 CURVE SMOOTH",
"469 180 LINE SMOOTH",
"469 175 OFFCURVE",
"479 165 OFFCURVE",
"479 160 CURVE",
"494 145 LINE",
"499 145 OFFCURVE",
"509 130 OFFCURVE",
"514 130 CURVE",
"524 125 LINE",
"529 125 LINE",
"544 130 OFFCURVE",
"559 140 OFFCURVE",
"574 150 CURVE",
"584 155 LINE",
"613 185 LINE SMOOTH",
"618 190 OFFCURVE",
"638 210 OFFCURVE",
"638 215 CURVE",
"638 215 OFFCURVE",
"648 230 OFFCURVE",
"648 235 CURVE",
"648 235 OFFCURVE",
"653 245 OFFCURVE",
"653 250 CURVE",
"658 260 OFFCURVE",
"668 305 OFFCURVE",
"668 310 CURVE SMOOTH",
"668 315 OFFCURVE",
"673 335 OFFCURVE",
"673 340 CURVE SMOOTH",
"673 395 LINE",
"673 395 OFFCURVE",
"668 415 OFFCURVE",
"668 420 CURVE SMOOTH",
"668 425 OFFCURVE",
"663 435 OFFCURVE",
"663 435 CURVE",
"663 440 OFFCURVE",
"653 460 OFFCURVE",
"648 465 CURVE",
"648 465 OFFCURVE",
"638 475 OFFCURVE",
"638 480 CURVE",
"633 485 OFFCURVE",
"623 500 OFFCURVE",
"623 500 CURVE",
"618 505 OFFCURVE",
"608 520 OFFCURVE",
"604 520 CURVE SMOOTH",
"604 520 OFFCURVE",
"579 535 OFFCURVE",
"574 540 CURVE SMOOTH",
"569 545 OFFCURVE",
"549 555 OFFCURVE",
"549 555 CURVE SMOOTH",
"544 555 OFFCURVE",
"524 565 OFFCURVE",
"519 565 CURVE SMOOTH",
"514 565 OFFCURVE",
"489 570 OFFCURVE",
"484 570 CURVE SMOOTH",
"424 570 LINE SMOOTH",
"424 570 OFFCURVE",
"394 565 OFFCURVE",
"384 560 CURVE",
"369 555 LINE",
"359 550 LINE",
"344 545 LINE",
"329 535 LINE",
"319 530 LINE",
"319 530 OFFCURVE",
"309 520 OFFCURVE",
"304 520 CURVE SMOOTH",
"299 520 OFFCURVE",
"289 505 OFFCURVE",
"284 505 CURVE",
"279 500 LINE",
"274 490 LINE",
"244 460 LINE",
"239 450 LINE",
"234 445 OFFCURVE",
"215 410 OFFCURVE",
"210 405 CURVE SMOOTH",
"205 400 OFFCURVE",
"185 360 OFFCURVE",
"180 345 CURVE",
"175 335 OFFCURVE",
"160 305 OFFCURVE",
"160 300 CURVE",
"155 290 OFFCURVE",
"140 240 OFFCURVE",
"135 225 CURVE",
"130 200 LINE",
"125 180 LINE",
"120 165 OFFCURVE",
"115 125 OFFCURVE",
"115 120 CURVE SMOOTH",
"115 70 LINE",
"115 70 OFFCURVE",
"120 50 OFFCURVE",
"120 45 CURVE SMOOTH",
"120 40 OFFCURVE",
"125 30 OFFCURVE",
"125 30 CURVE",
"130 20 OFFCURVE",
"145 -5 OFFCURVE",
"145 -10 CURVE",
"165 -30 LINE SMOOTH",
"170 -35 OFFCURVE",
"180 -45 OFFCURVE",
"185 -45 CURVE",
"195 -50 OFFCURVE",
"219 -65 OFFCURVE",
"224 -65 CURVE SMOOTH",
"229 -65 OFFCURVE",
"254 -70 OFFCURVE",
"259 -70 CURVE SMOOTH",
"329 -70 LINE SMOOTH",
"334 -70 OFFCURVE",
"359 -60 OFFCURVE",
"364 -55 CURVE",
"369 -55 OFFCURVE",
"389 -30 OFFCURVE",
"399 -25 CURVE",
"444 20 LINE",
"449 15 OFFCURVE",
"464 0 OFFCURVE",
"464 -5 CURVE SMOOTH",
"464 -15 LINE",
"459 -25 OFFCURVE",
"424 -60 OFFCURVE",
"414 -65 CURVE",
"414 -65 OFFCURVE",
"404 -75 OFFCURVE",
"399 -75 CURVE",
"389 -80 OFFCURVE",
"354 -105 OFFCURVE",
"349 -105 CURVE SMOOTH",
"344 -105 OFFCURVE",
"329 -115 OFFCURVE",
"324 -115 CURVE SMOOTH",
"319 -115 OFFCURVE",
"299 -120 OFFCURVE",
"294 -120 CURVE SMOOTH",
"234 -120 LINE SMOOTH",
"234 -120 OFFCURVE",
"215 -115 OFFCURVE",
"205 -110 CURVE SMOOTH",
"195 -105 OFFCURVE",
"165 -95 OFFCURVE",
"165 -95 CURVE SMOOTH",
"160 -95 OFFCURVE",
"135 -75 OFFCURVE",
"130 -70 CURVE SMOOTH",
"100 -40 LINE",
"100 -35 OFFCURVE",
"85 -15 OFFCURVE",
"80 -10 CURVE",
"80 -5 OFFCURVE",
"70 5 OFFCURVE",
"70 10 CURVE",
"70 10 OFFCURVE",
"65 20 OFFCURVE",
"65 25 CURVE SMOOTH",
"65 30 OFFCURVE",
"60 45 OFFCURVE",
"60 45 CURVE"
);
},
{
closed = 1;
nodes = (
"264 220 LINE SMOOTH",
"264 215 OFFCURVE",
"269 200 OFFCURVE",
"269 195 CURVE",
"274 190 LINE SMOOTH",
"279 185 OFFCURVE",
"294 175 OFFCURVE",
"294 175 CURVE SMOOTH",
"294 175 OFFCURVE",
"314 170 OFFCURVE",
"324 170 CURVE SMOOTH",
"329 170 LINE",
"344 175 LINE",
"354 180 LINE SMOOTH",
"364 185 OFFCURVE",
"394 205 OFFCURVE",
"399 210 CURVE",
"399 210 OFFCURVE",
"414 220 OFFCURVE",
"414 225 CURVE SMOOTH",
"414 230 OFFCURVE",
"424 240 OFFCURVE",
"424 240 CURVE",
"429 260 LINE",
"429 265 OFFCURVE",
"449 295 OFFCURVE",
"449 300 CURVE",
"454 320 LINE",
"459 330 LINE",
"464 335 OFFCURVE",
"469 355 OFFCURVE",
"469 355 CURVE",
"469 365 LINE",
"449 365 LINE",
"444 360 LINE",
"434 355 LINE",
"424 365 LINE SMOOTH",
"419 370 OFFCURVE",
"404 380 OFFCURVE",
"404 380 CURVE SMOOTH",
"404 380 OFFCURVE",
"394 385 OFFCURVE",
"389 385 CURVE SMOOTH",
"369 385 LINE SMOOTH",
"369 385 OFFCURVE",
"359 380 OFFCURVE",
"354 380 CURVE SMOOTH",
"349 380 OFFCURVE",
"339 370 OFFCURVE",
"334 370 CURVE SMOOTH",
"329 370 OFFCURVE",
"319 360 OFFCURVE",
"319 360 CURVE SMOOTH",
"319 360 OFFCURVE",
"314 350 OFFCURVE",
"309 345 CURVE SMOOTH",
"304 340 OFFCURVE",
"294 320 OFFCURVE",
"294 320 CURVE",
"289 315 OFFCURVE",
"279 285 OFFCURVE",
"274 280 CURVE",
"274 280 OFFCURVE",
"269 270 OFFCURVE",
"269 265 CURVE SMOOTH",
"269 260 OFFCURVE",
"264 245 OFFCURVE",
"264 240 CURVE SMOOTH"
);
},
{
closed = 1;
nodes = (
"608 410 LINE SMOOTH",
"608 415 OFFCURVE",
"599 435 OFFCURVE",
"599 440 CURVE",
"594 445 LINE",
"579 450 LINE",
"559 465 LINE",
"534 465 LINE SMOOTH",
"529 465 OFFCURVE",
"509 460 OFFCURVE",
"509 460 CURVE SMOOTH",
"504 460 OFFCURVE",
"484 455 OFFCURVE",
"479 455 CURVE",
"474 450 LINE",
"469 440 LINE",
"464 435 LINE",
"454 440 LINE",
"454 440 OFFCURVE",
"444 445 OFFCURVE",
"439 445 CURVE SMOOTH",
"434 445 OFFCURVE",
"419 450 OFFCURVE",
"419 450 CURVE SMOOTH",
"374 450 LINE SMOOTH",
"374 450 OFFCURVE",
"359 445 OFFCURVE",
"354 445 CURVE SMOOTH",
"349 445 OFFCURVE",
"334 435 OFFCURVE",
"329 435 CURVE SMOOTH",
"324 435 OFFCURVE",
"314 425 OFFCURVE",
"309 425 CURVE",
"319 440 LINE",
"344 465 LINE",
"359 475 LINE",
"374 490 LINE",
"374 490 OFFCURVE",
"399 505 OFFCURVE",
"409 510 CURVE SMOOTH",
"419 515 LINE",
"434 520 LINE",
"444 525 OFFCURVE",
"474 530 OFFCURVE",
"474 530 CURVE",
"514 530 LINE SMOOTH",
"519 530 OFFCURVE",
"539 525 OFFCURVE",
"544 520 CURVE SMOOTH",
"549 515 LINE",
"554 515 OFFCURVE",
"574 495 OFFCURVE",
"579 495 CURVE",
"613 460 LINE",
"613 460 OFFCURVE",
"618 455 OFFCURVE",
"618 450 CURVE SMOOTH",
"618 445 OFFCURVE",
"628 425 OFFCURVE",
"628 425 CURVE",
"633 405 LINE",
"638 390 LINE",
"638 365 LINE SMOOTH",
"638 360 OFFCURVE",
"633 335 OFFCURVE",
"633 325 CURVE SMOOTH",
"633 310 OFFCURVE",
"623 265 OFFCURVE",
"623 265 CURVE",
"623 260 OFFCURVE",
"608 230 OFFCURVE",
"604 225 CURVE",
"574 195 LINE SMOOTH",
"569 190 OFFCURVE",
"554 180 OFFCURVE",
"549 175 CURVE",
"539 170 LINE",
"539 205 LINE SMOOTH",
"539 210 OFFCURVE",
"544 225 OFFCURVE",
"544 230 CURVE SMOOTH",
"544 235 OFFCURVE",
"554 255 OFFCURVE",
"554 260 CURVE",
"559 270 LINE",
"564 290 LINE",
"564 295 OFFCURVE",
"584 340 OFFCURVE",
"584 345 CURVE",
"589 360 LINE",
"589 365 OFFCURVE",
"608 395 OFFCURVE",
"608 400 CURVE SMOOTH"
);
},
{
closed = 1;
nodes = (
"195 135 LINE",
"200 130 OFFCURVE",
"215 115 OFFCURVE",
"219 110 CURVE",
"229 105 LINE SMOOTH",
"239 100 OFFCURVE",
"264 95 OFFCURVE",
"264 95 CURVE",
"319 95 LINE",
"319 95 OFFCURVE",
"334 100 OFFCURVE",
"339 100 CURVE SMOOTH",
"344 100 OFFCURVE",
"354 105 OFFCURVE",
"354 105 CURVE",
"364 110 LINE SMOOTH",
"374 115 OFFCURVE",
"399 130 OFFCURVE",
"399 130 CURVE",
"409 140 LINE",
"414 130 LINE",
"419 115 LINE",
"424 105 LINE",
"454 75 LINE",
"449 75 OFFCURVE",
"439 70 OFFCURVE",
"434 70 CURVE",
"429 65 LINE SMOOTH",
"424 60 OFFCURVE",
"384 10 OFFCURVE",
"379 5 CURVE SMOOTH",
"369 -5 OFFCURVE",
"359 -15 OFFCURVE",
"344 -25 CURVE",
"334 -30 LINE",
"329 -30 OFFCURVE",
"319 -35 OFFCURVE",
"319 -35 CURVE SMOOTH",
"249 -35 LINE SMOOTH",
"249 -35 OFFCURVE",
"239 -30 OFFCURVE",
"234 -30 CURVE SMOOTH",
"229 -30 OFFCURVE",
"215 -20 OFFCURVE",
"215 -20 CURVE SMOOTH",
"215 -20 OFFCURVE",
"210 -15 OFFCURVE",
"210 -10 CURVE SMOOTH",
"210 -5 OFFCURVE",
"205 5 OFFCURVE",
"205 5 CURVE SMOOTH",
"205 5 OFFCURVE",
"200 25 OFFCURVE",
"200 30 CURVE SMOOTH",
"200 40 OFFCURVE",
"195 60 OFFCURVE",
"195 60 CURVE"
);
},
{
closed = 1;
nodes = (
"414 340 LINE",
"419 335 LINE",
"419 325 LINE SMOOTH",
"419 320 OFFCURVE",
"404 305 OFFCURVE",
"404 300 CURVE",
"399 280 LINE",
"394 270 OFFCURVE",
"379 245 OFFCURVE",
"379 240 CURVE",
"374 235 OFFCURVE",
"359 220 OFFCURVE",
"354 220 CURVE",
"339 215 LINE",
"339 240 LINE SMOOTH",
"339 245 OFFCURVE",
"349 260 OFFCURVE",
"349 265 CURVE SMOOTH",
"349 270 OFFCURVE",
"364 295 OFFCURVE",
"369 300 CURVE SMOOTH",
"374 305 LINE",
"384 325 LINE",
"384 330 OFFCURVE",
"399 340 OFFCURVE",
"404 340 CURVE SMOOTH"
);
},
{
closed = 1;
nodes = (
"519 65 OFFCURVE",
"519 55 OFFCURVE",
"514 55 CURVE SMOOTH",
"509 55 OFFCURVE",
"509 65 OFFCURVE",
"514 65 CURVE SMOOTH"
);
}
);
width = 823;
}
);
note = at;
unicode = 0040;
},
{
glyphname = A;
layers = (
{
layerId = "4FCC7E5A-ABB0-4C53-A7CD-8FBAF99C528D";
name = Regular;
paths = (
{
closed = 1;
nodes = (
"277 603 LINE",
"272 603 LINE SMOOTH",
"257 603 OFFCURVE",
"212 598 OFFCURVE",
"212 598 CURVE SMOOTH",
"207 598 OFFCURVE",
"187 583 OFFCURVE",
"182 578 CURVE SMOOTH",
"177 573 OFFCURVE",
"152 553 OFFCURVE",
"152 548 CURVE SMOOTH",
"152 543 OFFCURVE",
"147 523 OFFCURVE",
"147 518 CURVE SMOOTH",
"147 513 OFFCURVE",
"142 493 OFFCURVE",
"142 493 CURVE",
"142 488 OFFCURVE",
"127 453 OFFCURVE",
"127 448 CURVE SMOOTH",
"127 443 OFFCURVE",
"122 423 OFFCURVE",
"122 418 CURVE",
"117 403 LINE",
"112 393 OFFCURVE",
"102 358 OFFCURVE",
"102 353 CURVE",
"97 333 LINE",
"92 318 LINE",
"87 293 LINE",
"87 288 OFFCURVE",
"77 273 OFFCURVE",
"77 268 CURVE SMOOTH",
"77 258 OFFCURVE",
"57 198 OFFCURVE",
"57 188 CURVE",
"52 173 LINE",
"52 168 OFFCURVE",
"47 153 OFFCURVE",
"47 153 CURVE",
"47 148 OFFCURVE",
"42 123 OFFCURVE",
"42 118 CURVE",
"37 108 LINE",
"37 103 OFFCURVE",
"22 58 OFFCURVE",
"22 53 CURVE",
"17 38 LINE",
"17 -2 LINE",
"52 -2 LINE",
"72 3 LINE",
"77 3 OFFCURVE",
"97 8 OFFCURVE",
"102 8 CURVE SMOOTH",
"107 8 OFFCURVE",
"127 13 OFFCURVE",
"127 13 CURVE",
"137 23 LINE",
"152 28 LINE",
"177 53 LINE",
"177 58 OFFCURVE",
"187 68 OFFCURVE",
"187 73 CURVE",
"192 83 OFFCURVE",
"202 138 OFFCURVE",
"202 148 CURVE",
"207 153 LINE",
"207 153 OFFCURVE",
"232 158 OFFCURVE",
"237 158 CURVE SMOOTH",
"242 158 OFFCURVE",
"272 163 OFFCURVE",
"277 163 CURVE SMOOTH",
"282 163 LINE",
"282 153 OFFCURVE",
"292 118 OFFCURVE",
"292 108 CURVE SMOOTH",
"292 103 OFFCURVE",
"312 68 OFFCURVE",
"312 63 CURVE SMOOTH",
"312 58 OFFCURVE",
"317 38 OFFCURVE",
"317 33 CURVE",
"322 28 LINE",
"427 28 LINE",
"427 33 OFFCURVE",
"432 48 OFFCURVE",
"432 53 CURVE",
"437 68 LINE",
"437 73 OFFCURVE",
"442 93 OFFCURVE",
"442 98 CURVE",
"447 113 LINE",
"447 118 OFFCURVE",
"452 138 OFFCURVE",
"452 138 CURVE",
"452 163 LINE SMOOTH",
"452 168 OFFCURVE",
"442 183 OFFCURVE",
"442 188 CURVE SMOOTH",
"442 193 OFFCURVE",
"432 218 OFFCURVE",
"432 223 CURVE SMOOTH",
"432 228 OFFCURVE",
"422 263 OFFCURVE",
"422 268 CURVE",
"417 283 LINE",
"417 288 OFFCURVE",
"412 303 OFFCURVE",
"412 303 CURVE",
"412 308 OFFCURVE",
"407 328 OFFCURVE",
"407 333 CURVE SMOOTH",
"407 338 OFFCURVE",
"402 348 OFFCURVE",
"402 353 CURVE",
"397 368 LINE",
"397 373 OFFCURVE",
"387 408 OFFCURVE",
"387 418 CURVE SMOOTH",
"387 423 OFFCURVE",
"382 448 OFFCURVE",
"382 453 CURVE",
"382 453 OFFCURVE",
"377 463 OFFCURVE",
"377 468 CURVE",
"372 478 LINE",
"372 483 OFFCURVE",
"362 523 OFFCURVE",
"362 528 CURVE SMOOTH",
"362 533 OFFCURVE",
"352 553 OFFCURVE",
"352 558 CURVE",
"347 578 LINE",
"337 588 LINE",
"332 588 OFFCURVE",
"312 598 OFFCURVE",
"307 598 CURVE SMOOTH",
"287 598 LINE"
);
},
{
closed = 1;
nodes = (
"192 528 LINE",
"197 528 OFFCURVE",
"222 533 OFFCURVE",
"227 533 CURVE SMOOTH",
"277 533 LINE",
"282 528 LINE",
"287 518 OFFCURVE",
"302 488 OFFCURVE",
"302 483 CURVE SMOOTH",
"302 473 OFFCURVE",
"317 403 OFFCURVE",
"317 393 CURVE SMOOTH",
"317 388 OFFCURVE",
"327 348 OFFCURVE",
"327 343 CURVE SMOOTH",
"327 338 OFFCURVE",
"332 318 OFFCURVE",
"332 313 CURVE SMOOTH",
"332 308 OFFCURVE",
"337 288 OFFCURVE",
"337 288 CURVE",
"342 273 LINE",
"347 253 LINE",
"352 238 OFFCURVE",
"362 198 OFFCURVE",
"362 198 CURVE",
"367 188 LINE",
"367 183 OFFCURVE",
"372 153 OFFCURVE",
"372 148 CURVE SMOOTH",
"372 138 OFFCURVE",
"377 113 OFFCURVE",
"377 113 CURVE",
"377 108 OFFCURVE",
"392 83 OFFCURVE",
"392 78 CURVE",
"397 63 LINE",
"397 58 LINE",
"342 58 LINE SMOOTH",
"342 58 OFFCURVE",
"327 108 OFFCURVE",
"322 128 CURVE",
"322 133 OFFCURVE",
"312 168 OFFCURVE",
"312 178 CURVE",
"307 183 LINE SMOOTH",
"302 188 OFFCURVE",
"292 193 OFFCURVE",
"292 193 CURVE SMOOTH",
"252 193 LINE",
"237 188 LINE SMOOTH",
"222 183 OFFCURVE",
"152 173 OFFCURVE",
"137 173 CURVE",
"137 168 OFFCURVE",
"132 153 OFFCURVE",
"132 148 CURVE",
"127 133 LINE",
"127 128 OFFCURVE",
"122 118 OFFCURVE",
"122 113 CURVE SMOOTH",
"122 108 OFFCURVE",
"117 88 OFFCURVE",
"117 83 CURVE SMOOTH",
"117 78 OFFCURVE",
"112 58 OFFCURVE",
"112 58 CURVE",
"107 48 LINE",
"102 43 LINE",
"97 43 OFFCURVE",
"67 33 OFFCURVE",
"62 33 CURVE SMOOTH",
"47 33 LINE",
"47 38 OFFCURVE",
"57 68 OFFCURVE",
"57 73 CURVE",
"62 83 LINE",
"62 88 OFFCURVE",
"72 113 OFFCURVE",
"72 118 CURVE SMOOTH",
"72 123 OFFCURVE",
"82 153 OFFCURVE",
"82 158 CURVE",
"87 173 LINE",
"92 193 LINE",
"92 198 OFFCURVE",
"102 223 OFFCURVE",
"102 228 CURVE SMOOTH",
"102 238 OFFCURVE",
"122 298 OFFCURVE",
"122 308 CURVE SMOOTH",
"122 313 OFFCURVE",
"132 338 OFFCURVE",
"132 343 CURVE",
"137 368 LINE",
"137 373 OFFCURVE",
"152 403 OFFCURVE",
"152 408 CURVE SMOOTH",
"152 413 OFFCURVE",
"157 438 OFFCURVE",
"157 443 CURVE",
"162 453 LINE SMOOTH",
"172 473 OFFCURVE",
"172 503 OFFCURVE",
"177 523 CURVE"
);
},
{
closed = 1;
nodes = (
"272 238 LINE",
"277 233 OFFCURVE",
"282 228 OFFCURVE",
"287 228 CURVE SMOOTH",
"292 228 LINE",
"297 238 LINE",
"297 263 LINE SMOOTH",
"297 268 OFFCURVE",
"292 283 OFFCURVE",
"292 288 CURVE SMOOTH",
"292 293 OFFCURVE",
"277 318 OFFCURVE",
"277 323 CURVE SMOOTH",
"277 328 OFFCURVE",
"267 373 OFFCURVE",
"267 378 CURVE",
"262 393 LINE",
"262 403 OFFCURVE",
"252 428 OFFCURVE",
"252 433 CURVE SMOOTH",
"252 438 OFFCURVE",
"247 473 OFFCURVE",
"247 478 CURVE",
"237 488 LINE SMOOTH",
"232 493 OFFCURVE",
"217 498 OFFCURVE",
"217 498 CURVE SMOOTH",
"217 498 OFFCURVE",
"207 493 OFFCURVE",
"207 488 CURVE",
"207 488 OFFCURVE",
"197 478 OFFCURVE",
"197 473 CURVE",
"192 463 LINE",
"192 458 OFFCURVE",
"177 423 OFFCURVE",
"177 418 CURVE SMOOTH",
"177 413 OFFCURVE",
"167 398 OFFCURVE",
"167 393 CURVE SMOOTH",
"167 388 OFFCURVE",
"152 323 OFFCURVE",
"147 298 CURVE",
"147 293 OFFCURVE",
"142 273 OFFCURVE",
"142 268 CURVE SMOOTH",
"142 238 LINE",
"152 233 LINE",
"192 233 LINE SMOOTH",
"197 233 OFFCURVE",
"232 238 OFFCURVE",
"237 238 CURVE SMOOTH"
);
},
{
closed = 1;
nodes = (
"232 378 LINE",
"237 373 LINE",
"237 373 OFFCURVE",
"242 358 OFFCURVE",
"242 353 CURVE SMOOTH",
"242 348 OFFCURVE",
"247 323 OFFCURVE",
"247 318 CURVE",
"252 303 LINE",
"247 298 LINE",
"212 298 LINE",
"212 318 LINE SMOOTH",
"212 323 OFFCURVE",
"222 348 OFFCURVE",
"222 353 CURVE",
"227 363 LINE"
);
}
);
width = 468;
}
);
note = A;
unicode = 0041;
},
{
glyphname = B;
layers = (
{
layerId = "4FCC7E5A-ABB0-4C53-A7CD-8FBAF99C528D";
name = Regular;
paths = (
{
closed = 1;
nodes = (
"52 73 LINE SMOOTH",
"52 68 OFFCURVE",
"57 43 OFFCURVE",
"57 33 CURVE",
"62 23 LINE",
"62 -2 LINE",
"67 -12 LINE",
"67 -12 OFFCURVE",
"87 -22 OFFCURVE",
"92 -22 CURVE SMOOTH",
"97 -22 LINE SMOOTH",
"102 -22 OFFCURVE",
"136 -17 OFFCURVE",
"141 -17 CURVE SMOOTH",
"146 -17 OFFCURVE",
"191 -12 OFFCURVE",
"196 -12 CURVE",
"211 -7 LINE",
"231 -2 LINE",
"236 -2 OFFCURVE",
"245 3 OFFCURVE",
"245 3 CURVE",
"255 8 LINE",
"275 13 LINE",
"280 13 OFFCURVE",
"310 23 OFFCURVE",
"315 28 CURVE",
"325 33 LINE",
"335 43 LINE",
"350 53 LINE",
"355 58 LINE",
"370 68 LINE",
"374 73 OFFCURVE",
"384 83 OFFCURVE",
"389 88 CURVE",
"399 103 LINE",
"404 108 LINE",
"414 123 LINE",
"419 133 LINE SMOOTH",
"424 143 OFFCURVE",
"434 178 OFFCURVE",
"434 178 CURVE",
"434 208 LINE SMOOTH",
"434 213 OFFCURVE",
"429 233 OFFCURVE",
"429 238 CURVE",
"424 253 LINE",
"424 268 LINE",
"409 288 LINE",
"399 303 LINE",
"389 313 LINE",
"384 323 LINE",
"379 328 OFFCURVE",
"360 343 OFFCURVE",
"355 343 CURVE",
"355 348 LINE SMOOTH",
"355 353 OFFCURVE",
"374 393 OFFCURVE",
"374 398 CURVE SMOOTH",
"374 403 OFFCURVE",
"379 413 OFFCURVE",
"379 413 CURVE",
"379 483 LINE SMOOTH",
"379 488 OFFCURVE",
"370 518 OFFCURVE",
"370 523 CURVE",
"370 523 OFFCURVE",
"360 538 OFFCURVE",
"355 543 CURVE SMOOTH",
"325 573 LINE",
"315 578 LINE",
"310 578 OFFCURVE",
"295 593 OFFCURVE",
"290 593 CURVE SMOOTH",
"285 593 OFFCURVE",
"275 603 OFFCURVE",
"270 603 CURVE",
"265 608 OFFCURVE",
"245 613 OFFCURVE",
"245 613 CURVE SMOOTH",
"241 613 OFFCURVE",
"206 618 OFFCURVE",
"201 618 CURVE SMOOTH",
"201 618 OFFCURVE",
"181 623 OFFCURVE",
"176 623 CURVE SMOOTH",
"151 623 LINE SMOOTH",
"151 623 OFFCURVE",
"141 618 OFFCURVE",
"136 618 CURVE",
"121 608 LINE",
"116 608 OFFCURVE",
"97 593 OFFCURVE",
"92 593 CURVE",
"82 588 OFFCURVE",
"62 573 OFFCURVE",
"62 573 CURVE SMOOTH",
"62 573 OFFCURVE",
"57 548 OFFCURVE",
"57 538 CURVE SMOOTH",
"57 473 LINE SMOOTH",
"57 468 OFFCURVE",
"52 443 OFFCURVE",
"52 438 CURVE SMOOTH"
);
},
{
closed = 1;
nodes = (
"82 43 LINE",
"82 298 LINE SMOOTH",
"82 308 OFFCURVE",
"77 373 OFFCURVE",
"77 383 CURVE SMOOTH",
"77 398 LINE SMOOTH",
"77 403 OFFCURVE",
"82 423 OFFCURVE",
"82 428 CURVE SMOOTH",
"82 543 LINE",
"87 543 OFFCURVE",
"121 553 OFFCURVE",
"131 553 CURVE SMOOTH",
"206 553 LINE SMOOTH",
"211 553 OFFCURVE",
"241 548 OFFCURVE",
"250 543 CURVE",
"260 538 OFFCURVE",
"290 528 OFFCURVE",
"295 528 CURVE",
"295 528 OFFCURVE",
"310 518 OFFCURVE",
"315 513 CURVE SMOOTH",
"330 498 LINE",
"330 498 OFFCURVE",
"340 463 OFFCURVE",
"345 453 CURVE",
"345 448 LINE SMOOTH",
"345 443 OFFCURVE",
"340 423 OFFCURVE",
"340 423 CURVE",
"335 413 OFFCURVE",
"325 383 OFFCURVE",
"325 378 CURVE",
"325 378 OFFCURVE",
"315 363 OFFCURVE",
"310 358 CURVE SMOOTH",
"275 323 LINE",
"295 303 LINE",
"315 293 LINE",
"315 293 OFFCURVE",
"335 278 OFFCURVE",
"340 273 CURVE SMOOTH",
"350 263 LINE SMOOTH",
"355 258 OFFCURVE",
"365 233 OFFCURVE",
"365 233 CURVE",
"365 138 LINE",
"365 138 OFFCURVE",
"360 123 OFFCURVE",
"355 118 CURVE",
"345 103 LINE",
"340 98 LINE SMOOTH",
"335 93 OFFCURVE",
"310 73 OFFCURVE",
"305 68 CURVE",
"300 58 LINE",
"290 53 LINE",
"285 53 OFFCURVE",
"270 38 OFFCURVE",
"265 38 CURVE",
"241 33 LINE",
"236 33 OFFCURVE",
"221 28 OFFCURVE",
"221 28 CURVE SMOOTH",
"216 28 OFFCURVE",
"201 18 OFFCURVE",
"196 18 CURVE SMOOTH",
"191 18 OFFCURVE",
"171 13 OFFCURVE",
"166 13 CURVE SMOOTH",
"97 13 LINE",
"92 18 OFFCURVE",
"87 23 OFFCURVE",
"87 28 CURVE"
);
},
{
closed = 1;
nodes = (
"126 83 LINE",
"126 78 LINE",
"131 63 LINE",
"176 63 LINE SMOOTH",
"181 63 OFFCURVE",
"196 68 OFFCURVE",
"201 68 CURVE SMOOTH",
"211 68 OFFCURVE",
"245 83 OFFCURVE",
"250 83 CURVE",
"260 88 LINE",
"270 98 LINE",
"285 108 LINE",
"285 108 OFFCURVE",
"295 118 OFFCURVE",
"295 123 CURVE SMOOTH",
"295 128 OFFCURVE",
"305 138 OFFCURVE",
"305 143 CURVE",
"310 158 LINE",
"310 158 OFFCURVE",
"320 178 OFFCURVE",
"320 183 CURVE SMOOTH",
"320 218 LINE",
"320 218 OFFCURVE",
"315 228 OFFCURVE",
"315 233 CURVE",
"305 248 LINE",
"295 258 LINE SMOOTH",
"290 263 OFFCURVE",
"275 273 OFFCURVE",
"275 273 CURVE",
"270 278 OFFCURVE",
"250 288 OFFCURVE",
"245 288 CURVE SMOOTH",
"241 288 OFFCURVE",
"216 293 OFFCURVE",
"211 293 CURVE SMOOTH",
"161 293 LINE SMOOTH",
"156 293 OFFCURVE",
"141 288 OFFCURVE",
"141 288 CURVE SMOOTH",
"141 288 OFFCURVE",
"136 278 OFFCURVE",
"136 273 CURVE SMOOTH",
"136 123 LINE",
"136 123 OFFCURVE",
"131 103 OFFCURVE",
"131 98 CURVE"
);
},
{
closed = 1;
nodes = (
"131 498 LINE",
"131 468 LINE SMOOTH",
"131 463 OFFCURVE",
"136 418 OFFCURVE",
"136 413 CURVE SMOOTH",
"136 398 OFFCURVE",
"141 343 OFFCURVE",
"141 328 CURVE",
"146 328 OFFCURVE",
"156 333 OFFCURVE",
"161 333 CURVE",
"171 338 LINE",
"176 338 OFFCURVE",
"206 343 OFFCURVE",
"211 343 CURVE SMOOTH",
"221 343 OFFCURVE",
"245 353 OFFCURVE",
"250 353 CURVE",
"250 353 OFFCURVE",
"265 363 OFFCURVE",
"270 368 CURVE SMOOTH",
"285 383 LINE",
"285 388 OFFCURVE",
"295 398 OFFCURVE",
"295 403 CURVE SMOOTH",
"295 418 LINE SMOOTH",
"295 423 OFFCURVE",
"290 438 OFFCURVE",
"290 443 CURVE SMOOTH",
"290 448 OFFCURVE",
"285 458 OFFCURVE",
"285 458 CURVE",
"280 463 OFFCURVE",
"270 478 OFFCURVE",
"265 478 CURVE SMOOTH",
"260 478 OFFCURVE",
"241 488 OFFCURVE",
"236 493 CURVE SMOOTH",
"231 498 OFFCURVE",
"206 503 OFFCURVE",
"206 503 CURVE SMOOTH",
"136 503 LINE"
);
},
{
closed = 1;
nodes = (
"201 263 LINE",
"221 263 LINE",
"221 263 OFFCURVE",
"236 258 OFFCURVE",
"241 258 CURVE",
"250 253 LINE",
"255 253 OFFCURVE",
"265 243 OFFCURVE",
"265 243 CURVE",
"275 233 LINE",
"280 223 LINE",
"280 178 LINE SMOOTH",
"280 173 OFFCURVE",
"260 158 OFFCURVE",
"260 153 CURVE",
"245 133 LINE",
"245 133 OFFCURVE",
"221 128 OFFCURVE",
"211 128 CURVE SMOOTH",
"201 128 LINE"
);
},
{
closed = 1;
nodes = (
"186 473 LINE",
"201 473 LINE",
"201 473 OFFCURVE",
"226 463 OFFCURVE",
"231 463 CURVE",
"241 458 LINE",
"245 453 OFFCURVE",
"260 438 OFFCURVE",
"260 438 CURVE",
"260 413 LINE",
"255 403 LINE",
"250 398 LINE",
"196 403 LINE",
"196 403 OFFCURVE",
"191 418 OFFCURVE",
"191 423 CURVE SMOOTH",
"191 428 OFFCURVE",
"186 448 OFFCURVE",
"186 448 CURVE"
);
}
);
width = 427;
}
);
note = B;
unicode = 0042;
},
{
glyphname = C;
layers = (
{
layerId = "4FCC7E5A-ABB0-4C53-A7CD-8FBAF99C528D";
name = Regular;
paths = (
{
closed = 1;
nodes = (
"14 223 LINE SMOOTH",
"14 218 OFFCURVE",
"19 199 OFFCURVE",
"19 195 CURVE SMOOTH",
"19 186 LINE",
"24 171 LINE",
"24 162 LINE",
"28 143 LINE",
"33 119 LINE",
"43 101 LINE",
"48 82 LINE",
"48 77 OFFCURVE",
"67 59 OFFCURVE",
"67 54 CURVE",
"72 44 LINE",
"97 21 LINE",
"102 16 OFFCURVE",
"116 7 OFFCURVE",
"116 7 CURVE",
"121 2 OFFCURVE",
"145 -7 OFFCURVE",
"150 -7 CURVE SMOOTH",
"154 -7 OFFCURVE",
"183 -16 OFFCURVE",
"188 -16 CURVE",
"193 -21 LINE",
"252 -21 LINE SMOOTH",
"256 -21 OFFCURVE",
"280 -11 OFFCURVE",
"290 -7 CURVE",
"328 12 LINE",
"328 12 OFFCURVE",
"353 36 OFFCURVE",
"358 44 CURVE",
"358 44 OFFCURVE",
"368 54 OFFCURVE",
"368 59 CURVE",
"373 68 LINE",
"373 73 OFFCURVE",
"392 96 OFFCURVE",
"392 101 CURVE",
"392 101 OFFCURVE",
"397 111 OFFCURVE",
"397 115 CURVE",
"397 115 OFFCURVE",
"402 134 OFFCURVE",
"402 138 CURVE",
"406 153 OFFCURVE",
"411 190 OFFCURVE",
"411 190 CURVE",
"411 204 OFFCURVE",
"416 256 OFFCURVE",
"416 270 CURVE",
"411 279 OFFCURVE",
"406 293 OFFCURVE",
"397 303 CURVE",
"397 308 OFFCURVE",
"387 312 OFFCURVE",
"387 312 CURVE SMOOTH",
"324 312 LINE",
"314 308 LINE",
"304 298 LINE",
"280 279 LINE",
"276 274 LINE",
"276 261 OFFCURVE",
"266 204 OFFCURVE",
"266 190 CURVE",
"261 176 LINE",
"256 157 LINE",
"252 153 OFFCURVE",
"242 129 OFFCURVE",
"242 129 CURVE",
"237 124 OFFCURVE",
"218 115 OFFCURVE",
"212 115 CURVE SMOOTH",
"193 115 LINE",
"183 119 LINE",
"183 124 OFFCURVE",
"169 143 OFFCURVE",
"169 148 CURVE",
"169 148 OFFCURVE",
"164 162 OFFCURVE",
"164 166 CURVE SMOOTH",
"164 176 OFFCURVE",
"159 199 OFFCURVE",
"159 204 CURVE SMOOTH",
"159 251 LINE SMOOTH",
"159 256 OFFCURVE",
"164 284 OFFCURVE",
"164 293 CURVE SMOOTH",
"164 303 OFFCURVE",
"174 345 OFFCURVE",
"174 350 CURVE",
"178 358 LINE",
"183 378 LINE",
"188 387 LINE",
"188 391 OFFCURVE",
"202 425 OFFCURVE",
"202 430 CURVE",
"207 448 LINE",
"207 448 OFFCURVE",
"218 457 OFFCURVE",
"223 457 CURVE",
"232 462 LINE",
"247 462 LINE",
"247 462 OFFCURVE",
"252 453 OFFCURVE",
"252 448 CURVE SMOOTH",
"252 443 OFFCURVE",
"256 430 OFFCURVE",
"256 430 CURVE",
"256 350 LINE SMOOTH",
"256 345 OFFCURVE",
"261 335 OFFCURVE",
"266 335 CURVE SMOOTH",
"280 335 LINE SMOOTH",
"285 335 OFFCURVE",
"295 345 OFFCURVE",
"295 350 CURVE",
"373 350 LINE",
"378 354 LINE",
"382 363 LINE",
"387 373 OFFCURVE",
"402 396 OFFCURVE",
"402 396 CURVE",
"402 401 OFFCURVE",
"411 410 OFFCURVE",
"416 410 CURVE",
"416 448 LINE",
"416 448 OFFCURVE",
"411 476 OFFCURVE",
"411 485 CURVE SMOOTH",
"411 495 OFFCURVE",
"406 518 OFFCURVE",
"406 518 CURVE",
"406 523 OFFCURVE",
"402 532 OFFCURVE",
"402 532 CURVE",
"402 537 OFFCURVE",
"382 555 OFFCURVE",
"378 565 CURVE",
"373 570 LINE SMOOTH",
"363 580 OFFCURVE",
"333 598 OFFCURVE",
"333 598 CURVE",
"328 603 OFFCURVE",
"314 607 OFFCURVE",
"309 607 CURVE SMOOTH",
"212 607 LINE SMOOTH",
"212 607 OFFCURVE",
"202 603 OFFCURVE",
"198 603 CURVE",
"174 593 LINE",
"159 588 LINE",
"140 570 LINE",
"126 560 LINE",
"121 555 OFFCURVE",
"106 547 OFFCURVE",
"106 547 CURVE",
"97 537 LINE",
"97 537 OFFCURVE",
"87 528 OFFCURVE",
"87 523 CURVE",
"82 513 LINE",
"67 495 LINE",
"62 481 LINE",
"62 476 OFFCURVE",
"43 448 OFFCURVE",
"43 443 CURVE",
"43 443 OFFCURVE",
"33 420 OFFCURVE",
"33 410 CURVE",
"28 387 LINE",
"24 368 LINE",
"24 363 OFFCURVE",
"19 340 OFFCURVE",
"19 331 CURVE SMOOTH",
"19 316 OFFCURVE",
"14 284 OFFCURVE",
"14 279 CURVE SMOOTH"
);
},
{
closed = 1;
nodes = (
"43 256 LINE SMOOTH",
"43 279 OFFCURVE",
"48 335 OFFCURVE",
"48 335 CURVE SMOOTH",
"48 335 OFFCURVE",
"52 354 OFFCURVE",
"52 358 CURVE",
"57 373 LINE",
"62 391 LINE",
"67 401 OFFCURVE",
"77 433 OFFCURVE",
"77 433 CURVE",
"77 438 OFFCURVE",
"97 471 OFFCURVE",
"106 485 CURVE",
"111 490 OFFCURVE",
"121 509 OFFCURVE",
"121 509 CURVE",
"121 513 OFFCURVE",
"130 523 OFFCURVE",
"135 523 CURVE",
"140 528 OFFCURVE",
"169 547 OFFCURVE",
"178 551 CURVE",
"188 555 LINE",
"193 555 OFFCURVE",
"207 560 OFFCURVE",
"212 560 CURVE SMOOTH",
"228 560 LINE SMOOTH",
"232 560 OFFCURVE",
"256 555 OFFCURVE",
"261 555 CURVE SMOOTH",
"266 555 OFFCURVE",
"285 547 OFFCURVE",
"290 547 CURVE",
"290 547 OFFCURVE",
"300 537 OFFCURVE",
"304 537 CURVE",
"319 523 LINE",
"319 523 OFFCURVE",
"328 513 OFFCURVE",
"328 509 CURVE",
"333 500 LINE",
"333 495 OFFCURVE",
"338 476 OFFCURVE",
"338 471 CURVE",
"338 471 OFFCURVE",
"343 453 OFFCURVE",
"343 448 CURVE SMOOTH",
"343 383 LINE",
"333 378 LINE",
"290 378 LINE",
"290 430 LINE",
"290 430 OFFCURVE",
"285 448 OFFCURVE",
"285 453 CURVE",
"280 467 LINE",
"276 476 LINE",
"276 476 OFFCURVE",
"266 490 OFFCURVE",
"261 495 CURVE SMOOTH",
"256 500 LINE",
"252 505 OFFCURVE",
"242 509 OFFCURVE",
"242 509 CURVE SMOOTH",
"223 509 LINE SMOOTH",
"212 509 OFFCURVE",
"188 505 OFFCURVE",
"183 505 CURVE",
"174 500 LINE",
"174 500 OFFCURVE",
"159 490 OFFCURVE",
"159 485 CURVE",
"159 485 OFFCURVE",
"150 476 OFFCURVE",
"150 471 CURVE",
"145 467 OFFCURVE",
"135 448 OFFCURVE",
"135 448 CURVE",
"130 438 OFFCURVE",
"121 401 OFFCURVE",
"116 391 CURVE",
"116 387 OFFCURVE",
"106 354 OFFCURVE",
"106 345 CURVE SMOOTH",
"106 335 OFFCURVE",
"102 308 OFFCURVE",
"102 303 CURVE SMOOTH",
"102 166 LINE SMOOTH",
"102 162 OFFCURVE",
"111 134 OFFCURVE",
"111 129 CURVE",
"116 119 LINE",
"116 115 OFFCURVE",
"126 106 OFFCURVE",
"126 106 CURVE",
"135 96 LINE",
"140 91 OFFCURVE",
"154 82 OFFCURVE",
"159 77 CURVE",
"218 77 LINE",
"218 77 OFFCURVE",
"242 87 OFFCURVE",
"247 91 CURVE",
"252 96 LINE",
"266 106 LINE",
"271 111 LINE",
"276 115 OFFCURVE",
"280 124 OFFCURVE",
"280 124 CURVE",
"280 129 OFFCURVE",
"290 157 OFFCURVE",
"295 166 CURVE",
"300 176 OFFCURVE",
"304 199 OFFCURVE",
"304 199 CURVE",
"304 204 OFFCURVE",
"309 236 OFFCURVE",
"309 241 CURVE",
"358 241 LINE",
"358 228 OFFCURVE",
"353 171 OFFCURVE",
"353 157 CURVE SMOOTH",
"353 153 OFFCURVE",
"328 96 OFFCURVE",
"328 91 CURVE",
"324 77 LINE",
"324 73 OFFCURVE",
"314 59 OFFCURVE",
"309 54 CURVE SMOOTH",
"304 49 OFFCURVE",
"295 36 OFFCURVE",
"295 36 CURVE SMOOTH",
"295 36 OFFCURVE",
"285 26 OFFCURVE",
"280 26 CURVE",
"271 21 LINE",
"261 21 OFFCURVE",
"218 16 OFFCURVE",
"207 16 CURVE",
"193 12 LINE",
"188 12 LINE SMOOTH",
"183 12 OFFCURVE",
"169 16 OFFCURVE",
"169 16 CURVE",
"159 21 OFFCURVE",
"126 36 OFFCURVE",
"121 40 CURVE",
"102 59 LINE",
"102 59 OFFCURVE",
"92 68 OFFCURVE",
"92 73 CURVE",
"87 77 OFFCURVE",
"77 96 OFFCURVE",
"77 96 CURVE",
"77 101 OFFCURVE",
"67 129 OFFCURVE",
"62 138 CURVE",
"57 153 OFFCURVE",
"48 190 OFFCURVE",
"48 195 CURVE",
"48 195 OFFCURVE",
"43 236 OFFCURVE",
"43 251 CURVE SMOOTH"
);
},
{
closed = 1;
nodes = (
"38 157 OFFCURVE",
"38 148 OFFCURVE",
"33 148 CURVE SMOOTH",
"28 148 OFFCURVE",
"28 157 OFFCURVE",
"33 157 CURVE SMOOTH"
);
}
);
width = 434;
}
);
note = C;
unicode = 0043;
},
{
glyphname = D;
layers = (
{
layerId = "4FCC7E5A-ABB0-4C53-A7CD-8FBAF99C528D";
name = Regular;
paths = (
{
closed = 1;
nodes = (
"50 13 LINE",
"50 3 LINE",
"55 -7 LINE",
"60 -12 LINE",
"70 -17 LINE",
"105 -17 LINE",
"125 -12 LINE",
"130 -12 OFFCURVE",
"150 -7 OFFCURVE",
"155 -7 CURVE SMOOTH",
"160 -7 OFFCURVE",
"175 3 OFFCURVE",
"180 3 CURVE",
"190 8 OFFCURVE",
"235 28 OFFCURVE",
"240 33 CURVE SMOOTH",
"245 38 OFFCURVE",
"280 58 OFFCURVE",
"290 63 CURVE",
"295 68 LINE",
"315 83 LINE",
"360 129 LINE",
"360 129 OFFCURVE",
"380 154 OFFCURVE",
"385 159 CURVE SMOOTH",
"390 164 OFFCURVE",
"400 179 OFFCURVE",
"400 179 CURVE",
"405 199 LINE",
"410 209 LINE",
"410 209 OFFCURVE",
"415 224 OFFCURVE",
"415 229 CURVE",
"420 244 OFFCURVE",
"425 279 OFFCURVE",
"425 279 CURVE",
"425 345 LINE SMOOTH",
"425 355 OFFCURVE",
"415 400 OFFCURVE",
"415 410 CURVE SMOOTH",
"415 415 OFFCURVE",
"400 445 OFFCURVE",
"400 450 CURVE",
"395 470 LINE",
"395 470 OFFCURVE",
"385 490 OFFCURVE",
"380 495 CURVE",
"380 500 OFFCURVE",
"370 510 OFFCURVE",
"370 510 CURVE",
"370 516 OFFCURVE",
"355 531 OFFCURVE",
"350 536 CURVE SMOOTH",
"345 541 LINE",
"305 576 LINE",
"300 581 LINE",
"285 586 LINE",
"270 596 LINE",
"270 596 OFFCURVE",
"245 606 OFFCURVE",
"240 606 CURVE SMOOTH",
"235 606 OFFCURVE",
"220 611 OFFCURVE",
"220 611 CURVE SMOOTH",
"215 611 OFFCURVE",
"180 616 OFFCURVE",
"175 616 CURVE SMOOTH",
"145 616 LINE SMOOTH",
"145 616 OFFCURVE",
"125 611 OFFCURVE",
"120 606 CURVE",
"110 601 LINE",
"105 596 OFFCURVE",
"90 586 OFFCURVE",
"90 586 CURVE",
"60 556 LINE",
"60 410 LINE SMOOTH",
"60 400 OFFCURVE",
"55 299 OFFCURVE",
"55 289 CURVE SMOOTH",
"55 28 LINE"
);
},
{
closed = 1;
nodes = (
"85 33 LINE",
"85 299 LINE SMOOTH",
"85 310 OFFCURVE",
"90 375 OFFCURVE",
"90 395 CURVE SMOOTH",
"90 400 OFFCURVE",
"95 440 OFFCURVE",
"95 445 CURVE SMOOTH",
"95 526 LINE",
"100 526 OFFCURVE",
"135 536 OFFCURVE",
"145 536 CURVE SMOOTH",
"235 536 LINE",
"240 531 LINE",
"260 526 LINE",
"265 526 OFFCURVE",
"285 516 OFFCURVE",
"285 516 CURVE",
"290 510 OFFCURVE",
"320 480 OFFCURVE",
"330 470 CURVE",
"330 465 OFFCURVE",
"345 450 OFFCURVE",
"345 445 CURVE",
"345 445 OFFCURVE",
"350 430 OFFCURVE",
"350 425 CURVE SMOOTH",
"350 420 OFFCURVE",
"355 405 OFFCURVE",
"355 400 CURVE",
"360 365 OFFCURVE",
"365 330 OFFCURVE",
"365 294 CURVE SMOOTH",
"365 269 LINE SMOOTH",
"365 259 OFFCURVE",
"360 234 OFFCURVE",
"360 229 CURVE SMOOTH",
"360 224 OFFCURVE",
"350 199 OFFCURVE",
"345 189 CURVE",
"345 184 OFFCURVE",
"335 164 OFFCURVE",
"330 159 CURVE SMOOTH",
"325 154 LINE",
"310 134 LINE",
"300 124 OFFCURVE",
"270 94 OFFCURVE",
"265 88 CURVE",
"260 83 OFFCURVE",
"240 73 OFFCURVE",
"235 68 CURVE",
"230 68 OFFCURVE",
"205 53 OFFCURVE",
"195 48 CURVE",
"190 48 OFFCURVE",
"165 33 OFFCURVE",
"160 33 CURVE",
"150 28 LINE",
"145 28 OFFCURVE",
"135 23 OFFCURVE",
"135 23 CURVE SMOOTH",
"90 23 LINE"
);
},
{
closed = 1;
nodes = (
"140 129 LINE SMOOTH",
"140 124 OFFCURVE",
"145 114 OFFCURVE",
"145 114 CURVE SMOOTH",
"145 114 OFFCURVE",
"160 104 OFFCURVE",
"165 104 CURVE SMOOTH",
"195 104 LINE",
"195 104 OFFCURVE",
"220 114 OFFCURVE",
"230 119 CURVE",
"235 119 OFFCURVE",
"250 129 OFFCURVE",
"250 129 CURVE",
"295 174 LINE SMOOTH",
"300 179 OFFCURVE",
"315 214 OFFCURVE",
"320 224 CURVE",
"320 229 OFFCURVE",
"330 254 OFFCURVE",
"330 264 CURVE SMOOTH",
"330 274 OFFCURVE",
"335 305 OFFCURVE",
"335 310 CURVE SMOOTH",
"335 320 OFFCURVE",
"330 360 OFFCURVE",
"330 370 CURVE SMOOTH",
"330 375 OFFCURVE",
"320 405 OFFCURVE",
"320 410 CURVE",
"320 410 OFFCURVE",
"310 425 OFFCURVE",
"310 430 CURVE SMOOTH",
"310 435 OFFCURVE",
"300 445 OFFCURVE",
"300 445 CURVE",
"295 450 OFFCURVE",
"285 465 OFFCURVE",
"280 465 CURVE SMOOTH",
"280 465 OFFCURVE",
"260 475 OFFCURVE",
"255 480 CURVE",
"225 495 LINE",
"165 495 LINE SMOOTH",
"160 495 OFFCURVE",
"150 490 OFFCURVE",
"145 490 CURVE",
"140 485 LINE",
"140 440 LINE SMOOTH",
"140 435 OFFCURVE",
"145 420 OFFCURVE",
"145 415 CURVE SMOOTH",
"145 310 LINE SMOOTH",
"145 305 OFFCURVE",
"140 264 OFFCURVE",
"140 259 CURVE SMOOTH"
);
},
{
closed = 1;
nodes = (
"215 365 LINE SMOOTH",
"215 370 OFFCURVE",
"210 435 OFFCURVE",
"210 440 CURVE SMOOTH",
"210 450 LINE SMOOTH",
"210 455 OFFCURVE",
"215 460 OFFCURVE",
"215 460 CURVE SMOOTH",
"215 460 OFFCURVE",
"225 455 OFFCURVE",
"230 455 CURVE SMOOTH",
"235 455 OFFCURVE",
"250 445 OFFCURVE",
"250 445 CURVE",
"265 430 LINE SMOOTH",
"270 425 OFFCURVE",
"280 410 OFFCURVE",
"280 410 CURVE",
"280 405 OFFCURVE",
"290 380 OFFCURVE",
"290 375 CURVE",
"295 365 LINE",
"295 360 OFFCURVE",
"300 345 OFFCURVE",
"300 345 CURVE",
"300 330 LINE SMOOTH",
"300 305 OFFCURVE",
"295 279 OFFCURVE",
"285 254 CURVE",
"280 244 LINE",
"275 239 OFFCURVE",
"260 219 OFFCURVE",
"255 214 CURVE SMOOTH",
"240 199 LINE",
"235 199 OFFCURVE",
"225 189 OFFCURVE",
"220 189 CURVE SMOOTH",
"210 189 LINE",
"210 244 LINE SMOOTH",
"210 249 OFFCURVE",
"215 284 OFFCURVE",
"215 289 CURVE SMOOTH"
);
}
);
width = 437;
}
);
note = D;
unicode = 0044;
},
{
glyphname = E;
layers = (
{
layerId = "4FCC7E5A-ABB0-4C53-A7CD-8FBAF99C528D";
name = Regular;
paths = (
{
closed = 1;
nodes = (
"73 151 LINE SMOOTH",
"73 136 OFFCURVE",
"78 71 OFFCURVE",
"78 56 CURVE SMOOTH",
"78 11 LINE",
"83 1 LINE",
"88 -4 OFFCURVE",
"93 -9 OFFCURVE",
"98 -9 CURVE SMOOTH",
"163 -9 LINE",
"163 -9 OFFCURVE",
"183 -4 OFFCURVE",
"193 -4 CURVE SMOOTH",
"198 -4 OFFCURVE",
"213 1 OFFCURVE",
"218 1 CURVE SMOOTH",
"223 1 OFFCURVE",
"253 11 OFFCURVE",
"258 11 CURVE SMOOTH",
"263 11 OFFCURVE",
"293 16 OFFCURVE",
"298 16 CURVE SMOOTH",
"313 16 OFFCURVE",
"348 26 OFFCURVE",
"348 26 CURVE",
"373 51 LINE SMOOTH",
"378 56 OFFCURVE",
"393 71 OFFCURVE",
"393 76 CURVE",
"393 76 OFFCURVE",
"398 86 OFFCURVE",
"398 91 CURVE SMOOTH",
"398 96 OFFCURVE",
"403 116 OFFCURVE",
"403 116 CURVE",
"403 141 LINE SMOOTH",
"403 146 OFFCURVE",
"398 156 OFFCURVE",
"398 161 CURVE",
"393 166 LINE",
"383 171 LINE",
"328 171 LINE SMOOTH",
"323 171 OFFCURVE",
"298 166 OFFCURVE",
"293 166 CURVE SMOOTH",
"218 166 LINE",
"218 171 OFFCURVE",
"213 196 OFFCURVE",
"213 201 CURVE SMOOTH",
"213 226 LINE",
"218 226 OFFCURVE",
"238 236 OFFCURVE",
"243 236 CURVE SMOOTH",
"248 236 OFFCURVE",
"273 241 OFFCURVE",
"278 241 CURVE SMOOTH",
"283 241 OFFCURVE",
"303 251 OFFCURVE",
"308 251 CURVE",
"318 261 LINE",
"323 271 LINE",
"323 276 OFFCURVE",
"328 301 OFFCURVE",
"328 306 CURVE SMOOTH",
"328 386 LINE",
"318 391 LINE",
"273 391 LINE SMOOTH",
"268 391 OFFCURVE",
"233 386 OFFCURVE",
"228 386 CURVE SMOOTH",
"203 386 LINE",
"198 401 LINE",
"198 446 LINE",
"213 451 OFFCURVE",
"228 456 OFFCURVE",
"243 456 CURVE SMOOTH",
"248 456 OFFCURVE",
"278 461 OFFCURVE",
"283 461 CURVE SMOOTH",
"293 461 OFFCURVE",
"313 466 OFFCURVE",
"313 466 CURVE",
"318 466 OFFCURVE",
"333 486 OFFCURVE",
"333 486 CURVE",
"338 486 OFFCURVE",
"353 496 OFFCURVE",
"358 496 CURVE",
"358 511 LINE SMOOTH",
"358 521 OFFCURVE",
"353 546 OFFCURVE",
"353 551 CURVE",
"348 566 LINE",
"343 571 OFFCURVE",
"333 601 OFFCURVE",
"328 606 CURVE SMOOTH",
"323 611 LINE",
"203 611 LINE SMOOTH",
"193 611 OFFCURVE",
"138 606 OFFCURVE",
"128 606 CURVE SMOOTH",
"123 606 OFFCURVE",
"103 596 OFFCURVE",
"98 591 CURVE",
"98 591 OFFCURVE",
"83 581 OFFCURVE",
"78 576 CURVE SMOOTH",
"73 571 LINE",
"68 561 LINE",
"68 561 OFFCURVE",
"58 546 OFFCURVE",
"53 546 CURVE",
"53 386 LINE SMOOTH",
"53 381 OFFCURVE",
"58 356 OFFCURVE",
"58 351 CURVE",
"63 306 OFFCURVE",
"73 176 OFFCURVE",
"73 166 CURVE SMOOTH"
);
},
{
closed = 1;
nodes = (
"93 271 OFFCURVE",
"88 421 OFFCURVE",
"88 456 CURVE SMOOTH",
"88 516 LINE",
"143 526 OFFCURVE",
"198 526 OFFCURVE",
"253 531 CURVE",
"258 531 OFFCURVE",
"268 526 OFFCURVE",
"268 526 CURVE",
"273 516 LINE",
"273 501 LINE",
"263 496 LINE",
"258 496 OFFCURVE",
"213 491 OFFCURVE",
"208 491 CURVE",
"188 486 LINE",
"183 486 OFFCURVE",
"158 481 OFFCURVE",
"148 481 CURVE SMOOTH",
"143 481 LINE SMOOTH",
"138 481 OFFCURVE",
"128 476 OFFCURVE",
"123 476 CURVE",
"123 426 LINE SMOOTH",
"123 421 OFFCURVE",
"128 396 OFFCURVE",
"128 391 CURVE",
"128 391 OFFCURVE",
"133 376 OFFCURVE",
"133 371 CURVE",
"138 356 LINE",
"143 336 LINE",
"143 331 OFFCURVE",
"148 326 OFFCURVE",
"153 321 CURVE",
"163 316 LINE",
"233 316 LINE SMOOTH",
"238 316 OFFCURVE",
"248 306 OFFCURVE",
"248 301 CURVE SMOOTH",
"248 281 LINE",
"243 276 LINE",
"243 276 OFFCURVE",
"228 271 OFFCURVE",
"223 271 CURVE SMOOTH",
"218 271 OFFCURVE",
"183 266 OFFCURVE",
"178 266 CURVE",
"158 261 LINE",
"143 261 LINE",
"138 256 LINE",
"138 206 LINE SMOOTH",
"138 201 OFFCURVE",
"143 176 OFFCURVE",
"143 171 CURVE SMOOTH",
"143 166 OFFCURVE",
"148 121 OFFCURVE",
"148 116 CURVE SMOOTH",
"148 111 OFFCURVE",
"153 91 OFFCURVE",
"153 91 CURVE",
"163 81 LINE",
"178 81 LINE",
"198 91 LINE",
"203 91 OFFCURVE",
"213 96 OFFCURVE",
"213 96 CURVE",
"313 96 LINE",
"318 91 LINE",
"323 81 LINE",
"323 61 LINE",
"318 56 LINE",
"318 56 OFFCURVE",
"303 51 OFFCURVE",
"298 51 CURVE SMOOTH",
"293 51 OFFCURVE",
"268 46 OFFCURVE",
"263 46 CURVE SMOOTH",
"258 46 OFFCURVE",
"233 41 OFFCURVE",
"233 41 CURVE SMOOTH",
"228 41 OFFCURVE",
"203 31 OFFCURVE",
"198 31 CURVE SMOOTH",
"193 31 OFFCURVE",
"173 26 OFFCURVE",
"168 26 CURVE SMOOTH",
"113 26 LINE",
"113 36 OFFCURVE",
"108 81 OFFCURVE",
"108 91 CURVE SMOOTH",
"108 106 LINE SMOOTH",
"108 131 OFFCURVE",
"98 206 OFFCURVE",
"98 216 CURVE SMOOTH",
"98 221 OFFCURVE",
"93 231 OFFCURVE",
"93 236 CURVE SMOOTH"
);
}
);
width = 385;
}
);
note = E;
unicode = 0045;
},
{
glyphname = F;
layers = (
{
layerId = "4FCC7E5A-ABB0-4C53-A7CD-8FBAF99C528D";
name = Regular;
paths = (
{
closed = 1;
nodes = (
"60 33 LINE SMOOTH",
"60 28 OFFCURVE",
"65 13 OFFCURVE",
"65 8 CURVE",
"70 3 LINE SMOOTH",
"75 -2 OFFCURVE",
"90 -7 OFFCURVE",
"90 -7 CURVE",
"135 -7 LINE",
"150 -2 LINE",
"170 3 LINE",
"175 8 LINE",
"185 28 LINE",
"190 33 LINE",
"205 58 LINE",
"215 68 LINE",
"215 174 LINE",
"215 174 OFFCURVE",
"220 194 OFFCURVE",
"220 199 CURVE SMOOTH",
"220 204 OFFCURVE",
"225 219 OFFCURVE",
"225 219 CURVE",
"235 224 LINE",
"235 224 OFFCURVE",
"255 229 OFFCURVE",
"265 229 CURVE SMOOTH",
"270 229 OFFCURVE",
"295 234 OFFCURVE",
"300 234 CURVE",
"345 279 LINE",
"350 289 LINE",
"350 294 OFFCURVE",
"355 335 OFFCURVE",
"355 350 CURVE SMOOTH",
"355 360 LINE SMOOTH",
"355 365 OFFCURVE",
"350 375 OFFCURVE",
"350 375 CURVE",
"345 380 OFFCURVE",
"335 385 OFFCURVE",
"330 385 CURVE SMOOTH",
"225 385 LINE",
"225 435 LINE",
"235 435 OFFCURVE",
"270 440 OFFCURVE",
"280 440 CURVE SMOOTH",
"285 440 OFFCURVE",
"300 445 OFFCURVE",
"305 445 CURVE",
"315 450 LINE",
"330 465 LINE",
"370 500 LINE",
"375 505 LINE",
"375 591 LINE",
"370 596 LINE",
"355 606 LINE",
"295 606 LINE SMOOTH",
"275 606 OFFCURVE",
"190 601 OFFCURVE",
"170 601 CURVE SMOOTH",
"165 601 OFFCURVE",
"155 596 OFFCURVE",
"150 596 CURVE",
"135 586 LINE",
"130 586 OFFCURVE",
"105 566 OFFCURVE",
"100 566 CURVE",
"85 556 LINE",
"60 541 LINE",
"55 536 OFFCURVE",
"50 526 OFFCURVE",
"50 521 CURVE SMOOTH",
"50 516 OFFCURVE",
"55 495 OFFCURVE",
"55 495 CURVE",
"55 485 OFFCURVE",
"60 465 OFFCURVE",
"60 460 CURVE SMOOTH",
"60 440 OFFCURVE",
"70 335 OFFCURVE",
"70 305 CURVE SMOOTH",
"70 279 LINE SMOOTH",
"70 274 OFFCURVE",
"65 249 OFFCURVE",
"65 239 CURVE SMOOTH",
"65 234 OFFCURVE",
"60 219 OFFCURVE",
"60 214 CURVE SMOOTH"
);
},
{
closed = 1;
nodes = (
"95 33 LINE",
"95 43 OFFCURVE",
"90 83 OFFCURVE",
"90 93 CURVE SMOOTH",
"90 229 LINE SMOOTH",
"90 234 OFFCURVE",
"95 249 OFFCURVE",
"95 254 CURVE SMOOTH",
"95 274 LINE SMOOTH",
"95 340 OFFCURVE",
"90 405 OFFCURVE",
"90 470 CURVE SMOOTH",
"90 505 LINE",
"105 505 OFFCURVE",
"170 516 OFFCURVE",
"185 516 CURVE SMOOTH",
"190 516 OFFCURVE",
"215 521 OFFCURVE",
"220 521 CURVE SMOOTH",
"295 521 LINE",
"295 505 LINE SMOOTH",
"295 500 OFFCURVE",
"290 485 OFFCURVE",
"290 480 CURVE",
"285 475 LINE",
"235 475 LINE SMOOTH",
"225 475 OFFCURVE",
"190 470 OFFCURVE",
"180 470 CURVE SMOOTH",
"175 470 OFFCURVE",
"160 465 OFFCURVE",
"160 465 CURVE SMOOTH",
"160 465 OFFCURVE",
"155 450 OFFCURVE",
"155 445 CURVE SMOOTH",
"155 435 LINE SMOOTH",
"155 420 OFFCURVE",
"160 335 OFFCURVE",
"160 320 CURVE",
"170 310 LINE",
"185 310 LINE",
"195 315 LINE",
"200 315 OFFCURVE",
"220 320 OFFCURVE",
"225 320 CURVE SMOOTH",
"230 320 OFFCURVE",
"255 315 OFFCURVE",
"260 315 CURVE SMOOTH",
"265 315 OFFCURVE",
"270 310 OFFCURVE",
"270 310 CURVE",
"270 269 LINE",
"270 269 OFFCURVE",
"260 264 OFFCURVE",
"255 264 CURVE SMOOTH",
"250 264 OFFCURVE",
"230 259 OFFCURVE",
"225 259 CURVE SMOOTH",
"160 259 LINE",
"150 254 LINE",
"140 244 LINE",
"140 184 LINE SMOOTH",
"140 174 OFFCURVE",
"145 114 OFFCURVE",
"145 104 CURVE SMOOTH",
"145 33 LINE",
"130 28 LINE",
"105 28 LINE"
);
}
);
width = 385;
}
);
note = F;
unicode = 0046;
},
